<?xml version="1.0" encoding="utf-8" ?>
<svg baseProfile="full" height="200mm" version="1.1" viewBox="0,0,200,200" width="200mm" xmlns="http://www.w3.org/2000/svg" xmlns:ev="http://www.w3.org/2001/xml-events" xmlns:xlink="http://www.w3.org/1999/xlink"><defs /><rect fill="#1a1a1a" height="200" width="200" x="0" y="0" /><text alignment-baseline="middle" fill="#e1ed5e" style="dominant-baseline: central; font-size:9.0px; font-family:Arial;" text-anchor="middle" x="100.0" y="100.0">2025</text><line stroke="#e1ed5e" stroke-width="0.3" x1="100.0" x2="100.0" y1="15.0" y2="10.0" /><path d="M 100.0 14.0 a86.0,86.0 0 0,1 42.46469731375804,11.215312516191453" fill="none" id="id25" stroke="none" /><text fill="#e1ed5e" style="font-size:6.75px; font-family:Arial;" text-anchor="middle"><textPath startOffset="22.20632615414155" xlink:href="#id25">January</textPath></text><path d="M 100.0 79.0 l 0.0 -31.84005827579655 a52.84005827579655,52.84005827579655 0 0,0 0.909554742396346,0.007828824824485756 l -0.5480742631238177 31.835340827580623" fill="#ff0000" stroke="none" /><path d="M 100.36148047927253 79.00311137660856 l 1.046307535353902 -60.775627026537165 a81.78463292582504,81.78463292582504 0 0,0 1.4073708566551428,0.0363482370789306 l -2.0923050272039125 60.74861199731588" fill="#48fbff" stroke="none" /><path d="M 100.72285384407766 79.0124445844662 l 2.083101655907301 -60.4813985534366 a81.51726103756255,81.51726103756255 0 0,0 1.401938387725127,0.060370416031179784 l -3.1238808760217593 60.43658041088122" fill="#47fffe" stroke="none" /><path d="M 101.08401301168833 79.027996857942 l 3.139801327007383 -60.74458755147214 a81.82567935643252,81.82567935643252 0 0,0 1.405990975775332,0.08481321525357523 l -4.184954351622326 60.68154106683826" fill="#48faff" stroke="none" /><path d="M 101.44485096284872 79.0497635885617 l 4.1610279993613055 -60.33461065725232 a81.47792487489707,81.47792487489707 0 0,0 1.398354451205288,0.10853921837158238 l -5.198972639928934 60.25404617669227" fill="#47fffd" stroke="none" /><path d="M 101.80526077348638 79.07773832637324 l 5.153934643453517 -59.73207352800132 a80.95401279533795,80.95401279533795 0 0,0 1.387300717440809,0.13174091936152238 l -6.181360487984571 59.63450706412462" fill="#45fff3" stroke="none" /><path d="M 102.16513564639614 79.11191278185805 l 6.466723677315391 -62.38754066620443 a83.72179641477166,83.72179641477166 0 0,0 1.4321741387698137,0.1609214517147966 l -7.53966451959493 62.266983261019035" fill="#4cd7ff" stroke="none" /><path d="M 102.52436894288641 79.15227682838746 l 7.173717940899617 -59.244781221282594 a80.67751947805156,80.67751947805156 0 0,0 1.3772239273048976,0.17880319235554964 l -8.192456596712361 59.11251970576291" fill="#45ffed" stroke="none" /><path d="M 102.88285421437855 79.19881850522331 l 8.175160880126988 -58.98772278124964 a80.55152973965922,80.55152973965922 0 0,0 1.3717964623250372,0.202167139359609 l -9.18932632288068 58.83826115772906" fill="#44ffeb" stroke="none" /><path d="M 103.2404852339499 79.25152402106235 l 9.142790293541184 -58.540296002143776 a80.24995249255717,80.24995249255717 0 0,0 1.3629911553732341,0.2249052191954558 l -10.149110655053294 58.374244520008695" fill="#44ffe5" stroke="none" /><path d="M 103.95276090670814 79.375362276772 l 11.315636096630655 -59.04250234432963 a81.11705833913982,81.11705833913982 0 0,0 1.3690766781240946,0.2746239020270066 l -12.330279184221876 58.83897448622541" fill="#46fff6" stroke="none" /><path d="M 104.307194497241 79.44645832069477 l 12.35576946285253 -58.96061178507223 a81.24133780959016,81.24133780959016 0 0,0 1.366236645093231,0.29860641312066455 l -13.368848832099289 58.739191873855695" fill="#46fff9" stroke="none" /><path d="M 104.66035177308747 79.52364482259891 l 13.390103366061556 -58.83257868406491 a81.33711281434091,81.33711281434091 0 0,0 1.3624985551877205,0.3224593874501532 l -14.4008256082118 58.59337338447389" fill="#46fffa" stroke="none" /><path d="M 105.01212808612495 79.60689891045804 l 14.470898976833931 -58.87848447210786 a81.63070881104706,81.63070881104706 0 0,0 1.3616434146119425,0.3471132246399096 l -15.482251280130898 58.62066825129908" fill="#47feff" stroke="none" /><path d="M 105.36241919743992 79.69619591428918 l 16.08725759231978 -60.91141225713248 a84.0,84.0 0 0,0 1.3948084431051566,0.3812538366948255 l -17.13336392464865 60.62547187961136" fill="#4dd2ff" stroke="none" /><path d="M 105.71112130821622 79.79150937346287 l 17.067781818755677 -60.39341318208379 a83.75885222018117,83.75885222018117 0 0,0 1.384054336793367,0.40404341417884354 l -18.104826373272473 60.09067143898624" fill="#4cd6ff" stroke="none" /><path d="M 106.0581310904928 79.89281104454417 l 17.773931339725753 -58.992417065721334 a82.61183252042821,82.61183252042821 0 0,0 1.3580387130106757,0.42194923872613954 l -18.786755425447147 58.677727692112676" fill="#4aebff" stroke="none" /><line stroke="#e1ed5e" stroke-width="0.3" x1="143.23703022742887" x2="145.7803849466894" y1="26.81831364943548" y2="22.513508569990506" /><path d="M 143.74570117128098 25.957352633546492 a86.0,86.0 0 0,1 28.547481713284135,27.462654790039103" fill="none" id="id26" stroke="none" /><text fill="#e1ed5e" style="font-size:6.75px; font-family:Arial;" text-anchor="middle"><textPath startOffset="19.985693538727396" xlink:href="#id26">February</textPath></text><line stroke="#e1ed5e" stroke-width="0.3" x1="172.23445277983987" x2="176.4835382374775" y1="55.19839476539836" y2="52.563006222186495" /><path d="M 173.08426987136738 54.67131705675599 a86.0,86.0 0 0,1 12.851231095245387,41.99856678651699" fill="none" id="id27" stroke="none" /><text fill="#e1ed5e" style="font-size:6.75px; font-family:Arial;" text-anchor="middle"><textPath startOffset="22.20632615414155" xlink:href="#id27">March</textPath></text><line stroke="#e1ed5e" stroke-width="0.3" x1="184.98032266829074" x2="189.97916517819016" y1="98.17113171792111" y2="98.06355123074" /><path d="M 185.9800911702706 98.14961562048488 a86.0,86.0 0 0,1 -9.607161424134198,41.387399972396054" fill="none" id="id28" stroke="none" /><text fill="#e1ed5e" style="font-size:6.75px; font-family:Arial;" text-anchor="middle"><textPath startOffset="21.466115282336823" xlink:href="#id28">April</textPath></text><line stroke="#e1ed5e" stroke-width="0.3" x1="174.80103733775053" x2="179.2010983576182" y1="140.37084112569926" y2="142.7455964860345" /><path d="M 175.68104954172406 140.8457921977663 a86.0,86.0 0 0,1 -30.038265399797805,32.042727171017184" fill="none" id="id29" stroke="none" /><text fill="#e1ed5e" style="font-size:6.75px; font-family:Arial;" text-anchor="middle"><textPath startOffset="22.206326154141568" xlink:href="#id29">May</textPath></text><line stroke="#e1ed5e" stroke-width="0.3" x1="143.8653032363475" x2="146.44561519142675" y1="172.8068346515853" y2="177.08958963109032" /><path d="M 144.38136562736335 173.6633856474863 a86.0,86.0 0 0,1 -40.68145358897372,12.25698825130547" fill="none" id="id30" stroke="none" /><text fill="#e1ed5e" style="font-size:6.75px; font-family:Arial;" text-anchor="middle"><textPath startOffset="21.466115282336833" xlink:href="#id30">June</textPath></text><line stroke="#e1ed5e" stroke-width="0.3" x1="102.19456741930631" x2="102.32365962044197" y1="184.97166512339345" y2="189.96999836594603" /><path d="M 102.22038585953345 185.97133177190398 a86.0,86.0 0 0,1 -42.740103519485714,-10.115201625700543" fill="none" id="id31" stroke="none" /><text fill="#e1ed5e" style="font-size:6.75px; font-family:Arial;" text-anchor="middle"><textPath startOffset="22.20632615414155" xlink:href="#id31">July</textPath></text><line stroke="#e1ed5e" stroke-width="0.3" x1="58.666819895761336" x2="56.23545636021788" y1="174.27360380694188" y2="178.64263932499728" /><path d="M 58.180547188652646 175.14741091055294 a86.0,86.0 0 0,1 -31.652253787137756,-30.449443065178592" fill="none" id="id32" stroke="none" /><text fill="#e1ed5e" style="font-size:6.75px; font-family:Arial;" text-anchor="middle"><textPath startOffset="22.20632615414155" xlink:href="#id32">August</textPath></text><line stroke="#e1ed5e" stroke-width="0.3" x1="26.63291911575756" x2="22.317208475507996" y1="142.92168965132927" y2="145.44649492493687" /><path d="M 25.769776987707644 143.4266507060508 a86.0,86.0 0 0,1 -11.730757126820373,-40.83630448921669" fill="none" id="id33" stroke="none" /><text fill="#e1ed5e" style="font-size:6.75px; font-family:Arial;" text-anchor="middle"><textPath startOffset="21.46611528233685" xlink:href="#id33">September</textPath></text><line stroke="#e1ed5e" stroke-width="0.3" x1="15.007084014347285" x2="10.007500721073583" y1="101.09737516637583" y2="101.16192664675087" /><path d="M 14.007167355692545 101.11028546245083 a86.0,86.0 0 0,1 10.666146001902534,-42.60595125391555" fill="none" id="id34" stroke="none" /><text fill="#e1ed5e" style="font-size:6.75px; font-family:Arial;" text-anchor="middle"><textPath startOffset="22.20632615414155" xlink:href="#id34">October</textPath></text><line stroke="#e1ed5e" stroke-width="0.3" x1="26.266209847984243" x2="21.928928074336255" y1="57.711370442889674" y2="55.22380399835377" /><path d="M 25.398753493254645 57.213857153982495 a86.0,86.0 0 0,1 29.58750427330803,-30.492523968695096" fill="none" id="id35" stroke="none" /><text fill="#e1ed5e" style="font-size:6.75px; font-family:Arial;" text-anchor="middle"><textPath startOffset="21.46611528233685" xlink:href="#id35">November</textPath></text><line stroke="#e1ed5e" stroke-width="0.3" x1="56.762969772571076" x2="54.21961505331055" y1="26.818313649435495" y2="22.513508569990535" /><path d="M 56.25429882871897 25.957352633546506 a86.0,86.0 0 0,1 42.265352541879196,-11.944610805530505" fill="none" id="id36" stroke="none" /><text fill="#e1ed5e" style="font-size:6.75px; font-family:Arial;" text-anchor="middle"><textPath startOffset="22.20632615414155" xlink:href="#id36">December</textPath></text></svg>