<?xml version="1.0" encoding="utf-8" ?>
<svg baseProfile="full" height="200mm" version="1.1" viewBox="0,0,200,200" width="200mm" xmlns="http://www.w3.org/2000/svg" xmlns:ev="http://www.w3.org/2001/xml-events" xmlns:xlink="http://www.w3.org/1999/xlink"><defs /><rect fill="#1a1a1a" height="200" width="200" x="0" y="0" /><text alignment-baseline="middle" fill="#e1ed5e" style="dominant-baseline: central; font-size:9.0px; font-family:Arial;" text-anchor="middle" x="100.0" y="100.0">2026</text><line stroke="#e1ed5e" stroke-width="0.3" x1="100.0" x2="100.0" y1="15.0" y2="10.0" /><path d="M 100.0 14.0 a86.0,86.0 0 0,1 42.46469731375804,11.215312516191453" fill="none" id="id37" stroke="none" /><text fill="#e1ed5e" style="font-size:6.75px; font-family:Arial;" text-anchor="middle"><textPath startOffset="22.20632615414155" xlink:href="#id37">January</textPath></text><path d="M 100.0 79.0 l 0.0 -52.596624480996496 a73.5966244809965,73.5966244809965 0 0,0 1.2668449090586147,0.010904134089479215 l -0.9053644297860863 52.588831723515575" fill="#34ff58" stroke="none" /><path d="M 100.36148047927253 79.00311137660856 l 0.7855143415459658 -45.627241544854186 a66.6340027147876,66.6340027147876 0 0,0 1.14665494149891,0.02961471417731831 l -1.5707959182397435 45.60696003853451" fill="#9aff23" stroke="none" /><path d="M 100.72285384407766 79.0124445844662 l 1.5176381099999219 -44.06356028304851 a65.08968779942509,65.08968779942509 0 0,0 1.1194160697942215,0.04820441071959249 l -2.275895012183475 44.03090814580472" fill="#bcff1f" stroke="none" /><path d="M 101.08401301168833 79.027996857942 l 2.9220702867570316 -56.532224774440465 a77.60769322900032,77.60769322900032 0 0,0 1.3335143342398286,0.0804412263110309 l -3.894746669836472 56.47355027874913" fill="#3dffb0" stroke="none" /><path d="M 101.44485096284872 79.0497635885617 l 3.0304924074753408 -43.941924815898716 a65.04630110188438,65.04630110188438 0 0,0 1.1163488125147756,0.08665015328263842 l -3.7864314093524576 43.883249400427616" fill="#bdff1f" stroke="none" /><path d="M 101.80526077348638 79.07773832637324 l 3.811782753853969 -44.177061502938734 a65.3412048866177,65.3412048866177 0 0,0 1.1197456097305647,0.10633333798677792 l -4.571653490674778 44.104902620436775" fill="#b6ff1f" stroke="none" /><path d="M 102.16513564639614 79.11191278185805 l 4.542609831412994 -43.82470470821639 a65.05950574896198,65.05950574896198 0 0,0 1.1129305103917901,0.12505071034432452 l -5.29630704531451 43.74001804440147" fill="#bdff1f" stroke="none" /><path d="M 102.88285421437855 79.19881850522331 l 6.050592846440789 -43.657941259073716 a65.07522556691153,65.07522556691153 0 0,0 1.1082342508728464,0.16332492056406542 l -6.801196077742291 43.54732185434868" fill="#bcff1f" stroke="none" /><path d="M 103.2404852339499 79.25152402106235 l 7.282359232739424 -46.6281574214464 a68.19340865538166,68.19340865538166 0 0,0 1.1582189143433845,0.19111604486926456 l -8.083907353221683 46.495895113637516" fill="#79ff26" stroke="none" /><path d="M 103.59715602781102 79.31037775812273 l 10.791468083433088 -62.06886672563182 a84.0,84.0 0 0,0 1.4224195155883965,0.2599380745970459 l -11.858282720124386 61.87391316968404" fill="#4dd2ff" stroke="none" /><path d="M 103.95276090670814 79.375362276772 l 5.9307983382449 -30.945602332849603 a52.50880309805174,52.50880309805174 0 0,0 0.8862325531726768,0.17776991292344316 l -6.462597300884702 30.83892846384895" fill="#ff0000" stroke="none" /><path d="M 104.307194497241 79.44645832069477 l 9.247279019517757 -44.127177184492055 a66.08569546470775,66.08569546470775 0 0,0 1.111364008701702,0.24290112661058974 l -10.005485752372987 43.961462559785595" fill="#a6ff21" stroke="none" /><path d="M 104.66035177308747 79.52364482259891 l 9.957901715085894 -43.752390863976736 a65.87127714787607,65.87127714787607 0 0,0 1.103426429054744,0.26114538547916505 l -10.70955183110316 43.5744995663567" fill="#aaff21" stroke="none" /><path d="M 105.01212808612495 79.60689891045804 l 10.525258874886255 -42.824657419140635 a65.09911969019483,65.09911969019483 0 0,0 1.085887761043091,0.27681696858945987 l -11.260855524614371 42.63713745438231" fill="#bcff1f" stroke="none" /><line stroke="#e1ed5e" stroke-width="0.3" x1="143.23703022742887" x2="145.7803849466894" y1="26.81831364943548" y2="22.513508569990506" /><path d="M 143.74570117128098 25.957352633546492 a86.0,86.0 0 0,1 28.547481713284135,27.462654790039103" fill="none" id="id38" stroke="none" /><text fill="#e1ed5e" style="font-size:6.75px; font-family:Arial;" text-anchor="middle"><textPath startOffset="19.985693538727396" xlink:href="#id38">February</textPath></text><line stroke="#e1ed5e" stroke-width="0.3" x1="172.23445277983987" x2="176.4835382374775" y1="55.19839476539836" y2="52.563006222186495" /><path d="M 173.08426987136738 54.67131705675599 a86.0,86.0 0 0,1 12.851231095245387,41.99856678651699" fill="none" id="id39" stroke="none" /><text fill="#e1ed5e" style="font-size:6.75px; font-family:Arial;" text-anchor="middle"><textPath startOffset="22.20632615414155" xlink:href="#id39">March</textPath></text><line stroke="#e1ed5e" stroke-width="0.3" x1="184.98032266829074" x2="189.97916517819016" y1="98.17113171792111" y2="98.06355123074" /><path d="M 185.9800911702706 98.14961562048488 a86.0,86.0 0 0,1 -9.607161424134198,41.387399972396054" fill="none" id="id40" stroke="none" /><text fill="#e1ed5e" style="font-size:6.75px; font-family:Arial;" text-anchor="middle"><textPath startOffset="21.466115282336823" xlink:href="#id40">April</textPath></text><line stroke="#e1ed5e" stroke-width="0.3" x1="174.80103733775053" x2="179.2010983576182" y1="140.37084112569926" y2="142.7455964860345" /><path d="M 175.68104954172406 140.8457921977663 a86.0,86.0 0 0,1 -30.038265399797805,32.042727171017184" fill="none" id="id41" stroke="none" /><text fill="#e1ed5e" style="font-size:6.75px; font-family:Arial;" text-anchor="middle"><textPath startOffset="22.206326154141568" xlink:href="#id41">May</textPath></text><line stroke="#e1ed5e" stroke-width="0.3" x1="143.8653032363475" x2="146.44561519142675" y1="172.8068346515853" y2="177.08958963109032" /><path d="M 144.38136562736335 173.6633856474863 a86.0,86.0 0 0,1 -40.68145358897372,12.25698825130547" fill="none" id="id42" stroke="none" /><text fill="#e1ed5e" style="font-size:6.75px; font-family:Arial;" text-anchor="middle"><textPath startOffset="21.466115282336833" xlink:href="#id42">June</textPath></text><line stroke="#e1ed5e" stroke-width="0.3" x1="102.19456741930631" x2="102.32365962044197" y1="184.97166512339345" y2="189.96999836594603" /><path d="M 102.22038585953345 185.97133177190398 a86.0,86.0 0 0,1 -42.740103519485714,-10.115201625700543" fill="none" id="id43" stroke="none" /><text fill="#e1ed5e" style="font-size:6.75px; font-family:Arial;" text-anchor="middle"><textPath startOffset="22.20632615414155" xlink:href="#id43">July</textPath></text><line stroke="#e1ed5e" stroke-width="0.3" x1="58.666819895761336" x2="56.23545636021788" y1="174.27360380694188" y2="178.64263932499728" /><path d="M 58.180547188652646 175.14741091055294 a86.0,86.0 0 0,1 -31.652253787137756,-30.449443065178592" fill="none" id="id44" stroke="none" /><text fill="#e1ed5e" style="font-size:6.75px; font-family:Arial;" text-anchor="middle"><textPath startOffset="22.20632615414155" xlink:href="#id44">August</textPath></text><line stroke="#e1ed5e" stroke-width="0.3" x1="26.63291911575756" x2="22.317208475507996" y1="142.92168965132927" y2="145.44649492493687" /><path d="M 25.769776987707644 143.4266507060508 a86.0,86.0 0 0,1 -11.730757126820373,-40.83630448921669" fill="none" id="id45" stroke="none" /><text fill="#e1ed5e" style="font-size:6.75px; font-family:Arial;" text-anchor="middle"><textPath startOffset="21.46611528233685" xlink:href="#id45">September</textPath></text><line stroke="#e1ed5e" stroke-width="0.3" x1="15.007084014347285" x2="10.007500721073583" y1="101.09737516637583" y2="101.16192664675087" /><path d="M 14.007167355692545 101.11028546245083 a86.0,86.0 0 0,1 10.666146001902534,-42.60595125391555" fill="none" id="id46" stroke="none" /><text fill="#e1ed5e" style="font-size:6.75px; font-family:Arial;" text-anchor="middle"><textPath startOffset="22.20632615414155" xlink:href="#id46">October</textPath></text><line stroke="#e1ed5e" stroke-width="0.3" x1="26.266209847984243" x2="21.928928074336255" y1="57.711370442889674" y2="55.22380399835377" /><path d="M 25.398753493254645 57.213857153982495 a86.0,86.0 0 0,1 29.58750427330803,-30.492523968695096" fill="none" id="id47" stroke="none" /><text fill="#e1ed5e" style="font-size:6.75px; font-family:Arial;" text-anchor="middle"><textPath startOffset="21.46611528233685" xlink:href="#id47">November</textPath></text><line stroke="#e1ed5e" stroke-width="0.3" x1="56.762969772571076" x2="54.21961505331055" y1="26.818313649435495" y2="22.513508569990535" /><path d="M 56.25429882871897 25.957352633546506 a86.0,86.0 0 0,1 42.265352541879196,-11.944610805530505" fill="none" id="id48" stroke="none" /><text fill="#e1ed5e" style="font-size:6.75px; font-family:Arial;" text-anchor="middle"><textPath startOffset="22.20632615414155" xlink:href="#id48">December</textPath></text></svg>