<?xml version="1.0" encoding="utf-8" ?>
<svg baseProfile="full" height="200mm" version="1.1" viewBox="0,0,200,200" width="200mm" xmlns="http://www.w3.org/2000/svg" xmlns:ev="http://www.w3.org/2001/xml-events" xmlns:xlink="http://www.w3.org/1999/xlink"><defs /><rect fill="#1a1a1a" height="200" width="200" x="0" y="0" /><text alignment-baseline="middle" fill="#e1ed5e" style="dominant-baseline: central; font-size:9.0px; font-family:Arial;" text-anchor="middle" x="100.0" y="100.0">2024</text><line stroke="#e1ed5e" stroke-width="0.3" x1="100.0" x2="100.0" y1="15.0" y2="10.0" /><path d="M 100.0 14.0 a86.0,86.0 0 0,1 42.35913384403234,11.155469271406648" fill="none" id="id13" stroke="none" /><text fill="#e1ed5e" style="font-size:6.75px; font-family:Arial;" text-anchor="middle"><textPath startOffset="22.145653131862478" xlink:href="#id13">January</textPath></text><path d="M 100.36049292484886 79.00309439819443 l 0.17990723513020856 -10.478694511673513 a31.4802387989124,31.4802387989124 0 0,0 0.5402409015715097,0.013914689258075314 l -0.3597614507724597 10.474062105065393" fill="#ff7f0b" stroke="none" /><path d="M 101.08105385017728 79.02784411241856 l 0.5377690172878553 -10.432575269236517 a31.44642629152382,31.44642629152382 0 0,0 0.538865433631194,0.0324168063663383 l -0.7167788030515116 10.421806485045487" fill="#ff7f0b" stroke="none" /><path d="M 101.80034050326958 79.07731436759882 l 2.249184822238169 -26.13893698408383 a47.2355266579974,47.2355266579974 0 0,0 0.8072786257759108,0.07645012518540137 l -2.697563011399093 26.096475103393246" fill="#baff1f" stroke="none" /><path d="M 102.51750503828377 79.15144685158666 l 0.8974270058566794 -7.4319829926455325 a28.485969972810025,28.485969972810025 0 0,0 0.48496981096345454,0.06278905146308551 l -1.0248746387109258 7.41548234498205" fill="#ff5607" stroke="none" /><path d="M 103.23170211078529 79.25015418208739 l 1.3835153985002302 -8.883161325352413 a29.99025416715924,29.99025416715924 0 0,0 0.5080099093530924,0.0835928372636089 l -1.5358028109063933 8.858102489593135" fill="#ff6b09" stroke="none" /><path d="M 104.29559338865022 79.4440306129975 l 6.451342440519508 -30.872008990138525 a52.538876935808005,52.538876935808005 0 0,0 0.8812460497816059,0.19206347493590356 l -6.980350906920249 30.7567140570689" fill="#7fff26" stroke="none" /><path d="M 105.3480935250658 79.69241777938227 l 1.9014151071076835 -7.219982867191696 a28.46615912046341,28.46615912046341 0 0,0 0.4714790279071286,0.12850370563019786 l -2.025075535949505 7.186278667417357" fill="#ff5607" stroke="none" /><path d="M 105.69591212413111 79.78721728523813 l 2.025843160943182 -7.1890026977158366 a28.468989242227213,28.468989242227213 0 0,0 0.4692502658958459,0.13659191347563002 l -2.148953439220632 7.153167089937691" fill="#ff5607" stroke="none" /><path d="M 106.04205211174951 79.88797359093562 l 2.146296336270436 -7.144322458392387 a28.459754108050596,28.459754108050596 0 0,0 0.46668490063225365,0.1445801751633639 l -2.26862186977432 7.106425695422376" fill="#ff5607" stroke="none" /><path d="M 107.06938296918511 80.22567764915836 l 6.7958340350943605 -19.00915729683082 a41.18740749497576,41.18740749497576 0 0,0 0.663726929121048,0.24372972194916392 l -7.121150115869534 18.889696725872938" fill="#fffc17" stroke="none" /><path d="M 108.4095320186766 80.7573450057729 l 2.992178895752742 -6.8466908793622006 a28.47196831776806,28.47196831776806 0 0,0 0.44617824608078843,0.19956985431376056 l -3.1092705446891626 6.794317274138587" fill="#ff5607" stroke="none" /><path d="M 108.73861861582097 80.90454125486305 l 3.1004069263272105 -6.774948668389292 a28.450667927651022,28.450667927651022 0 0,0 0.4423554369653361,0.20704468033518988 l -3.2162510771640513 6.720727756483568" fill="#ff5507" stroke="none" /><path d="M 110.02825361518725 81.54914285379988 l 3.579229414795653 -6.585378986213334 a28.49520510698664,28.49520510698664 0 0,0 0.42777519141245285,0.23727968767587054 l -3.6917487943642064 6.522966383104317" fill="#ff5608" stroke="none" /><path d="M 110.34350942703115 81.72400993836675 l 3.6766352139743157 -6.496262134710682 a28.46452062891595,28.46452062891595 0 0,0 0.4231827494805075,0.244324674328977 l -3.7876104313152203 6.432190563105534" fill="#ff5607" stroke="none" /><line stroke="#e1ed5e" stroke-width="0.3" x1="143.13028292997686" x2="145.6673583964461" y1="26.7553504044142" y2="22.446841604673864" /><path d="M 143.63769802327073 25.89364864446614 a86.0,86.0 0 0,1 29.32050498858742,28.57503671076993" fill="none" id="id14" stroke="none" /><text fill="#e1ed5e" style="font-size:6.75px; font-family:Arial;" text-anchor="middle"><textPath startOffset="20.669276256404974" xlink:href="#id14">February</textPath></text><path d="M 110.65571695917076 81.90426304109057 l 3.7916918266276336 -6.4391216646242535 a28.472564132876226,28.472564132876226 0 0,0 0.4190446147757011,0.25162425104309144 l -3.901669197960769 6.373083413045241" fill="#ff5607" stroke="none" /><path d="M 110.96478420261332 82.08984904055464 l 3.896147270935928 -6.36406376023909 a28.46198841470623,28.46198841470623 0 0,0 0.4145093820566089,0.25868451138467013 l -4.004820781782249 6.296243452012875" fill="#ff5607" stroke="none" /><path d="M 111.27062007382361 82.28071324371311 l 9.604023264136703 -15.099119757086767 a38.894710958742166,38.894710958742166 0 0,0 0.560295661630016,0.36317687856843706 l -9.861804558023726 14.932029036814434" fill="#ffe015" stroke="none" /><path d="M 111.8722381534696 82.67804972795209 l 4.218005935943766 -6.154196717176553 a28.460945738266933,28.460945738266933 0 0,0 0.400628346193759,0.27966970000858893 l -4.323029373311286 6.0808822013628365" fill="#ff5607" stroke="none" /><path d="M 112.16784306229584 82.88440491214696 l 4.326395344793231 -6.0856168617843505 a28.46675493557158,28.46675493557158 0 0,0 0.39584919115321315,0.2865642873757881 l -4.430225546320412 6.010451803035488" fill="#ff5607" stroke="none" /><path d="M 112.45986205192187 83.09580414077388 l 4.428016089756056 -6.00745425086752 a28.463031091145524,28.463031091145524 0 0,0 0.39082047341294,0.2932789692626979 l -4.5304895520797634 5.930556254340806" fill="#ff5607" stroke="none" /><path d="M 112.7482090630111 83.31218511350987 l 0.9078521266766634 -1.18840757626453 a22.495495921503725,22.495495921503725 0 0,0 0.3048568776075616,0.2370585519379792 l -0.9281189489194509 1.1726479727057602" fill="#ff0000" stroke="none" /><path d="M 113.03279911837588 83.53348406188908 l 19.418855279358997 -24.535089281517465 a52.2899751743705,52.2899751743705 0 0,0 0.6990652499212915,0.5631174811040102 l -19.83717129963555 24.198123506620046" fill="#82ff25" stroke="none" /><path d="M 114.39649973595853 84.71141617570332 l 7.157744288866388 -7.6012763908079615 a31.44091500177326,31.44091500177326 0 0,0 0.3897588211681738,0.3733801339778838 l -7.287175595899874 7.477284126524498" fill="#ff7f0b" stroke="none" /><path d="M 115.41159269507618 85.73525988315684 l 7.661560211985845 -7.0914257517615775 a31.439723371556923,31.439723371556923 0 0,0 0.36320710356357466,0.3992282313359761 l -7.782165016391297 6.958859944867929" fill="#ff7f0b" stroke="none" /><path d="M 115.6541949942343 86.00192230759917 l 5.567556297913912 -4.978543172850424 a28.46884028845017,28.46884028845017 0 0,0 0.32263185764671803,0.36709582928873224 l -5.65219921951922 4.882235065750393" fill="#ff5607" stroke="none" /><path d="M 116.35404254752997 86.82634096563983 l 3.5082988259191143 -2.8260371947170286 a25.504958032864405,25.504958032864405 0 0,0 0.2717292998585708,0.34332109367542324 l -3.5562945564192447 2.765396157126927" fill="#ff2c04" stroke="none" /><line stroke="#e1ed5e" stroke-width="0.3" x1="172.87174338648825" x2="177.1583165268699" y1="56.24261187166439" y2="53.66864786411523" /><path d="M 173.72905801456457 55.72781907015455 a86.0,86.0 0 0,1 12.242430191666344,42.057860355516425" fill="none" id="id15" stroke="none" /><text fill="#e1ed5e" style="font-size:6.75px; font-family:Arial;" text-anchor="middle"><textPath startOffset="22.145653131862474" xlink:href="#id15">March</textPath></text><path d="M 118.36410011445183 89.81374322990088 l 55.092300343355504 -30.558770310297362 a84.0,84.0 0 0,0 0.6886186015386349,1.2669806661015868 l -55.60876429450948 29.60853481072117" fill="#4dd2ff" stroke="none" /><path d="M 119.16976305983485 91.42560881287824 l 3.54016279247566 -1.5834697880215307 a24.878160539070812,24.878160539070812 0 0,0 0.1710268314087738,0.3913428600124187 l -3.566823505901404 1.5224648582332627" fill="#ff2303" stroke="none" /><path d="M 119.58574465831526 92.42381321644754 l 6.9623745008212765 -2.6931960257569325 a28.465116444024115,28.465116444024115 0 0,0 0.17237568539661277,0.45724698497791505 l -7.00758087003233 2.57328076058486" fill="#ff5607" stroke="none" /><path d="M 120.05942366710727 93.78553927170692 l 4.522583099770691 -1.4011078050090342 a25.73464475706348,25.73464475706348 0 0,0 0.1271091456000944,0.4231050056935791 l -4.545968565374413 1.3232651957247314" fill="#ff2f04" stroke="none" /><path d="M 120.16314734710363 94.1308016681162 l 7.376722853880542 -2.1472565132538204 a28.682886866059818,28.682886866059818 0 0,0 0.13355504425797593,0.4739397362909092 l -7.4124963902131 2.0203088530598983" fill="#ff5908" stroke="none" /><path d="M 120.35273937422433 94.82641323984039 l 17.10943808309453 -4.349152254785459 a38.65355479371084,38.65355479371084 0 0,0 0.1579503402755427,0.6444912890099858 l -17.181575949886366 4.054805141167378" fill="#ffdd14" stroke="none" /><path d="M 120.43855184770803 95.1765574152323 l 17.414110082741715 -4.109682563363623 a38.89247665208653,38.89247665208653 0 0,0 0.14777129542659806,0.6511075932834128 l -17.48209223972598 3.8101406361411834" fill="#ffe015" stroke="none" /><path d="M 120.51834098615036 95.52812308129327 l 10.213520277049724 -2.225989207241998 a31.45327816526776,31.45327816526776 0 0,0 0.11044936828499069,0.5285402103650948 l -10.250227356159082 2.0503325455914987" fill="#ff7f0b" stroke="none" /><path d="M 120.65975698304385 96.23510406497455 l 2.8499181024204048 -0.5193500140279582 a23.896853055916775,23.896853055916775 0 0,0 0.0700805741338044,0.4042061284159269 l -2.8584134940464434 0.4703508526914387" fill="#ff1502" stroke="none" /><path d="M 120.7213421655516 96.59031103205396 l 30.862429241740333 -5.078400987196677 a52.27746305709894,52.27746305709894 0 0,0 0.13810836405737212,0.8867547695038633 l -30.94505909793597 4.547858035761371" fill="#82ff25" stroke="none" /><path d="M 120.77682067341334 96.94652285012252 l 10.324647922156275 -1.5173676957791706 a31.43555266579974,31.43555266579974 0 0,0 0.07388175710355349,0.534571590245193 l -10.34917419581504 1.339907797333892" fill="#ff7e0b" stroke="none" /><path d="M 120.9064616781168 98.02013634271609 l 14.836000270792423 -1.4049846505753671 a35.90237853174134,35.90237853174134 0 0,0 0.05283868842621565,0.6140656532263511 l -14.85793258191638 1.1500979499733541" fill="#ffba11" stroke="none" /><path d="M 120.96210409425399 98.7389718711861 l 17.101300342419755 -1.028771762325024 a38.13221657406313,38.13221657406313 0 0,0 0.03369873000534988,0.653746359415717 l -17.11644066188168 0.7350536095325764" fill="#ffd614" stroke="none" /><path d="M 120.99303781780057 99.45929381324524 l 14.91232834854669 -0.38408868058821943 a35.91727390944556,35.91727390944556 0 0,0 0.010584595541811995,0.6164996262211162 l -14.916724375687169 0.12804213839803677" fill="#ffba11" stroke="none" /><line stroke="#e1ed5e" stroke-width="0.3" x1="184.99686870605535" x2="189.99668451229388" y1="99.2704041080226" y2="99.22748670261217" /><path d="M 185.99683186730306 99.26182062694052 a86.0,86.0 0 0,1 -10.086455211305974,41.156179273409016" fill="none" id="id16" stroke="none" /><text fill="#e1ed5e" style="font-size:6.75px; font-family:Arial;" text-anchor="middle"><textPath startOffset="21.40746469413373" xlink:href="#id16">April</textPath></text><path d="M 120.99922638620191 99.81974689727618 l 14.898701632624888 -0.12788743482482778 a35.899250502423456,35.899250502423456 0 0,0 0.0,0.6162810750973075 l -14.898701632624888 -0.12788743482482598" fill="#ffba11" stroke="none" /><path d="M 120.99303781780057 100.54070618675476 l 4.4721945701843415 0.11518786816166661 a25.47367773968554,25.47367773968554 0 0,0 -0.015011654065242387,0.43704792895816025 l -4.469558229122254 -0.19194206168393754" fill="#ff2b04" stroke="none" /><path d="M 120.98066250479742 100.90099992219065 l 14.918716884573373 0.6406738943115486 a35.93246719470386,35.93246719470386 0 0,0 -0.03175473704940708,0.6160334154123186 l -14.905520558067394 -0.8966791031005978" fill="#ffba11" stroke="none" /><path d="M 120.93736805541906 101.62068470465957 l 31.352885672698235 2.4269116405741653 a52.446674547818894,52.446674547818894 0 0,0 -0.07718746246779454,0.8970353158435886 l -31.3066045875327 -2.964768003793411" fill="#80ff25" stroke="none" /><path d="M 120.9064616781168 101.97986365728391 l 8.288241797706377 0.7849051154953002 a29.32532450644284,29.32532450644284 0 0,0 -0.05176283900726681,0.5007585119331395 l -8.273546566217444 -0.9270681497113711" fill="#ff6209" stroke="none" /><path d="M 120.77682067341334 103.0534771498775 l 14.748570701174085 2.167531998147103 a35.906996098829644,35.906996098829644 0 0,0 -0.09486031263619608,0.6090712553211628 l -14.709188896399622 -2.4203914353997167" fill="#ffba11" stroke="none" /><path d="M 120.65975698304385 103.76489593502545 l 2.2303452035601907 0.4064431927964585 a23.26707648658234,23.26707648658234 0 0,0 -0.07497949207626756,0.3923243858605946 l -2.223039419201764 -0.44467014369036767" fill="#ff0b01" stroke="none" /><path d="M 120.592083275326 104.11899336999214 l 7.317042230245169 1.4636133717682418 a28.46198841470623,28.46198841470623 0 0,0 -0.09994534191385024,0.47827464167881467 l -7.290839177506954 -1.5890044647324655" fill="#ff5607" stroke="none" /><path d="M 120.51834098615036 104.47187691870673 l 10.206680021513499 2.224498405384712 a31.44627733774678,31.44627733774678 0 0,0 -0.11947958933321755,0.5264491160658735 l -10.166989570622617 -2.3993818553896027" fill="#ff7f0b" stroke="none" /><path d="M 119.4528033332814 107.91128576633889 l 6.901318342504329 2.806706089431176 a28.450221066319894,28.450221066319894 0 0,0 -0.18787192281534285,0.4508242223847697 l -6.852120575152501 -2.9247628212572234" fill="#ff5507" stroke="none" /><path d="M 118.8641267826498 109.22738970284198 l 12.131201257516226 5.933978437298482 a34.50474524175434,34.50474524175434 0 0,0 -0.26483227774633483,0.5298419596024452 l -12.027549066558159 -6.141352253064673" fill="#ffa70f" stroke="none" /><line stroke="#e1ed5e" stroke-width="0.3" x1="174.33088141563837" x2="178.70328620479359" y1="141.23008692659167" y2="143.65538615756765" /><path d="M 175.20536237346943 141.71514677278685 a86.0,86.0 0 0,1 -30.301960400862466,31.631185727798858" fill="none" id="id17" stroke="none" /><text fill="#e1ed5e" style="font-size:6.75px; font-family:Arial;" text-anchor="middle"><textPath startOffset="22.145653131862474" xlink:href="#id17">May</textPath></text><path d="M 118.36410011445183 110.18625677009912 l 9.130251094141531 5.06439637340107 a31.440766047996217,31.440766047996217 0 0,0 -0.26584909658537076,0.46972988049791303 l -9.041968632534783 -5.220383023998106" fill="#ff7f0b" stroke="none" /><path d="M 118.18653347947321 110.5 l 9.040678654985701 5.219638255112895 a31.439276510225795,31.439276510225795 0 0,0 -0.27386048610571534,0.46507497702846173 l -8.949744458750219 -5.374064400434906" fill="#ff7f0b" stroke="none" /><path d="M 117.423217284605 111.72311816256416 l 6.231328492193071 4.192715904902303 a28.510547346021987,28.510547346021987 0 0,0 -0.2767020075300958,0.4037164983260896 l -6.158436747847655 -4.299067138298437" fill="#ff5608" stroke="none" /><path d="M 117.01052211995028 112.31430620078461 l 6.4076921495982955 4.638674969181238 a28.910488237380306,28.910488237380306 0 0,0 -0.29447119270576866,0.39950672773543333 l -6.327118937308699 -4.747988006185549" fill="#ff5c08" stroke="none" /><path d="M 116.35404254752997 113.17365903436017 l 5.824467410006108 4.691778653086123 a28.479118099066085,28.479118099066085 0 0,0 -0.3099520488962059,0.37809110215518 l -5.743068541871274 -4.791072036939796" fill="#ff5607" stroke="none" /><path d="M 115.89218393027572 113.72728997021213 l 5.652537391065203 4.882527170277481 a28.469287149781298,28.469287149781298 0 0,0 -0.3226369218397126,0.36710159141073806 l -5.567889405266905 -4.978841039499512" fill="#ff5607" stroke="none" /><path d="M 115.16444852881244 114.52719865689866 l 7.163951521677469 6.862903502627414 a30.920768412341886,30.920768412341886 0 0,0 -0.37047968814782956,0.38014479751882724 l -7.045085032378832 -6.984870992213978" fill="#ff770b" stroke="none" /><path d="M 114.65682725009322 115.03919595460226 l 21.84374938521872 22.413611198524407 a52.297273909445565,52.297273909445565 0 0,0 -0.6483056815650874,0.621062177671533 l -21.45577121778832 -22.785285506501523" fill="#82ff25" stroke="none" /><path d="M 114.39649973595853 115.28858382429668 l 5.12187942137043 5.439258452245463 a28.471223548882847,28.471223548882847 0 0,0 -0.3586970535856712,0.3320046377628239 l -5.027752596470791 -5.5263808361406666" fill="#ff5607" stroke="none" /><line stroke="#e1ed5e" stroke-width="0.3" x1="143.1302829299769" x2="145.66735839644613" y1="173.24464959558577" y2="177.55315839532614" /><path d="M 143.63769802327073 174.10635135553383 a86.0,86.0 0 0,1 -40.68552437913181,11.842963189579606" fill="none" id="id18" stroke="none" /><text fill="#e1ed5e" style="font-size:6.75px; font-family:Arial;" text-anchor="middle"><textPath startOffset="21.407464694133747" xlink:href="#id18">June</textPath></text><path d="M 108.07796709384702 119.3841803445677 l 2.369530647826295 5.6860109574389215 a27.15998344958033,27.15998344958033 0 0,0 -0.4319026336728006,0.17565104112135946 l -2.2715735529630536 -5.725849255139573" fill="#ff4306" stroke="none" /><path d="M 107.74402155503746 119.51999308798841 l 1.1013190602565401 2.7760434667041087 a23.986523229696182,23.986523229696182 0 0,0 -0.3840444969603404,0.14855666163970352 l -1.0535023008026705 -2.794540016481853" fill="#ff1602" stroke="none" /><path d="M 106.38641147887787 120.00534299687104 l 2.271203915791317 7.114513917794917 a28.468244473342004,28.468244473342004 0 0,0 -0.4668241261950443,0.1446233075986078 l -2.148739156724648 -7.152453813200169" fill="#ff5607" stroke="none" /><path d="M 106.0420521117495 120.11202640906438 l 2.145439206286501 7.141469351442292 a28.456775032509753,28.456775032509753 0 0,0 -0.46904894082915843,0.136533310682858 l -2.0225302530757356 -7.177246356427668" fill="#ff5607" stroke="none" /><path d="M 104.9986988182912 120.39639698878246 l 1.776378835525766 7.248231839709115 a28.462733183591443,28.462733183591443 0 0,0 -0.47555513765729535,0.11222971761761555 l -1.6516915441285913 -7.277657700972956" fill="#ff5607" stroke="none" /><path d="M 104.29559338865022 120.5559693870025 l 1.5258167091866097 7.301585305324353 a28.45930724671947,28.45930724671947 0 0,0 -0.47906976814617086,0.09582737076059678 l -1.4002504555094801 -7.326702072747811" fill="#ff5607" stroke="none" /><path d="M 103.94208987418118 120.62667999033965 l 1.400194532730795 7.326409461139014 a28.459009339165387,28.459009339165387 0 0,0 -0.4806391490546688,0.08758846389022075 l -1.274220650125069 -7.349366098960598" fill="#ff5607" stroke="none" /><path d="M 102.51750503828377 120.84855314841334 l 1.6460000904522112 13.631241982133428 a34.73026126019624,34.73026126019624 0 0,0 -0.5925050351215664,0.06639142503260904 l -1.4117591537298455 -13.657489167673008" fill="#ffaa0f" stroke="none" /><path d="M 100.72087961077811 120.9876233191556 l 0.5115117646772189 14.892106920286349 a35.90088899397092,35.90088899397092 0 0,0 -0.6161048764976804,0.015868676144128242 l -0.25579357410879466 -14.898693313780523" fill="#ffba11" stroke="none" /><line stroke="#e1ed5e" stroke-width="0.3" x1="101.45913802915013" x2="101.54496967792366" y1="184.9874750549273" y2="189.98673829345242" /><path d="M 101.47630435890484 185.9873277026323 a86.0,86.0 0 0,1 -42.54439059252881,-10.42667462771756" fill="none" id="id19" stroke="none" /><text fill="#e1ed5e" style="font-size:6.75px; font-family:Arial;" text-anchor="middle"><textPath startOffset="22.145653131862474" xlink:href="#id19">July</textPath></text><path d="M 99.63950707515114 120.99690560180557 l -0.25604927307428255 14.913586496616654 a35.915784371675144,35.915784371675144 0 0,0 -0.6163605001075131,-0.015875260101554177 l 0.5120230872525395 -14.906993519165052" fill="#ffba11" stroke="none" /><path d="M 98.55909050195518 120.95050786540614 l -1.02314624445162 14.876321844592104 a35.91146471214091,35.91146471214091 0 0,0 -0.6146520885989736,-0.04757795898905205 l 1.2783673278258294 -14.856566118607997" fill="#ffba11" stroke="none" /><path d="M 97.48249496171623 120.84855314841334 l -0.9843358392033658 8.15171280590947 a29.21092800567443,29.21092800567443 0 0,0 -0.49731212405618697,-0.06438701099465663 l 1.1241257851503468 -8.133614198714417" fill="#ff6008" stroke="none" /><path d="M 96.76829788921471 120.74984581791261 l -1.8751131060394253 12.039571256154778 a33.18471686960633,33.18471686960633 0 0,0 -0.5621214450158805,-0.0924968698650646 l 2.0815120541083694 -12.005608387794044" fill="#ff960d" stroke="none" /><path d="M 96.05791012581884 120.62667999033965 l -7.1875869761279105 37.608492244261285 a59.2891642038066,59.2891642038066 0 0,0 -0.9980441864751308,-0.1996367891526591 l 7.832127648134 -37.47956605844576" fill="#39ff2e" stroke="none" /><path d="M 94.6519064749342 120.30758222061772 l -2.526343534098589 9.59293789380801 a30.920023643456673,30.920023643456673 0 0,0 -0.5121218717492002,-0.1395810934500507 l 2.6906468067824845 -9.548156306213816" fill="#ff770b" stroke="none" /><path d="M 94.30408787586889 120.21278271476187 l -2.0576793975230294 7.3019782700948355 a28.58636481853647,28.58636481853647 0 0,0 -0.47118495068300403,-0.13715507202077448 l 2.1827243605876405 -7.265579503771544" fill="#ff5708" stroke="none" /><path d="M 93.95794788825049 120.11202640906438 l -2.1508819816844853 7.159586580575413 a28.475692162194115,28.475692162194115 0 0,0 -0.4669462538816832,-0.14466114306811087 l 2.273468868437802 -7.121608849700653" fill="#ff5607" stroke="none" /><path d="M 93.27111125876986 119.89276391827306 l -2.3878924171591294 7.059379630654587 a28.452306419198486,28.452306419198486 0 0,0 -0.46132600513064087,-0.16047313187279164 l 2.508724194334792 -7.017348066213205" fill="#ff5507" stroke="none" /><path d="M 92.93061703081489 119.77432235084164 l -2.6445626513405087 7.39731240654963 a28.855822201205818,28.855822201205818 0 0,0 -0.4650058700394272,-0.1707565964809137 l 2.771157673034055 -7.350824961059997" fill="#ff5b08" stroke="none" /><path d="M 92.59220618246901 119.65005319985036 l -2.6301302328667537 6.976732920948408 a28.45603026362454,28.45603026362454 0 0,0 -0.4556050797121033,-0.17623783234449097 l 2.749507575072385 -6.930555200465877" fill="#ff5507" stroke="none" /><path d="M 92.25597844496254 119.51999308798841 l -2.7534624365356506 6.940524034860026 a28.46675493557158,28.46675493557158 0 0,0 -0.4526831340532918,-0.1841022897183322 l 2.872200031779383 -6.892234488562402" fill="#ff5607" stroke="none" /><path d="M 91.92203290615298 119.3841803445677 l -0.9647722657018291 2.315102224673113 a23.508083697836625,23.508083697836625 0 0,0 -0.37116457162668637,-0.15842808481773257 l 1.0043719124989465 -2.2981994901959766" fill="#ff0f01" stroke="none" /><path d="M 91.59046798132341 119.24265499422711 l -6.038877088810624 13.818132580320734 a36.08008038775269,36.08008038775269 0 0,0 -0.5654033752143176,-0.2528977380927668 l 6.275193866880577 -13.712431091318113" fill="#ffbc11" stroke="none" /><path d="M 90.6110303473126 118.78422872680471 l -3.368840895029043 6.739938487108236 a28.53497576545691,28.53497576545691 0 0,0 -0.43627637844527845,-0.22276582742642775 l 3.4840444951879035 -6.6811147080089714" fill="#ff5708" stroke="none" /><path d="M 89.97174638481275 118.45085714620012 l -3.5667103985790347 6.56234540642094 a28.468989242227213,28.468989242227213 0 0,0 -0.42738163409207247,-0.23706138806444454 l 3.67883622082721 -6.500151102923348" fill="#ff5607" stroke="none" /><line stroke="#e1ed5e" stroke-width="0.3" x1="58.13341422392154" x2="55.67067388415222" y1="173.97424548756322" y2="178.32567169271397" /><path d="M 57.64086615596768 174.84453072859336 a86.0,86.0 0 0,1 -31.369924170532247,-30.572349798747897" fill="none" id="id20" stroke="none" /><text fill="#e1ed5e" style="font-size:6.75px; font-family:Arial;" text-anchor="middle"><textPath startOffset="22.145653131862474" xlink:href="#id20">August</textPath></text><path d="M 89.65649057296885 118.27599006163327 l -3.217798652040376 5.68554189464362 a27.532963707294005,27.532963707294005 0 0,0 -0.4093332691211162,-0.23632867311534778 l 3.314924389021892 -5.6294663242521015" fill="#ff4906" stroke="none" /><path d="M 88.72937992617639 117.7192867562869 l -4.00578009688488 6.297751654692214 a28.463775860030736,28.463775860030736 0 0,0 -0.41003338847025667,-0.2657786885235642 l 4.113299117612146 -6.228059124464756" fill="#ff5607" stroke="none" /><path d="M 87.83215693770417 117.11559508785305 l -4.326050116948925 6.085131255587274 a28.46615912046341,28.46615912046341 0 0,0 -0.39584090594723725,-0.2865582895255973 l 4.429872033270115 -6.00997219468861" fill="#ff5607" stroke="none" /><path d="M 87.54013794807813 116.9041958592261 l -4.4236855548899205 6.001579048618302 a28.455732356070456,28.455732356070456 0 0,0 -0.39072025586800535,-0.2932037641486367 l 4.526058799668693 -5.92475625720565" fill="#ff5507" stroke="none" /><path d="M 86.96720088162412 116.46651593811092 l -22.802514431480375 28.810232084799228 a57.74213027544627,57.74213027544627 0 0,0 -0.771955171089412,-0.6218324419902541 l 23.293720372925048 -28.41455134901556" fill="#49ff2c" stroke="none" /><path d="M 85.86807049272751 115.53346607816431 l -1.2117807954610516 1.33195936696249 a22.8007022106632,22.8007022106632 0 0,0 -0.28725652371796645,-0.26588034986246156 l 1.2344670904929853 -1.3109612709676512" fill="#ff0400" stroke="none" /><path d="M 84.83555147118756 114.52719865689866 l -10.769537140315522 10.316972963636282 a35.91384797257359,35.91384797257359 0 0,0 -0.4226618102145077,-0.44885219555510464 l 10.945054784266283 -10.130579308136687" fill="#ffba11" stroke="none" /><path d="M 83.8745106332314 113.45245675266167 l -5.726140495343681 4.776950058459642 a28.45707294006384,28.45707294006384 0 0,0 -0.30971212074332877,-0.3777984288204425 l 5.807299435325639 -4.677949347940704" fill="#ff5607" stroke="none" /><path d="M 83.64595745247003 113.17365903436017 l -5.808111434128092 4.678603436697581 a28.458115616503132,28.458115616503132 0 0,0 -0.3031921801950172,-0.38307341516931476 l 5.887570044964671 -4.578210077613585" fill="#ff5607" stroke="none" /><path d="M 83.4222238831116 112.89097897827486 l -3.5579407713309577 2.7666762637993187 a25.507043385742996,25.507043385742996 0 0,0 -0.26581742897657434,-0.34796354738443586 l 3.604910177661827 -2.7051918031740128" fill="#ff2c04" stroke="none" /><path d="M 82.78059297857968 112.02048342749411 l -14.663386660576702 10.236182705080267 a38.882794656578795,38.882794656578795 0 0,0 -0.37736726725299996,-0.5505901206795408 l 14.836943664645027 -9.982957849330676" fill="#ffe015" stroke="none" /><path d="M 82.37810715431573 111.42229804090323 l -12.517397746998828 8.113625988695494 a35.91697600189148,35.91697600189148 0 0,0 -0.33091902031730847,-0.5202596641271283 l 12.654834458942025 -7.897552649889694" fill="#ffba11" stroke="none" /><line stroke="#e1ed5e" stroke-width="0.3" x1="26.387840678322732" x2="22.057713659400548" y1="142.50000000000003" y2="145.00000000000006" /><path d="M 25.521815274538298 143.00000000000003 a86.0,86.0 0 0,1 -11.493303480769221,-40.785679425670985" fill="none" id="id21" stroke="none" /><text fill="#e1ed5e" style="font-size:6.75px; font-family:Arial;" text-anchor="middle"><textPath startOffset="21.40746469413373" xlink:href="#id21">September</textPath></text><path d="M 81.81346652052679 110.50000000000001 l -27.102299308456136 15.647519801394978 a52.29503960278993,52.29503960278993 0 0,0 -0.44218353373053165,-0.781295934893984 l 27.366916207208046 -15.179967096401873" fill="#82ff25" stroke="none" /><path d="M 81.4637452351635 109.86951160357371 l -6.5793076582611425 3.503110747046454 a28.45379595696891,28.45379595696891 0 0,0 -0.22585800919333,-0.4331125131230009 l 6.638473736429422 -3.38965199081895" fill="#ff5507" stroke="none" /><path d="M 81.1358732173502 109.22738970284198 l -13.413444503465865 6.561187862920908 a35.93216928714978,35.93216928714978 0 0,0 -0.26627575464649095,-0.5564139155172062 l 13.524099516072269 -6.329961445338598" fill="#ffba11" stroke="none" /><path d="M 80.9802524753101 108.90220220490708 l -6.777226882494304 3.1720843832536616 a28.48284194349214,28.48284194349214 0 0,0 -0.2034699417429442,-0.4446185431863956 l 6.830681289092304 -3.055276857852577" fill="#ff5607" stroke="none" /><path d="M 80.68587082218212 108.24405325689762 l -34.2592329174333 14.623229352538159 a58.24961579382906,58.24961579382906 0 0,0 -0.3846531560134971,-0.9230275463677143 l 34.50521191798329 -14.032969296729163" fill="#44ff2d" stroke="none" /><path d="M 80.28708602549918 107.23885506374661 l -15.066082142705742 5.532474049783878 a37.049769476297435,37.049769476297435 0 0,0 -0.21411208207402663,-0.5989096005403863 l 15.15883439482371 -5.27302949286257" fill="#ffc812" stroke="none" /><path d="M 79.94057633289273 106.21446072829308 l -37.45835926226737 11.604695451114292 a60.21476297434685,60.21476297434685 0 0,0 -0.29741413360992575,-0.9899949220828366 l 37.65204971588093 -10.959962925440731" fill="#30ff2f" stroke="none" /><path d="M 79.64726062577567 105.17358676015961 l -14.451287071644531 3.673460662293535 a35.91086889703274,35.91086889703274 0 0,0 -0.14674288023826101,-0.5987610275027702 l 14.512217478399085 -3.4248438101826655" fill="#ffba11" stroke="none" /><path d="M 79.56144815229197 104.8234425847677 l -14.519031134411687 3.426451814449016 a35.91786972455373,35.91786972455373 0 0,0 -0.13646932761933905,-0.6013090377716198 l 14.575711323588692 -3.1767084427383696" fill="#ffba11" stroke="none" /><path d="M 79.48165901384964 104.47187691870673 l -14.559556677535046 3.1731876128201058 a35.901335855302044,35.901335855302044 0 0,0 -0.12606889002062913,-0.6032852762006365 l 14.611883278380041 -2.9227858853340605" fill="#ffba11" stroke="none" /><path d="M 79.2786578344484 103.40968896794605 l -17.70723077482205 2.913718085605399 a38.945355242936515,38.945355242936515 0 0,0 -0.10288715223920084,-0.6606093236386644 l 17.754639419199517 -2.609320580035285" fill="#ffe115" stroke="none" /><path d="M 79.22317932658666 103.0534771498775 l -15.499866824543718 2.277946655979541 a36.6663624541908,36.6663624541908 0 0,0 -0.08617552595659003,-0.6235231775316638 l 15.53668686705552 -2.0115351702477917" fill="#ffc412" stroke="none" /><path d="M 79.0935383218832 101.97986365728391 l -3.651500501444247 0.3458008939375274 a24.66783780588722,24.66783780588722 0 0,0 -0.0363044524980802,-0.4219127688869343 l 3.656898576640068 -0.2830670776749311" fill="#ff2003" stroke="none" /><path d="M 79.03789590574601 101.26102812881392 l -8.493629481387346 0.5109556580576552 a29.50898451353588,29.50898451353588 0 0,0 -0.026078088062944666,-0.5059079416039117 l 8.501149158906864 -0.36507592307701264" fill="#ff6409" stroke="none" /><path d="M 79.01933749520258 100.90099992219065 l -8.070771506958355 0.34659365490128013 a29.078210190329827,29.078210190329827 0 0,0 -0.01713580727032247,-0.4988903318696956 l 8.075532001225525 -0.20799705846746466" fill="#ff5e08" stroke="none" /><path d="M 79.00696218219943 100.54070618675478 l -22.813046591185394 0.587583156741585 a43.820612365527836,43.820612365527836 0 0,0 -0.012913659857733822,-0.7521559462513899 l 22.819771682641793 -0.19588029452114278" fill="#e2ff1b" stroke="none" /><line stroke="#e1ed5e" stroke-width="0.3" x1="15.003131293944662" x2="10.003315487706104" y1="100.72959589197737" y2="100.7725132973878" /><path d="M 14.003168132696942 100.73817937305945 a86.0,86.0 0 0,1 10.791469493833604,-42.45332614584628" fill="none" id="id22" stroke="none" /><text fill="#e1ed5e" style="font-size:6.75px; font-family:Arial;" text-anchor="middle"><textPath startOffset="22.145653131862435" xlink:href="#id22">October</textPath></text><path d="M 79.00077361379809 99.81974689727619 l -14.901531650130535 -0.12791172712143709 a35.902080624187256,35.902080624187256 0 0,0 0.01058011817585666,-0.6162388421007631 l 14.897140100356012 0.3836974851912526" fill="#ffba11" stroke="none" /><path d="M 79.13060592940154 97.66154086499901 l -9.380347319019416 -1.051087482628286 a30.439051897387397,30.439051897387397 0 0,0 0.06264344377327466,-0.518777578215744 l 9.360921788986474 1.2119587377674663" fill="#ff710a" stroke="none" /><path d="M 79.17382384314186 97.30363454192245 l -14.784640080334407 -1.9141676572055242 a35.90803877526894,35.90803877526894 0 0,0 0.08439326730036857,-0.6106276417263755 l 14.749602296478832 2.1676836071319667" fill="#ffba11" stroke="none" /><path d="M 79.22317932658666 96.9465228501225 l -8.156824074614644 -1.198772243304663 a29.244442605508922,29.244442605508922 0 0,0 0.0772589542381767,-0.4960579080433189 l 8.1350436282382 1.338618333279432" fill="#ff6008" stroke="none" /><path d="M 79.2786578344484 96.59031103205396 l -10.30560360767454 -1.6957831519007383 a31.444191984868187,31.444191984868187 0 0,0 0.09221410962844429,-0.5318664793908399 l 10.27497468055386 1.8724426642121708" fill="#ff7f0b" stroke="none" /><path d="M 79.48165901384962 95.52812308129327 l -14.57003536686714 -3.1754713943887034 a35.91206052724908,35.91206052724908 0 0,0 0.13644725567420515,-0.6012117847088083 l 14.513377249635273 3.42511751303652" fill="#ffba11" stroke="none" /><path d="M 79.64726062577567 94.8264132398404 l -14.44378020950391 -3.6715524472927394 a35.903123300626554,35.903123300626554 0 0,0 0.1569659233791656,-0.5960251779288646 l 14.378624805320019 3.9189581295943885" fill="#ffba11" stroke="none" /><path d="M 79.73907114497095 94.47779374421319 l -14.384373266042568 -3.920524898126589 a35.90908145170824,35.90908145170824 0 0,0 0.16720210155069942,-0.5933412725554307 l 14.314952672417286 4.166874094585033" fill="#ffba11" stroke="none" /><path d="M 81.46374523516351 90.13048839642627 l -13.159009751545051 -7.006431508525899 a35.90803877526894,35.90803877526894 0 0,0 0.29436837435023133,-0.5416046534034465 l 13.03679602757947 7.231290995403965" fill="#ffba11" stroke="none" /><line stroke="#e1ed5e" stroke-width="0.3" x1="26.387840678322718" x2="22.05771365940052" y1="57.49999999999999" y2="54.99999999999999" /><path d="M 25.521815274538284 56.99999999999999 a86.0,86.0 0 0,1 29.574782752854787,-30.34633250058573" fill="none" id="id23" stroke="none" /><text fill="#e1ed5e" style="font-size:6.75px; font-family:Arial;" text-anchor="middle"><textPath startOffset="21.40746469413373" xlink:href="#id23">November</textPath></text><path d="M 83.42222388311158 87.10902102172516 l -1.4310311053968456 -1.112778443070847 a22.812767466603617,22.812767466603617 0 0,0 0.24304675677368032,-0.3070816374724194 l 1.4117179179816037 1.1371800244579493" fill="#ff0500" stroke="none" /><path d="M 83.64595745247003 86.82634096563983 l -11.616106868427266 -9.357113432144173 a35.91608227922922,35.91608227922922 0 0,0 0.3908921354954723,-0.47682484713230006 l 11.453767913693163 9.555140560974966" fill="#ffba11" stroke="none" /><path d="M 84.10781606972428 86.27271002978789 l -12.108006756136932 -10.458607856037785 a36.99957205343421,36.99957205343421 0 0,0 0.41930898985639053,-0.4770966589669583 l 11.92668670232195 10.664916792816044" fill="#ffc812" stroke="none" /><path d="M 85.08716467003674 85.21462403516908 l -10.591586105387522 -10.50106027238079 a35.91489064901289,35.91489064901289 0 0,0 0.43783343779979295,-0.4340912941509888 l 10.409760747457751 10.681331576760453" fill="#ffba11" stroke="none" /><path d="M 85.60350026404147 84.71141617570332 l -1.9853179893593043 -2.1083389056293385 a23.895959333254524,23.895959333254524 0 0,0 0.3010552107367439,-0.2786522085646049 l 1.948833007308607 2.1421088603263088" fill="#ff1502" stroke="none" /><path d="M 85.86807049272753 84.46653392183569 l -5.016225192096728 -5.513710199429556 a28.454093864522996,28.454093864522996 0 0,0 0.3641242929260608,-0.32560218803629387 l 4.920835872347276 5.599007917349251" fill="#ff5507" stroke="none" /><path d="M 86.68645165197937 83.75963576809568 l -10.312892691741133 -12.580052231028304 a37.26694408322497,37.26694408322497 0 0,0 0.4982221829799786,-0.401332523310825 l 10.095419738405909 12.755233048132528" fill="#ffcb12" stroke="none" /><path d="M 86.96720088162412 83.53348406188908 l -9.263348158801929 -11.703937788936859 a35.9262111360681,35.9262111360681 0 0,0 0.4868686864885481,-0.3785920354124191 l 9.061069527678136 11.861230875970081" fill="#ffba11" stroke="none" /><path d="M 87.54013794807813 83.09580414077388 l -8.846398948891528 -12.001839174282702 a35.90982622059345,35.90982622059345 0 0,0 0.4993500557420998,-0.36149093157905826 l 8.63906788277546 12.15193087723484" fill="#ffba11" stroke="none" /><path d="M 88.72937992617638 82.28071324371311 l -5.608475861679891 -8.817455597640832 a31.450001182172834,31.450001182172834 0 0,0 0.4580256433864209,-0.2858418769032461 l 5.456286089503772 8.912433271385613" fill="#ff7f0b" stroke="none" /><path d="M 89.03521579738668 82.08984904055464 l -7.778450837499718 -12.705514869781068 a35.897463057098946,35.897463057098946 0 0,0 0.5283204739828052,-0.31724126474649883 l 7.559197606959478 12.83717013506349" fill="#ffba11" stroke="none" /><line stroke="#e1ed5e" stroke-width="0.3" x1="56.869717070023135" x2="54.33264160355391" y1="26.7553504044142" y2="22.446841604673864" /><path d="M 56.362301976729285 25.89364864446614 a86.0,86.0 0 0,1 42.16139366436587,-11.88097634709845" fill="none" id="id24" stroke="none" /><text fill="#e1ed5e" style="font-size:6.75px; font-family:Arial;" text-anchor="middle"><textPath startOffset="22.145653131862474" xlink:href="#id24">December</textPath></text><path d="M 89.34428304082924 81.90426304109057 l -7.45610458462368 -12.662095644849856 a35.69429010521338,35.69429010521338 0 0,0 0.5306679154868392,-0.30638126385662257 l 7.23764420127644 12.788223805982653" fill="#ffb711" stroke="none" /><path d="M 89.97174638481275 81.54914285379989 l -6.059844025809064 -11.149430473031511 a33.68981912755645,33.68981912755645 0 0,0 0.5104989162150608,-0.2718119189187104 l 5.867556293807442 11.251812859672798" fill="#ff9d0e" stroke="none" /><path d="M 90.61103034731259 81.2157712731953 l -6.659630915725785 -13.32372294134392 a35.89537770422036,35.89537770422036 0 0,0 0.5535404842085323,-0.2707643890937913 l 6.4299301822552 13.436081080534926" fill="#ffba11" stroke="none" /><path d="M 90.93487009805054 81.0573650232925 l -4.508731343099169 -9.421514414481894 a31.444787799976357,31.444787799976357 0 0,0 0.4889084812670161,-0.2288338556693812 l 4.34633414796063 9.49752450172182" fill="#ff7f0b" stroke="none" /><path d="M 91.26138138417902 80.90454125486306 l -13.02598594139231 -28.46413009812104 a52.30308310675021,52.30308310675021 0 0,0 0.8196306495123903,-0.36661036424591664 l 12.535441889024302 28.683544213276804" fill="#82ff25" stroke="none" /><path d="M 91.92203290615298 80.6158196554323 l -5.739014115525991 -13.771544662531666 a35.91950821610119,35.91950821610119 0 0,0 0.5711980726190619,-0.23230128348339948 l 5.5017615817164875 13.868033202594356" fill="#ffba11" stroke="none" /><path d="M 92.592206182469 80.34994680014964 l -2.6335981207397237 -6.985931905541317 a28.465861212909328,28.465861212909328 0 0,0 0.45872172580745363,-0.16844897167446649 l 2.513287243278143 7.030111726224505" fill="#ff5607" stroke="none" /><path d="M 92.93061703081487 80.22567764915836 l -5.020105988603632 -14.042129912432989 a35.91250738858021,35.91250738858021 0 0,0 0.5822857846286998,-0.20254922216646112 l 4.778314431929927 14.126237567168037" fill="#ffba11" stroke="none" /><path d="M 93.27111125876988 80.10723608172694 l -4.781034942568894 -14.134280273469077 a35.92099775387162,35.92099775387162 0 0,0 0.5858154748431846,-0.19256918235479376 l 4.537696730077948 14.2142703772259" fill="#ffba11" stroke="none" /><path d="M 93.61358852112211 79.99465700312896 l -2.268893664091904 -7.107277087251065 a28.46064783071285,28.46064783071285 0 0,0 0.46669955595467083,-0.14458471541971135 l 2.146553475265617 7.145178390477418" fill="#ff5607" stroke="none" /></svg>