<?xml version="1.0" encoding="utf-8" ?>
<svg baseProfile="full" height="200mm" version="1.1" viewBox="0,0,200,200" width="200mm" xmlns="http://www.w3.org/2000/svg" xmlns:ev="http://www.w3.org/2001/xml-events" xmlns:xlink="http://www.w3.org/1999/xlink"><defs /><rect fill="#1a1a1a" height="200" width="200" x="0" y="0" /><rect fill="#1a1a1a" height="200" width="180" x="10" y="0" /><text alignment-baseline="middle" fill="#e1ed5e" style="dominant-baseline: central; font-size:9.0px; font-family:Arial;" text-anchor="middle" x="100.0" y="100.0">2026</text><line stroke="#e1ed5e" stroke-width="0.3" x1="100.0" x2="100.0" y1="15.0" y2="10.0" /><path d="M 100.0 14.0 a86.0,86.0 0 0,1 42.46469731375804,11.215312516191453" fill="none" id="id37" stroke="none" /><text fill="#e1ed5e" style="font-size:6.75px; font-family:Arial;" text-anchor="middle"><textPath startOffset="22.20632615414155" xlink:href="#id37">January</textPath></text><path d="M 100.0 79.0 l 0.0 -47.75756724425433 a68.75756724425433,68.75756724425433 0 0,0 1.1835484933841025,0.010187175542151735 l -0.8220680141115742 47.75049144532074" fill="red" stroke="none" /><path d="M 100.36148047927253 79.00311137660856 l 0.7132445163141938 -41.429389770735426 a62.435528891466674,62.435528891466674 0 0,0 1.0744065313760647,0.02774875089741754 l -1.4262776828851262 41.410974227695654" fill="red" stroke="none" /><path d="M 100.72285384407766 79.0124445844662 l 1.3780105625780488 -40.009572173196524 a61.03329587471906,61.03329587471906 0 0,0 1.0496540159356753,0.04520030993206506 l -2.0665054109030554 39.97992413674026" fill="red" stroke="none" /><path d="M 101.08401301168833 79.027996857942 l 2.6532304989012596 -51.33107975604238 a72.39960487203655,72.39960487203655 0 0,0 1.2440250041355867,0.07504298553438303 l -3.536417551876458 51.27780350112769" fill="red" stroke="none" /><path d="M 101.44485096284872 79.0497635885617 l 2.7516774386443243 -39.89912755704455 a60.99390089175668,60.99390089175668 0 0,0 1.0468000128785788,0.08125182788331776 l -3.438067640885244 39.84585046697276" fill="red" stroke="none" /><path d="M 101.80526077348638 79.07773832637324 l 3.4610865808212203 -40.11263091878522 a61.2616725875444,61.2616725875444 0 0,0 1.0498350779372196,0.09969449060803635 l -4.151046785848684 40.047110883662" fill="red" stroke="none" /><path d="M 102.16513564639614 79.11191278185805 l 4.1246752358889545 -39.79269207320395 a61.00589066918001,61.00589066918001 0 0,0 1.043587962400706,0.11725926712086768 l -4.809029901799386 39.715796852612485" fill="red" stroke="none" /><path d="M 102.88285421437855 79.19881850522331 l 5.493919003032294 -39.64127139336179 a61.0201642137316,61.0201642137316 0 0,0 1.039176359150842,0.15314758245081458 l -6.175464342611792 39.54082932675001" fill="red" stroke="none" /><path d="M 103.2404852339499 79.25152402106235 l 6.612358952427212 -42.33821819373557 a63.851464510983824,63.851464510983824 0 0,0 1.084473930301335,0.17894749063092044 l -7.340162088867422 42.21812444016503" fill="red" stroke="none" /><path d="M 103.59715602781102 79.31037775812273 l 9.798618594715869 -56.358332985703825 a78.20379902849271,78.20379902849271 0 0,0 1.3242691658485823,0.24200172554334193 l -10.767282881667352 56.18131577880975" fill="red" stroke="none" /><path d="M 103.95276090670814 79.375362276772 l 5.385145971737774 -28.098508201015616 a49.60989269919524,49.60989269919524 0 0,0 0.8373053521584006,0.1679555766831889 l -5.8680177333633 28.001648668255218" fill="red" stroke="none" /><path d="M 104.307194497241 79.44645832069477 l 8.396499850680808 -40.06733611676782 a61.937667657507426,61.937667657507426 0 0,0 1.0416065705814028,0.22765485250397782 l -9.08494914541574 39.91686776616797" fill="red" stroke="none" /><path d="M 104.66035177308747 79.52364482259891 l 9.041742991353276 -39.727031333317235 a61.74297650982382,61.74297650982382 0 0,0 1.034272220599302,0.24477881862062645 l -9.7242388989151 39.56550660255574" fill="red" stroke="none" /><path d="M 105.01212808612495 79.60689891045804 l 9.556901482569089 -38.884652324897935 a61.041860001450004,61.041860001450004 0 0,0 1.0182105226971925,0.25956453363851967 l -10.224820893951307 38.71438479509055" fill="red" stroke="none" /><path d="M 105.36241919743992 79.69619591428918 l 10.22190505664392 -38.70334451881688 a61.03044116580874,61.03044116580874 0 0,0 1.0134020788631255,0.2770010696386 l -10.886605024730756 38.52165690835198" fill="red" stroke="none" /><path d="M 105.71112130821622 79.79150937346287 l 11.833144813796386 -41.870936221935956 a64.510902269267,64.510902269267 0 0,0 1.0659959119487434,0.3111934382304262 l -12.552130943468557 41.661044454786825" fill="red" stroke="none" /><path d="M 106.0581310904928 79.89281104454417 l 18.174393271478365 -60.321566866367476 a84.0,84.0 0 0,0 1.380858509157127,0.4290394604699177 l -19.21003715334621 59.99978727101504" fill="red" stroke="none" /><path d="M 106.40334571778207 80.00007090966166 l 12.199341545381554 -38.102888179050126 a61.008174436308266,61.008174436308266 0 0,0 0.997388298457888,0.3288232406756478 l -12.85341266608186 37.88725121411524" fill="red" stroke="none" /><path d="M 106.74666289553966 80.11325718540242 l 12.882027164696305 -37.97159649466725 a61.09724135431015,61.09724135431015 0 0,0 0.9930279988721724,0.3464479701906179 l -13.533737167631752 37.74422767130443" fill="red" stroke="none" /><path d="M 107.08798089147638 80.2323363322302 l 13.505023984690318 -37.664149500679 a61.01217102878272,61.01217102878272 0 0,0 0.9855431788547364,0.36298387011322575 l -14.151349489317631 37.42610236275945" fill="red" stroke="none" /><path d="M 107.76421540070413 80.48803036053334 l 14.78524908729389 -37.15627612251296 a60.98990429928224,60.98990429928224 0 0,0 0.9721097505347772,0.3965479754653478 l -15.422642707417054 36.896267260864036" fill="red" stroke="none" /><path d="M 108.09893153111575 80.62456947434976 l 15.442019546431542 -36.94262332606715 a61.040147176103815,61.040147176103815 0 0,0 0.965934873023282,0.41356290254460815 l -16.07563817724514 36.67134089555975" fill="red" stroke="none" /><path d="M 108.43124777332544 80.76684994638697 l 22.850878981534812 -52.12684956303529 a77.91547342855071,77.91547342855071 0 0,0 1.2237103040410702,0.5490431431240441 l -23.744771404042663 51.72578608939472" fill="red" stroke="none" /><path d="M 108.76106565485865 80.91482961587045 l 16.716402912473182 -36.4151360533843 a61.068694265206986,61.068694265206986 0 0,0 0.9515717795742388,0.4467757096946395 l -17.340752903347017 36.12199536104966" fill="red" stroke="none" /><path d="M 109.08828744355905 81.06846463323043 l 17.33976454467484 -36.11993654113738 a61.06641049807873,61.06641049807873 0 0,0 0.9437049917696361,0.4630719409955792 l -17.958940803454908 35.81610944000696" fill="red" stroke="none" /><path d="M 109.41281617654863 81.2277094730956 l 17.92899899893478 -35.75639550925455 a60.999610309577314,60.999610309577314 0 0,0 0.9345707084894916,0.47872341581157113 l -18.54183019501303 35.44247956813048" fill="red" stroke="none" /><path d="M 110.05341064243156 81.56283822128135 l 19.16666011235485 -35.15014215750075 a61.03615058362937,61.03615058362937 0 0,0 0.9180880792923983,0.5109150221333467 l -19.768872280719286 34.81501173780723" fill="red" stroke="none" /><path d="M 110.36928655335952 81.73862282372117 l 19.75054766970369 -34.78274021829213 a60.999039367795255,60.999039367795255 0 0,0 0.9086047062248777,0.5263224922212001 l -20.346349108393895 34.43761356868088" fill="red" stroke="none" /><line stroke="#e1ed5e" stroke-width="0.3" x1="143.23703022742887" x2="145.7803849466894" y1="26.81831364943548" y2="22.513508569990506" /><path d="M 143.74570117128098 25.957352633546492 a86.0,86.0 0 0,1 28.547481713284135,27.462654790039103" fill="none" id="id38" stroke="none" /><text fill="#e1ed5e" style="font-size:6.75px; font-family:Arial;" text-anchor="middle"><textPath startOffset="19.985693538727396" xlink:href="#id38">February</textPath></text><path d="M 110.68208982089419 81.91981866633111 l 20.345187422413225 -34.43564733421408 a60.996755600666994,60.996755600666994 0 0,0 0.8993766367437274,0.5418643604442223 l -20.934926125374588 34.08033636431124" fill="red" stroke="none" /><path d="M 110.99172775467656 82.1063720568725 l 21.74777048916565 -35.403580075033354 a62.54971724787935,62.54971724787935 0 0,0 0.9125731137752638,0.5714532001264518 l -22.353962755313177 35.023982533583954" fill="red" stroke="none" /><path d="M 111.2981086023043 82.29822771554956 l 21.542727758792687 -33.752947028167256 a61.041860001450004,61.041860001450004 0 0,0 0.8808426851380466,0.5729245846471082 l -22.120537469715014 33.377123519360616" fill="red" stroke="none" /><path d="M 112.19680574252982 82.90503203632743 l 23.271908586168962 -32.617764038566875 a61.068694265206986,61.068694265206986 0 0,0 0.8504678886675384,0.6179010898198914 l -23.82992179119029 32.21234371393031" fill="red" stroke="none" /><path d="M 112.48926042617603 83.11751280151076 l 28.24175099941109 -38.17607956282026 a68.4869408395563,68.4869408395563 0 0,0 0.941707980225903,0.7092749270522842 l -28.894705133395373 37.684288046262125" fill="red" stroke="none" /><path d="M 112.77801427241765 83.33499621200491 l 24.372883364115985 -31.786957263313955 a61.055562604219524,61.055562604219524 0 0,0 0.8285165556489464,0.6466703133958471 l -24.916432474924363 31.362708560694884" fill="red" stroke="none" /><path d="M 113.06298171725822 83.55741782278167 l 35.53726736185815 -44.73132180680833 a78.12957659682448,78.12957659682448 0 0,0 1.0458075453791729,0.8456369706568264 l -36.30197830580181 44.11297873888738" fill="red" stroke="none" /><path d="M 113.34407831869373 83.78471172551755 l 36.317578484362585 -44.131935566511956 a78.15412709345318,78.15412709345318 0 0,0 1.031420346642371,0.8637848782517538 l -37.071856367964074 43.500249530866384" fill="red" stroke="none" /><path d="M 113.6212207817346 84.01681056812373 l 37.07074537881166 -43.498945892201064 a78.15241426810701,78.15241426810701 0 0,0 1.0163766184451015,0.881391787974081 l -37.81401579590352 42.85438911080731" fill="red" stroke="none" /><path d="M 113.89432698308785 84.25364557470407 l 26.45492751612071 -29.981204953028485 a60.984194881461605,60.984194881461605 0 0,0 0.7811465882580018,0.7013211196799674 l -26.9670850919747 29.521384824579222" fill="red" stroke="none" /><path d="M 114.42810811169701 84.74124197986012 l 38.00754688497462 -40.19570385577992 a76.31969114768361,76.31969114768361 0 0,0 0.946788494585551,0.910809781651759 l -38.6938186231726 39.53551098736586" fill="red" stroke="none" /><path d="M 114.68862486808459 84.99185889309783 l 27.98764490946419 -28.59644982586345 a61.01331291234684,61.01331291234684 0 0,0 0.7442584038729569,0.7410623217621846 l -28.47573911350447 28.110451653451143" fill="red" stroke="none" /><line stroke="#e1ed5e" stroke-width="0.3" x1="172.23445277983987" x2="176.4835382374775" y1="55.19839476539836" y2="52.563006222186495" /><path d="M 173.08426987136738 54.67131705675599 a86.0,86.0 0 0,1 12.851231095245387,41.99856678651699" fill="none" id="id39" stroke="none" /><text fill="#e1ed5e" style="font-size:6.75px; font-family:Arial;" text-anchor="middle"><textPath startOffset="22.20632615414155" xlink:href="#id39">March</textPath></text><line stroke="#e1ed5e" stroke-width="0.3" x1="184.98032266829074" x2="189.97916517819016" y1="98.17113171792111" y2="98.06355123074" /><path d="M 185.9800911702706 98.14961562048488 a86.0,86.0 0 0,1 -9.607161424134198,41.387399972396054" fill="none" id="id40" stroke="none" /><text fill="#e1ed5e" style="font-size:6.75px; font-family:Arial;" text-anchor="middle"><textPath startOffset="21.466115282336823" xlink:href="#id40">April</textPath></text><line stroke="#e1ed5e" stroke-width="0.3" x1="174.80103733775053" x2="179.2010983576182" y1="140.37084112569926" y2="142.7455964860345" /><path d="M 175.68104954172406 140.8457921977663 a86.0,86.0 0 0,1 -30.038265399797805,32.042727171017184" fill="none" id="id41" stroke="none" /><text fill="#e1ed5e" style="font-size:6.75px; font-family:Arial;" text-anchor="middle"><textPath startOffset="22.206326154141568" xlink:href="#id41">May</textPath></text><line stroke="#e1ed5e" stroke-width="0.3" x1="143.8653032363475" x2="146.44561519142675" y1="172.8068346515853" y2="177.08958963109032" /><path d="M 144.38136562736335 173.6633856474863 a86.0,86.0 0 0,1 -40.68145358897372,12.25698825130547" fill="none" id="id42" stroke="none" /><text fill="#e1ed5e" style="font-size:6.75px; font-family:Arial;" text-anchor="middle"><textPath startOffset="21.466115282336833" xlink:href="#id42">June</textPath></text><line stroke="#e1ed5e" stroke-width="0.3" x1="102.19456741930631" x2="102.32365962044197" y1="184.97166512339345" y2="189.96999836594603" /><path d="M 102.22038585953345 185.97133177190398 a86.0,86.0 0 0,1 -42.740103519485714,-10.115201625700543" fill="none" id="id43" stroke="none" /><text fill="#e1ed5e" style="font-size:6.75px; font-family:Arial;" text-anchor="middle"><textPath startOffset="22.20632615414155" xlink:href="#id43">July</textPath></text><line stroke="#e1ed5e" stroke-width="0.3" x1="58.666819895761336" x2="56.23545636021788" y1="174.27360380694188" y2="178.64263932499728" /><path d="M 58.180547188652646 175.14741091055294 a86.0,86.0 0 0,1 -31.652253787137756,-30.449443065178592" fill="none" id="id44" stroke="none" /><text fill="#e1ed5e" style="font-size:6.75px; font-family:Arial;" text-anchor="middle"><textPath startOffset="22.20632615414155" xlink:href="#id44">August</textPath></text><line stroke="#e1ed5e" stroke-width="0.3" x1="26.63291911575756" x2="22.317208475507996" y1="142.92168965132927" y2="145.44649492493687" /><path d="M 25.769776987707644 143.4266507060508 a86.0,86.0 0 0,1 -11.730757126820373,-40.83630448921669" fill="none" id="id45" stroke="none" /><text fill="#e1ed5e" style="font-size:6.75px; font-family:Arial;" text-anchor="middle"><textPath startOffset="21.46611528233685" xlink:href="#id45">September</textPath></text><line stroke="#e1ed5e" stroke-width="0.3" x1="15.007084014347285" x2="10.007500721073583" y1="101.09737516637583" y2="101.16192664675087" /><path d="M 14.007167355692545 101.11028546245083 a86.0,86.0 0 0,1 10.666146001902534,-42.60595125391555" fill="none" id="id46" stroke="none" /><text fill="#e1ed5e" style="font-size:6.75px; font-family:Arial;" text-anchor="middle"><textPath startOffset="22.20632615414155" xlink:href="#id46">October</textPath></text><line stroke="#e1ed5e" stroke-width="0.3" x1="26.266209847984243" x2="21.928928074336255" y1="57.711370442889674" y2="55.22380399835377" /><path d="M 25.398753493254645 57.213857153982495 a86.0,86.0 0 0,1 29.58750427330803,-30.492523968695096" fill="none" id="id47" stroke="none" /><text fill="#e1ed5e" style="font-size:6.75px; font-family:Arial;" text-anchor="middle"><textPath startOffset="21.46611528233685" xlink:href="#id47">November</textPath></text><line stroke="#e1ed5e" stroke-width="0.3" x1="56.762969772571076" x2="54.21961505331055" y1="26.818313649435495" y2="22.513508569990535" /><path d="M 56.25429882871897 25.957352633546506 a86.0,86.0 0 0,1 42.265352541879196,-11.944610805530505" fill="none" id="id48" stroke="none" /><text fill="#e1ed5e" style="font-size:6.75px; font-family:Arial;" text-anchor="middle"><textPath startOffset="22.20632615414155" xlink:href="#id48">December</textPath></text></svg>