<?xml version="1.0" encoding="utf-8" ?>
<svg baseProfile="full" height="200mm" version="1.1" viewBox="0,0,200,200" width="200mm" xmlns="http://www.w3.org/2000/svg" xmlns:ev="http://www.w3.org/2001/xml-events" xmlns:xlink="http://www.w3.org/1999/xlink"><defs /><rect fill="#1a1a1a" height="200" width="200" x="0" y="0" /><text alignment-baseline="middle" fill="#e1ed5e" style="dominant-baseline: central; font-size:9.0px; font-family:Arial;" text-anchor="middle" x="100.0" y="100.0">2025</text><line stroke="#e1ed5e" stroke-width="0.3" x1="100.0" x2="100.0" y1="15.0" y2="10.0" /><path d="M 100.0 14.0 a86.0,86.0 0 0,1 42.46469731375804,11.215312516191453" fill="none" id="id25" stroke="none" /><text fill="#e1ed5e" style="font-size:6.75px; font-family:Arial;" text-anchor="middle"><textPath startOffset="22.20632615414155" xlink:href="#id25">January</textPath></text><path d="M 100.0 79.0 l 0.0 -8.390595490184857 a29.390595490184857,29.390595490184857 0 0,0 0.5059107878046206,0.004354533872370331 l -0.14443030853209227 8.389352332921046" fill="#ff4706" stroke="none" /><path d="M 100.36148047927253 79.00311137660856 l 0.2757263573905082 -16.015790474531176 a37.018163738339155,37.018163738339155 0 0,0 0.6370180185252834,0.01645229603228973 l -0.5513710111106594 16.00867138635653" fill="#ffb210" stroke="none" /><path d="M 100.72285384407766 79.0124445844662 l 0.5489457088380644 -15.938254432414121 a36.94770503061867,36.94770503061867 0 0,0 0.6354286854277499,0.027362895854265067 l -0.8232152266551458 15.92644381003566" fill="#ffb110" stroke="none" /><path d="M 101.08401301168833 79.027996857942 l 0.8274106355669194 -16.007610851326888 a37.02898042694443,37.02898042694443 0 0,0 0.6362600681341305,0.0383809448607282 l -1.1028327525406618 15.990996637085857" fill="#ffb210" stroke="none" /><path d="M 101.44485096284872 79.0497635885617 l 1.0965276025425383 -15.899572409627943 a36.93733903737195,36.93733903737195 0 0,0 0.633932350853249,0.04920535119172736 l -1.3700501427581284 15.878341796247751" fill="#ffb110" stroke="none" /><path d="M 101.80526077348638 79.07773832637324 l 1.3581815837611477 -15.740789869860876 a36.79927602586849,36.79927602586849 0 0,0 0.6306254658562117,0.05988548668665296 l -1.6289321767076035 15.715078838659046" fill="#ffaf10" stroke="none" /><path d="M 102.16513564639614 79.11191278185805 l 1.7041320104743665 -16.440567188141667 a37.52865134779374,37.52865134779374 0 0,0 0.6419781493572446,0.07213372519942599 l -1.9868768633413363 16.40879750947164" fill="#ffb911" stroke="none" /><path d="M 102.52436894288641 79.15227682838746 l 1.8904414332848676 -15.612377019741693 a36.72641360956905,36.72641360956905 0 0,0 0.6269465882742618,0.0813956606455626 l -2.1589027500669755 15.577523035931993" fill="#ffae10" stroke="none" /><path d="M 102.88285421437855 79.19881850522331 l 2.1543449267010844 -15.544636145369797 a36.693212384822296,36.693212384822296 0 0,0 0.6248871884062797,0.09209212793015151 l -2.42160109553602 15.505249533278677" fill="#ffae10" stroke="none" /><path d="M 103.2404852339499 79.25152402106235 l 2.4093377700569993 -15.42672878846627 a36.61373976993075,36.61373976993075 0 0,0 0.6218596014269447,0.1026121625341196 l -2.674526577622819 15.382970362992525" fill="#ffad10" stroke="none" /><path d="M 103.95276090670814 79.375362276772 l 2.981933147815098 -15.559071833613583 a36.842242316717225,36.842242316717225 0 0,0 0.6218156298855381,0.12473036561730771 l -3.249315187167762 15.505437511919066" fill="#ffb010" stroke="none" /><path d="M 104.307194497241 79.44645832069477 l 3.25603246811836 -15.537491767671428 a36.87499284610542,36.87499284610542 0 0,0 0.6201272390661303,0.13553579550146078 l -3.523002431338018 15.479142474074097" fill="#ffb010" stroke="none" /><path d="M 104.66035177308747 79.52364482259891 l 3.5286034951069665 -15.503752069376873 a36.9002317861844,36.9002317861844 0 0,0 0.6181251184748687,0.1462902447213956 l -3.7949523005443586 15.440715912514609" fill="#ffb110" stroke="none" /><path d="M 105.01212808612495 79.60689891045804 l 3.8134182620589403 -15.515849311624047 a36.97760115606936,36.97760115606936 0 0,0 0.6168059525105447,0.15723757105236202 l -4.07993310325451 15.447908744402817" fill="#ffb210" stroke="none" /><path d="M 105.36241919743992 79.69619591428918 l 4.239366330122823 -16.05157303917342 a37.60196445945172,37.60196445945172 0 0,0 0.6243754464926582,0.17066539544557666 l -4.5150396658391925 15.97622110290155" fill="#ffba11" stroke="none" /><path d="M 105.71112130821622 79.79150937346287 l 4.497757256454892 -15.91506824180855 a37.53841641389573,37.53841641389573 0 0,0 0.6202951288949184,0.1810811577368194 l -4.771042603073237 15.835288755153028" fill="#ffb911" stroke="none" /><path d="M 106.0581310904928 79.89281104454417 l 4.683844069950191 -15.545873198448552 a37.23615006009271,37.23615006009271 0 0,0 0.6121173173658415,0.19018783013998894 l -4.950746760026751 15.462945233426042" fill="#ffb510" stroke="none" /><path d="M 106.40334571778207 80.00007090966166 l 4.810617456596494 -15.0252715147791 a36.77659102615464,36.77659102615464 0 0,0 0.6012397827925832,0.19821930346150657 l -5.068540061631494 14.940238487058357" fill="#ffaf10" stroke="none" /><path d="M 106.74666289553966 80.11325718540242 l 5.358129552368901 -15.793844456894567 a37.67798174326103,37.67798174326103 0 0,0 0.6123892009309723,0.21365056762765078 l -5.629200757363147 15.69927303609471" fill="#ffbb11" stroke="none" /><path d="M 107.08798089147638 80.2323363322302 l 5.612923916908132 -15.65387857008033 a37.62975733989584,37.62975733989584 0 0,0 0.6078418460277042,0.2238732816803597 l -5.881548088708413 15.554942020593646" fill="#ffbb11" stroke="none" /><path d="M 107.4271985657038 80.35727306442388 l 5.890421365767821 -15.578409194220391 a37.65484604818863,37.65484604818863 0 0,0 0.604300811313587,0.2344593264132797 l -6.1577053420810755 15.474707163916564" fill="#ffbb11" stroke="none" /><path d="M 107.76421540070413 80.48803036053334 l 6.1361541232329015 -15.420547573261604 a37.596556115149085,37.596556115149085 0 0,0 0.5992463704602737,0.24444764069103755 l -6.400684363281562 15.312639046386987" fill="#ffba11" stroke="none" /><path d="M 108.09893153111575 80.62456947434976 l 6.414473822049418 -15.345628175794541 a37.63231128026098,37.63231128026098 0 0,0 0.5955156319200695,0.2549687148955583 l -6.677673211759803 15.232939932936192" fill="#ffbb11" stroke="none" /><path d="M 108.43124777332544 80.76684994638697 l 6.664705216343554 -15.203357668431481 a37.600011446231335,37.600011446231335 0 0,0 0.5905312438486111,0.2649541555422836 l -6.925418578658946 15.086383182372668" fill="#ffba11" stroke="none" /><path d="M 108.76106565485865 80.91482961587045 l 6.901413770198668 -15.034090929631844 a37.5424726721227,37.5424726721227 0 0,0 0.58498643142895,0.2746589733675613 l -7.159178412927216 14.91306697362428" fill="#ffb911" stroke="none" /><path d="M 109.08828744355905 81.06846463323043 l 7.152936814499778 -14.900065289631776 a37.52805042064901,37.52805042064901 0 0,0 0.5799490787896121,0.2845784942708668 l -7.408357160299822 14.774731635226077" fill="#ffb911" stroke="none" /><path d="M 109.41281617654863 81.2277094730956 l 7.316305711540722 -14.591150387370254 a37.322683568934934,37.322683568934934 0 0,0 0.5718181911118233,0.2929074870265141 l -7.566384390241301 14.463050375031239" fill="#ffb610" stroke="none" /><path d="M 109.73455568895987 81.39251694778311 l 7.438107537532375 -14.217850754315103 a37.045956618783265,37.045956618783265 0 0,0 0.5624898463807781,0.30046259567961603 l -7.6817424304414645 14.087709432133732" fill="#ffb310" stroke="none" /><path d="M 110.05341064243156 81.56283822128135 l 7.711301977843452 -14.141919309451977 a37.107701882905054,37.107701882905054 0 0,0 0.5581632921288568,0.3106172677591347 l -7.953589359044344 14.007086644132663" fill="#ffb310" stroke="none" /><path d="M 110.36928655335952 81.73862282372117 l 8.163372613014046 -14.37653647139842 a37.532557374234536,37.532557374234536 0 0,0 0.5590622183615762,0.3238449218443208 l -8.40963156384095 14.23388739216405" fill="#ffb911" stroke="none" /><line stroke="#e1ed5e" stroke-width="0.3" x1="143.23703022742887" x2="145.7803849466894" y1="26.81831364943548" y2="22.513508569990506" /><path d="M 143.74570117128098 25.957352633546492 a86.0,86.0 0 0,1 28.547481713284135,27.462654790039103" fill="none" id="id26" stroke="none" /><text fill="#e1ed5e" style="font-size:6.75px; font-family:Arial;" text-anchor="middle"><textPath startOffset="19.985693538727396" xlink:href="#id26">February</textPath></text><path d="M 110.68208982089419 81.91981866633111 l 17.228408014801076 -29.160281014372043 a54.869455731700334,54.869455731700334 0 0,0 0.8090316619298332,0.4874325239956739 l -17.727801742948547 28.85940188091775" fill="#71ff27" stroke="none" /><path d="M 111.2981086023043 82.29822771554956 l 8.911170589060644 -13.961939835068607 a37.56335489040234,37.56335489040234 0 0,0 0.5420445311409154,0.3525608410036074 l -9.15018214598584 13.80648006990547" fill="#ffba11" stroke="none" /><path d="M 111.90073688211348 82.69761687909136 l 9.190157267474254 -13.361493793063614 a37.216920391461116,37.216920391461116 0 0,0 0.5247033908812322,0.367588256897 l -9.418791797939136 13.201320693402678" fill="#ffb510" stroke="none" /><path d="M 112.19680574252982 82.90503203632743 l 9.611188328745794 -13.470982488457173 a37.54818147999771,37.54818147999771 0 0,0 0.5229115017249172,0.37991744438629865 l -9.841645146824499 13.3035458092542" fill="#ffb911" stroke="none" /><path d="M 112.48926042617603 83.11751280151076 l 9.85361762505597 -13.319729730765946 a37.56831253934642,37.56831253934642 0 0,0 0.5165711782163548,0.38907070178891906 l -10.081434957030707 13.14814243947118" fill="#ffba11" stroke="none" /><path d="M 112.77801427241765 83.33499621200491 l 10.057850514731989 -13.117383761959426 a37.529552738510844,37.529552738510844 0 0,0 0.5092714642810876,0.39749445580150206 l -10.282154534172507 12.942310916934698" fill="#ffb911" stroke="none" /><path d="M 113.06298171725822 83.55741782278167 l 10.282247985366613 -12.942428545434217 a37.52970297029702,37.52970297029702 0 0,0 0.502355807515934,0.40620345983984746 l -10.503507191447039 12.76351898833024" fill="#ffb911" stroke="none" /><path d="M 113.6212207817346 84.01681056812373 l 5.1699326716571985 -6.066417582185339 a28.97054741601328,28.97054741601328 0 0,0 0.3767636264719613,0.3267257041860586 l -5.273590096775924 5.97652688457961" fill="#ff4106" stroke="none" /><path d="M 114.16331599549186 84.49514656593476 l 3.2605699417310117 -3.569408398015647 a25.83445887941395,25.83445887941395 0 0,0 0.3257505256045253,0.3027496119746217 l -3.3215283511303837 3.5127541999663845" fill="#ff1202" stroke="none" /><path d="M 114.68862486808459 84.99185889309783 l 9.071947080755644 -9.269285799391819 a33.9699607966577,33.9699607966577 0 0,0 0.4143756107534878,0.4125961501927768 l -9.230158491676455 9.111753798548923" fill="#ff880c" stroke="none" /><path d="M 114.94478906791727 85.2469230424477 l 44.8343672037518 -44.25923087265689 a84.0,84.0 0 0,0 1.0069429451875638,1.0377432177995427 l -45.58957441264248 43.480923459307235" fill="#4dd2ff" stroke="none" /><path d="M 116.38621287248628 86.86637796730983 l 3.9479116144880195 -3.1642686059702094 a26.059506095118184,26.059506095118184 0 0,0 0.27752867618618593,0.35243323527812953 l -4.001794371268169 3.0958429767390414" fill="#ff1602" stroke="none" /><path d="M 117.04232023915458 87.72973835380427 l 4.063680935523818 -2.9258004559130524 a26.007375665312196,26.007375665312196 0 0,0 0.25844814730334525,0.3655565758245695 l -4.113441702631046 2.8554173797566897" fill="#ff1502" stroke="none" /><path d="M 117.45458315368197 88.32363383020206 l 13.961019316091729 -9.339322068193988 a37.796815086132895,37.796815086132895 0 0,0 0.357095965992529,0.5438816551526428 l -14.119711917442183 9.097622349063672" fill="#ffbd11" stroke="none" /><path d="M 117.65298651832404 88.62581576622439 l 14.15153639379582 -9.118127517229633 a37.834673496251355,37.834673496251355 0 0,0 0.34802927735810985,0.5504987373687895 l -14.306393267399885 8.873181132146637" fill="#ffbd11" stroke="none" /><line stroke="#e1ed5e" stroke-width="0.3" x1="172.23445277983987" x2="176.4835382374775" y1="55.19839476539836" y2="52.563006222186495" /><path d="M 173.08426987136738 54.67131705675599 a86.0,86.0 0 0,1 12.851231095245387,41.99856678651699" fill="none" id="id27" stroke="none" /><text fill="#e1ed5e" style="font-size:6.75px; font-family:Arial;" text-anchor="middle"><textPath startOffset="22.20632615414155" xlink:href="#id27">March</textPath></text><path d="M 117.84615892207809 88.93136811851018 l 14.052458553154954 -8.715684502973891 a37.535862473530585,37.535862473530585 0 0,0 0.3358283598322561,0.5520135234425333 l -14.200402711273433 8.472503206324276" fill="#ffb911" stroke="none" /><path d="M 118.03404312379186 89.2402003453031 l 13.994883977396885 -8.349882871737115 a37.296543238138845,37.296543238138845 0 0,0 0.32419634018197035,0.5541566351586874 l -14.136539992049183 8.107746824224533" fill="#ffb610" stroke="none" /><path d="M 118.21658344932153 89.55222093294921 l 7.173046888181451 -4.113966229386839 a29.26905797516168,29.26905797516168 0 0,0 0.2468947603270793,0.43919822936418934 l -7.242799289800963 3.9898844900878556" fill="#ff4506" stroke="none" /><path d="M 118.3937258080291 89.86733742301442 l 7.033576316965973 -3.8746285702586394 a29.030189435128484,29.030189435128484 0 0,0 0.23734516210310716,0.43976453889407235 l -7.099229578287544 3.7529830480321085" fill="#ff4206" stroke="none" /><path d="M 118.56541770881063 90.18545643968196 l 7.055931874880343 -3.7300938675775237 a28.98121387283237,28.98121387283237 0 0,0 0.22935258863018626,0.4430361997707669 l -7.119093896670646 3.6080849455464117" fill="#ff4106" stroke="none" /><path d="M 118.73160827565052 90.50648371742162 l 4.886186062460976 -2.4764070581157784 a26.477901619641734,26.477901619641734 0 0,0 0.202543322533342,0.4083149788661477 l -4.928089397947726 2.391932490750681" fill="#ff1c02" stroke="none" /><path d="M 118.89224826269711 90.83032412892265 l 7.5280305917145665 -3.653858424562238 a29.36791049047101,29.36791049047101 0 0,0 0.21682161359696484,0.4566816146406213 l -7.589810399153287 3.5237343942810764" fill="#ff4706" stroke="none" /><path d="M 119.196687751892 91.48605970444005 l 7.473145405731038 -3.3144214578455724 a29.17516310879643,29.17516310879643 0 0,0 0.1996543800280544,0.46082983619110307 l -7.529090495601773 3.1852924770678666" fill="#ff4406" stroke="none" /><path d="M 119.61058180528143 92.48833698450437 l 15.603280120638994 -5.976700914149149 a37.70877925942884,37.70877925942884 0 0,0 0.2269626986474708,0.6081471936207953 l -15.70384740778809 5.707230583499021" fill="#ffbc11" stroke="none" /><path d="M 119.7369772167798 92.82701384747503 l 10.81196197989539 -3.9293784813959185 a32.503848795284156,32.503848795284156 0 0,0 0.18658280162358515,0.5274947057001554 l -10.877997862328785 3.7426861492691486" fill="#ff740a" stroke="none" /><path d="M 119.97218684219823 93.5106431181261 l 7.483854909056121 -2.43165186370166 a28.868990728552625,28.868990728552625 0 0,0 0.14949259194650458,0.4739323690050365 l -7.524602984770832 2.3024693282702042" fill="#ff3f06" stroke="none" /><path d="M 120.08093135843002 93.85539295169968 l 9.624579052114234 -2.9450454874304373 a31.065078978996166,31.065078978996166 0 0,0 0.15206223451428696,0.512678260596104 l -9.673847183740222 2.7789378400878033" fill="#ff5f08" stroke="none" /><path d="M 120.18372546131832 94.20196356495316 l 4.925363841434135 -1.4148745266688816 a26.124556458536027,26.124556458536027 0 0,0 0.12043822277486901,0.433280367509596 l -4.948988834775367 1.3298828557403337" fill="#ff1702" stroke="none" /><path d="M 120.37134235888165 94.90015583598534 l 4.60826859104187 -1.1536525804835118 a25.750479310936875,25.750479310936875 0 0,0 0.1039426677680868,0.4309094629386732 l -4.627444059070776 1.0741578858854324" fill="#ff1101" stroke="none" /><path d="M 120.45610955862082 95.25157060432595 l 7.809333188964703 -1.8127624497134882 a29.016969037944257,29.016969037944257 0 0,0 0.1087523016892523,0.48751524428950077 l -7.839379877655992 1.6780690358740233" fill="#ff4206" stroke="none" /><path d="M 120.53481517161879 95.60439243477599 l 8.150522344129186 -1.7446710562994265 a29.335159961082816,29.335159961082816 0 0,0 0.10144476051523933,0.49468067964570506 l -8.179346400559423 1.6041147204903097" fill="#ff4606" stroke="none" /><path d="M 120.6074358757038 95.95851677861258 l 7.976639192802504 -1.5643602462342587 a29.128591255079264,29.128591255079264 0 0,0 0.09226034099320003,0.492858430741045 l -8.002385257705564 1.426823738030651" fill="#ff4306" stroke="none" /><path d="M 120.67395015179393 96.31383870115 l 8.046015539388582 -1.4346030087852493 a29.172909632003662,29.172909632003662 0 0,0 0.08389036698645032,0.4951256947154231 l -8.069517767895256 1.2958915257539882" fill="#ff4406" stroke="none" /><path d="M 120.73433829027371 96.67025291283417 l 7.928306398551551 -1.273214257776381 a29.029888971556115,29.029888971556115 0 0,0 0.07498573289611347,0.4940622897901648 l -7.949048024886965 1.136552855594134" fill="#ff4206" stroke="none" /><path d="M 120.78858239683441 97.02765380044208 l 8.029802619414816 -1.1480991268866996 a29.111464831454246,29.111464831454246 0 0,0 0.06665693820873403,0.49667161355903067 l -8.048375556681387 1.0097091712630044" fill="#ff4306" stroke="none" /><path d="M 120.83666639777658 97.38593545837742 l 8.086088575328993 -1.014440459028632 a29.149473473358896,29.149473473358896 0 0,0 0.05817353063808192,0.49839528453062454 l -8.102352458970664 0.8751014361731546" fill="#ff4406" stroke="none" /><path d="M 120.87857604477298 97.74499172005257 l 7.993317372603959 -0.8633250093692175 a29.03980426944429,29.03980426944429 0 0,0 0.049399298958573215,0.4974441990129967 l -8.00699379724476 0.7256052796517858" fill="#ff4206" stroke="none" /><path d="M 120.94382443527127 98.46500227214037 l 8.176817623837449 -0.5992886596478254 a29.19874949922738,29.19874949922738 0 0,0 0.03242369436819529,0.5015802008091668 l -8.185921909210059 0.4584493945856233" fill="#ff4406" stroke="none" /><line stroke="#e1ed5e" stroke-width="0.3" x1="184.98032266829074" x2="189.97916517819016" y1="98.17113171792111" y2="98.06355123074" /><path d="M 185.9800911702706 98.14961562048488 a86.0,86.0 0 0,1 -9.607161424134198,41.387399972396054" fill="none" id="id28" stroke="none" /><text fill="#e1ed5e" style="font-size:6.75px; font-family:Arial;" text-anchor="middle"><textPath startOffset="21.466115282336823" xlink:href="#id28">April</textPath></text><path d="M 120.99513854157772 99.54816195383933 l 7.947073880940726 -0.17102960897103442 a28.948914038802727,28.948914038802727 0 0,0 0.006433541703283651,0.4982848949310303 l -7.9488404297617254 0.03420845597954139" fill="#ff4106" stroke="none" /><path d="M 120.9904718944345 100.63252640178507 l 16.302513744200212 0.49125957770414486 a37.30991386710926,37.30991386710926 0 0,0 -0.024869486554516526,0.6417709428927387 l -16.291642124794492 -0.7718077676108898" fill="#ffb610" stroke="none" /><path d="M 120.9764740272857 100.99374915477107 l 36.02438999788412 1.7066360659553055 a57.064792823212954,57.064792823212954 0 0,0 -0.05492798565734585,0.9807760824455669 l -35.98967566133924 -2.3264838647362955" fill="#5aff2a" stroke="none" /><path d="M 120.81339534386255 102.79330883721812 l 8.077504464096027 1.0840597715779017 a29.149924168717448,29.149924168717448 0 0,0 -0.07102302537554936,0.4967348740572972 l -8.057647387703877 -1.2229401176156083" fill="#ff4406" stroke="none" /><path d="M 120.76222939487914 103.15116336523771 l 8.003433645579381 1.2147118895758346 a29.095089566760144,29.095089566760144 0 0,0 -0.07941330907942248,0.494506751443487 l -7.98133858213867 -1.3522978707125266" fill="#ff4306" stroke="none" /><path d="M 120.70491114924044 103.5080841355445 l 7.941049737688706 1.3454716324816265 a29.054226520917986,29.054226520917986 0 0,0 -0.08779019227787342,0.4923740205116358 l -7.916713103071644 -1.4819644037264805" fill="#ff4206" stroke="none" /><path d="M 120.64145759157962 103.86396538481128 l 7.867687721623095 1.4727871265863408 a29.004349567904768,29.004349567904768 0 0,0 -0.09608735921125724,0.48994737450176185 l -7.841170429436173 -1.6079982281560476" fill="#ff4106" stroke="none" /><path d="M 120.5718875245553 104.21870165774334 l 8.034109138764078 1.647564400774527 a29.201303439592515,29.201303439592515 0 0,0 -0.10521641405980925,0.4915360581395735 l -8.004558685979827 -1.7856142783302695" fill="#ff4406" stroke="none" /><path d="M 120.49622156327973 104.57218783832717 l 7.73549665764598 1.7255933554540437 a28.925628111944143,28.925628111944143 0 0,0 -0.11258878437969552,0.4850295363854755 l -7.7046473073357316 -1.858491549188084" fill="#ff4006" stroke="none" /><path d="M 120.41448212921028 104.9243191809786 l 7.84295007858539 1.8918525222922074 a29.06789761346077,29.06789761346077 0 0,0 -0.12151583465197419,0.48539535525178884 l -7.809222929638355 -2.0265757169413923" fill="#ff4206" stroke="none" /><path d="M 120.13307415673323 105.97154293290107 l 7.950305903232969 2.358089612210314 a29.29264436559263,29.29264436559263 0 0,0 -0.14754178744660854,0.4821750980862062 l -7.908537343280228 -2.494591682848577" fill="#ff4606" stroke="none" /><path d="M 119.9155931802556 106.66101706037122 l 8.021859142828301 2.683010248434308 a29.458650489326388,29.458650489326388 0 0,0 -0.16498130502778402,0.4795128984477856 l -7.974487006857287 -2.820695849971394" fill="#ff4806" stroke="none" /><path d="M 119.67450827220406 107.3425965602758 l 7.632133942799357 2.8483395702008445 a29.146318605849025,29.146318605849025 0 0,0 -0.1794659868822136,0.46852906070987094 l -7.581973676323637 -2.9792921977438596" fill="#ff4406" stroke="none" /><path d="M 119.26925614724726 108.34839909993367 l 15.61250317252893 6.764112036149973 a38.01480140788645,38.01480140788645 0 0,0 -0.2653051456426628,0.5981930649112475 l -15.493756942154993 -7.031853437553908" fill="#ffc011" stroke="none" /><path d="M 119.12269723197855 108.67885076344098 l 7.429019581515729 3.371666218656374 a29.158337148743776,29.158337148743776 0 0,0 -0.21136376403718574,0.45525874393291826 l -7.369881200638712 -3.499045029868123" fill="#ff4406" stroke="none" /><path d="M 118.97047184881838 109.00673069616215 l 7.388338135419799 3.507807945328248 a29.178768671664855,29.178768671664855 0 0,0 -0.21932255289594743,0.45186942015999243 l -7.326862325909137 -3.634466321453516" fill="#ff4406" stroke="none" /><line stroke="#e1ed5e" stroke-width="0.3" x1="174.80103733775053" x2="179.2010983576182" y1="140.37084112569926" y2="142.7455964860345" /><path d="M 175.68104954172406 140.8457921977663 a86.0,86.0 0 0,1 -30.038265399797805,32.042727171017184" fill="none" id="id29" stroke="none" /><text fill="#e1ed5e" style="font-size:6.75px; font-family:Arial;" text-anchor="middle"><textPath startOffset="22.206326154141568" xlink:href="#id29">May</textPath></text><path d="M 118.30583269289576 110.29060199501025 l 14.627746381067002 8.222970165674568 a37.78059005322497,37.78059005322497 0 0,0 -0.32356017644084645,0.5641544405930521 l -14.484034208473776 -8.473544452125935" fill="#ffbd11" stroke="none" /><path d="M 118.12598468904814 110.60418214915192 l 6.5760248779237855 3.8471490966773154 a28.618704572769417,28.618704572769417 0 0,0 -0.25241578093426154,0.423063367774415 l -6.508828221291297 -3.9597745583378345" fill="#ff3c05" stroke="none" /><path d="M 117.94076556474637 110.91462005526583 l 6.869224759563257 4.179028930191453 a29.040555428375207,29.040555428375207 0 0,0 -0.26348822346609363,0.42482691270414213 l -6.7962718964292 -4.29665217426087" fill="#ff4206" stroke="none" /><path d="M 117.75023020441432 111.22182372390056 l 6.791192565402927 4.29344098450413 a29.03454615692783,29.03454615692783 0 0,0 -0.2707058538848106,0.42014149681780744 l -6.716281848141066 -4.409704081243391" fill="#ff4206" stroke="none" /><path d="M 117.55443506779139 111.5257021239791 l 6.858692491468454 4.503206529367585 a29.20490900246094,29.20490900246094 0 0,0 -0.2795283817265298,0.4178570037722869 l -6.780161004331203 -4.620600447345679" fill="#ff4406" stroke="none" /><path d="M 117.35343817320211 111.8261652097733 l 6.887670286208907 4.69386676589189 a29.33500972929663,29.33500972929663 0 0,0 -0.28795677590414837,0.4148232125211156 l -6.805852603142623 -4.811731240600026" fill="#ff4606" stroke="none" /><path d="M 117.14729908036423 112.12312394758627 l 7.375531943619441 5.214493986068682 a30.032686144336978,30.032686144336978 0 0,0 -0.30207191442501014,0.41955146918009084 l -7.2846802368188275 -5.340679060699904" fill="#ff5007" stroke="none" /><path d="M 116.93607887273984 112.41649034213515 l 6.641810992135904 4.869366909413854 a29.235556286842556,29.235556286842556 0 0,0 -0.30104093613957966,0.4032935293656554 l -6.557008789301232 -4.982973318288824" fill="#ff4506" stroke="none" /><path d="M 116.71984013943494 112.70617746262583 l 6.46430950964074 4.912526861372903 a29.119126652549646,29.119126652549646 0 0,0 -0.30671201448131563,0.39646662391272575 l -6.378790677941356 -5.023071479398882" fill="#ff4306" stroke="none" /><path d="M 116.498646956653 112.99209946851258 l 12.790747668156078 10.072260253700273 a37.28046843701711,37.28046843701711 0 0,0 -0.4013545782768545,0.5007515474879561 l -12.615475177824369 -10.290939634766481" fill="#ffb610" stroke="none" /><path d="M 116.27256486870786 113.27417163493432 l 6.259251901939308 5.105918134172358 a29.077662679562756,29.077662679562756 0 0,0 -0.31972136316463184,0.38512497827444847 l -6.170434538881133 -5.212904369560577" fill="#ff4306" stroke="none" /><path d="M 116.0416608686014 113.55231037782055 l 6.213010629007689 5.2488734872719816 a29.133398672237163,29.133398672237163 0 0,0 -0.326928743751115,0.3802919883484448 l -6.121739375685795 -5.355042574781955" fill="#ff4306" stroke="none" /><path d="M 115.80600337817218 113.82643327865902 l 5.028761433622242 4.398951004419698 a27.68125822697877,27.68125822697877 0 0,0 -0.3168069259739751,0.3559359397789244 l -4.952295657999929 -4.4848611139394885" fill="#ff2e04" stroke="none" /><path d="M 115.07121518719521 114.62390073753431 l 5.674886540396841 5.506455613084337 a28.907299834029644,28.907299834029644 0 0,0 -0.3495847522467804,0.35412750836453716 l -5.579261163094525 -5.603323615429539" fill="#ff4006" stroke="none" /><path d="M 114.81725581225074 114.88116024355365 l 5.675086144882676 5.699561874888223 a29.043109368740343,29.043109368740343 0 0,0 -0.35729946136043256,0.349692724509261 l -5.576136731146449 -5.796404702320056" fill="#ff4206" stroke="none" /><path d="M 114.29624159901734 115.38237550388516 l 5.481875963682033 5.898352651292311 a29.052423739483775,29.052423739483775 0 0,0 -0.36924309453084747,0.33729481218465807 l -5.379533319684322 -5.991840230063552" fill="#ff4206" stroke="none" /><path d="M 114.0293411484842 115.62618273729858 l 5.470965313233435 6.093679156361835 a29.189284896697764,29.189284896697764 0 0,0 -0.37676089925896056,0.3324476883574168 l -5.365262061067887 -6.186949986491541" fill="#ff4406" stroke="none" /><path d="M 113.48314897796784 116.09983520530334 l 5.680064913477881 6.782399958040246 a29.846699193040692,29.846699193040692 0 0,0 -0.39671930043422476,0.32647297574490297 l -5.5624754844989655 -6.879168052642328" fill="#ff4e07" stroke="none" /><path d="M 113.20401910651253 116.32954008644616 l 10.303242030868011 12.742120592693833 a37.3865320780633,37.3865320780633 0 0,0 -0.5039037037132484,0.4003315779674237 l -10.082380834437412 -12.917586084666384" fill="#ffb711" stroke="none" /><path d="M 112.63410532772338 116.77436683061366 l 4.848870275723285 6.437870083334015 a29.059634865220627,29.059634865220627 0 0,0 -0.4021507926658006,0.2975015423465418 l -4.7373345126389195 -6.520381574420325" fill="#ff4206" stroke="none" /><path d="M 112.34349029814194 116.9893568818739 l 5.319876187629206 7.32218140379795 a30.050713958679104,30.050713958679104 0 0,0 -0.42110018555568207,0.3004438014906045 l -5.19304867422464 -7.4126694671327735" fill="#ff5107" stroke="none" /><path d="M 112.04921762599082 117.19931262002967 l 4.5955183661538435 6.559741842497297 a29.009307216848853,29.009307216848853 0 0,0 -0.41143916363800653,0.2829916084528159 l -4.481922317892953 -6.637874240315207" fill="#ff4206" stroke="none" /><path d="M 111.45004920935366 117.60387380957326 l 4.355530437023999 6.696408616697469 a28.988274766783036,28.988274766783036 0 0,0 -0.42063118327155063,0.2684667226395318 l -4.239617451705517 -6.770389768160809" fill="#ff4106" stroke="none" /><path d="M 111.1453310114006 117.79835938074945 l 4.279643178310302 6.834308216689513 a29.063691123447605,29.063691123447605 0 0,0 -0.42629625679831373,0.2618659789092371 l -4.161367721579679 -6.906962662427128" fill="#ff4206" stroke="none" /><line stroke="#e1ed5e" stroke-width="0.3" x1="143.8653032363475" x2="146.44561519142675" y1="172.8068346515853" y2="177.08958963109032" /><path d="M 144.38136562736335 173.6633856474863 a86.0,86.0 0 0,1 -40.68145358897372,12.25698825130547" fill="none" id="id30" stroke="none" /><text fill="#e1ed5e" style="font-size:6.75px; font-family:Arial;" text-anchor="middle"><textPath startOffset="21.466115282336833" xlink:href="#id30">June</textPath></text><path d="M 110.8373102113329 117.98757091392108 l 4.130666247564857 6.856004912742523 a29.00419933611858,29.00419933611858 0 0,0 -0.4298589861189225,0.2539682658762937 l -4.012039390417552 -6.926091750912566" fill="#ff4106" stroke="none" /><path d="M 110.21172684928248 118.3499491758327 l 8.133935864282114 14.616265388997054 a37.72710753734333,37.72710753734333 0 0,0 -0.5701773003110064,0.3109061257810327 l -7.881135752102459 -14.754112166537857" fill="#ffbc11" stroke="none" /><path d="M 109.89434966115114 118.52300852407294 l 3.8859232962823818 7.274757089245406 a29.24757482973731,29.24757482973731 0 0,0 -0.4461078236667591,0.233382528984617 l -3.7601245700891273 -7.340569037174739" fill="#ff4506" stroke="none" /><path d="M 109.2508944713604 118.85261126421891 l 3.5911212062856217 7.318428754580718 a29.152027413724035,29.152027413724035 0 0,0 -0.45239411601155244,0.21717666763070076 l -3.4646144222738364 -7.379159698710978" fill="#ff4406" stroke="none" /><path d="M 108.92500713936063 119.00905698771935 l 14.811014358757971 31.54545554926347 a55.84941767298117,55.84941767298117 0 0,0 -0.8737295773012861,0.40108639520943873 l -14.265816785689264 -31.79572901480698" fill="#67ff28" stroke="none" /><path d="M 108.2653958097858 119.30500536409082 l 1.9146810916605197 4.472009519649065 a25.864655468437018,25.864655468437018 0 0,0 -0.4107905137613719,0.17171046806835058 l -1.8374191184016866 -4.504305030737389" fill="#ff1302" stroke="none" /><path d="M 107.93186726928326 119.44442032107085 l 3.010879708517708 7.380961960284012 a28.971448806730386,28.971448806730386 0 0,0 -0.4633761452720362,0.18438693119750219 l -2.8833824872038054 -7.431695735887584" fill="#ff4106" stroke="none" /><path d="M 107.2578585660854 119.70592522655815 l 2.8713360367645 7.796009349810364 a29.307968007783437,29.307968007783437 0 0,0 -0.4749013443208678,0.17028272589294466 l -2.7367151318138974 -7.844279616743269" fill="#ff4606" stroke="none" /><path d="M 106.91757812671514 119.82793768551818 l 2.7479488226137336 7.8764788802828205 a29.342070623247295,29.342070623247295 0 0,0 -0.4783180415538568,0.16227144954325096 l -2.61196104812265 -7.9226133167241946" fill="#ff4606" stroke="none" /><path d="M 106.57524785965236 119.94407469862006 l 2.4958697092167523 7.570484486842418 a28.9712985749442,28.9712985749442 0 0,0 -0.4749618906833593,0.15206779859465708 l -2.365186473442453 -7.612325132096782" fill="#ff4106" stroke="none" /><path d="M 106.2309692047433 120.05430185196036 l 2.370758435545361 7.63025842726286 a28.99007754821725,28.99007754821725 0 0,0 -0.47781863487409293,0.14396283508153465 l -2.239064826231022 -7.6699366314501205" fill="#ff4106" stroke="none" /><path d="M 105.53697534728816 120.25689768951611 l 1.2932575124020702 4.7313530351471655 a25.904917587134435,25.904917587134435 0 0,0 -0.43114363213733375,0.11386895185096366 l -1.211623437453239 -4.752913336301713" fill="#ff1302" stroke="none" /><path d="M 104.48393922423573 120.51570834832081 l 1.7196175093918398 7.867896848972574 a29.05362559377325,29.05362559377325 0 0,0 -0.48949622911956825,0.1025786940946943 l -1.5839298188428936 -7.89633152379381" fill="#ff4206" stroke="none" /><path d="M 104.13013068566511 120.58985236759428 l 1.5986439855677061 7.9696857451572125 a29.12844102329308,29.12844102329308 0 0,0 -0.49245428096700794,0.09438003499839405 l -1.4612220900289938 -7.996022978504075" fill="#ff4306" stroke="none" /><path d="M 103.7750983002368 120.6578951692458 l 0.902589425772724 4.939102575769502 a26.020896526068793,26.020896526068793 0 0,0 -0.4413032886180363,0.07672623338342818 l -0.8174371656826377 -4.953907387673937" fill="#ff1502" stroke="none" /><path d="M 103.41894727170886 120.7198165907248 l 1.2867034791019571 7.797797969640726 a28.903243575802666,28.903243575802666 0 0,0 -0.49158104907924927,0.07677484999129353 l -1.1522865664141908 -7.818791126979126" fill="#ff4006" stroke="none" /><path d="M 102.34483914955558 120.86867818915974 l 0.5729409743108733 5.099079319169225 a26.13116665712814,26.13116665712814 0 0,0 -0.4474245591699914,0.04637738496661877 l -0.48508381853527927 -5.108186072591602" fill="#ff1702" stroke="none" /><path d="M 101.98527174616119 120.90594882070398 l 0.6128346294773035 6.453468863484925 a27.48250157385681,27.48250157385681 0 0,0 -0.47133233830959775,0.04066853741240047 l -0.501657973426164 -6.4630616531759895" fill="#ff2b04" stroke="none" /><path d="M 101.62511606390274 120.93702456842531 l 0.610453229864682 7.86471474588563 a28.888370628970414,28.888370628970414 0 0,0 -0.4961058204393774,0.03421436198902946 l -0.4749846486463742 -7.874057452390944" fill="#ff4006" stroke="none" /><path d="M 101.26447882468166 120.96189622390904 l 0.48915964949250934 8.109043512189386 a29.123783837921366,29.123783837921366 0 0,0 -0.500668259925537,0.025878830201498764 l -0.34950332115349275 -8.116262149153085" fill="#ff4306" stroke="none" /><line stroke="#e1ed5e" stroke-width="0.3" x1="102.19456741930631" x2="102.32365962044197" y1="184.97166512339345" y2="189.96999836594603" /><path d="M 102.22038585953345 185.97133177190398 a86.0,86.0 0 0,1 -42.740103519485714,-10.115201625700543" fill="none" id="id31" stroke="none" /><text fill="#e1ed5e" style="font-size:6.75px; font-family:Arial;" text-anchor="middle"><textPath startOffset="22.20632615414155" xlink:href="#id31">July</textPath></text><path d="M 99.81925306533755 120.99922214144158 l -0.10124150649048322 11.762262462144816 a32.76269816287987,32.76269816287987 0 0,0 -0.5638933230449628,-0.009707934938788288 l 0.30369451942811393 -11.758777049926868" fill="#ff780b" stroke="none" /><path d="M 99.45781275523022 120.99299961872073 l -0.21168668138381735 8.196316797282256 a29.199049962799748,29.199049962799748 0 0,0 -0.5023344048568962,-0.01730141259303219 l 0.35274143791535656 -8.19145858626313" fill="#ff4406" stroke="none" /><path d="M 98.73552117531835 120.96189622390904 l -0.4522974105339839 7.497959789356805 a28.51158930921994,28.51158930921994 0 0,0 -0.4896352787753358,-0.03376811555200407 l 0.5812954500882498 -7.489063329288515" fill="#ff3a05" stroke="none" /><path d="M 98.37488393609728 120.93702456842531 l -0.5649842997587734 7.278920212268679 a28.300814113203227,28.300814113203227 0 0,0 -0.48536661978145307,-0.04187947427096884 l 0.6901952372817682 -7.268116485719046" fill="#ff3705" stroke="none" /><path d="M 96.22490169976321 120.6578951692458 l -1.3369914757878072 7.316214718770983 a28.437374806844847,28.437374806844847 0 0,0 -0.48077090538061473,-0.09214088826059111 l 1.4627299957401168 -7.292116632161923" fill="#ff3905" stroke="none" /><path d="M 95.86986931433489 120.58985236759428 l -0.8863955858320911 4.418928997795372 a25.506953585531964,25.506953585531964 0 0,0 -0.42974180816597746,-0.09005657420251911 l 0.9623288554274553 -4.403016442866312" fill="#ff0d01" stroke="none" /><path d="M 95.51606077576429 120.51570834832081 l -0.9623288554274553 4.403016442866312 a25.506953585531964,25.506953585531964 0 0,0 -0.4281279613938806,-0.09744053014827186 l 1.0379769662141987 -4.385799179140353" fill="#ff0d01" stroke="none" /><path d="M 94.11515582081647 120.15858648285463 l -2.104977743941917 7.210620129218879 a28.51158930921994,28.51158930921994 0 0,0 -0.4699321227810936,-0.14158669368195914 l 2.228784841163256 -7.173318066431194" fill="#ff3a05" stroke="none" /><path d="M 90.7491055286396 118.85261126421891 l -2.6556018031554274 5.41191218021599 a27.028350884221368,27.028350884221368 0 0,0 -0.41590980809596856,-0.20854581192530294 l 2.7483655189341563 -5.365398527381385" fill="#ff2403" stroke="none" /><path d="M 90.42595943632237 118.69057910512821 l -3.015346075487235 5.886601793504761 a27.613954386768157,27.613954386768157 0 0,0 -0.42119051463334406,-0.220346970563087 l 3.116227492647075 -5.833825403996958" fill="#ff2d04" stroke="none" /><path d="M 90.10565033884886 118.52300852407294 l -2.379375063380612 4.454379124482856 a26.050041492588566,26.050041492588566 0 0,0 -0.39369947236300007,-0.21467634296849686 l 2.455697347612252 -4.412762129754594" fill="#ff1602" stroke="none" /><line stroke="#e1ed5e" stroke-width="0.3" x1="58.666819895761336" x2="56.23545636021788" y1="174.27360380694188" y2="178.64263932499728" /><path d="M 58.180547188652646 175.14741091055294 a86.0,86.0 0 0,1 -31.652253787137756,-30.449443065178592" fill="none" id="id32" stroke="none" /><text fill="#e1ed5e" style="font-size:6.75px; font-family:Arial;" text-anchor="middle"><textPath startOffset="22.20632615414155" xlink:href="#id32">August</textPath></text><path d="M 89.7882731507175 118.34994917583269 l -2.460518886358122 4.421426187483696 a26.059956790476736,26.059956790476736 0 0,0 -0.39009426433649624,-0.22150570412517862 l 2.5362619176158256 -4.378417317563885" fill="#ff1602" stroke="none" /><path d="M 89.4739219176387 118.17145234162733 l -2.7178161316644505 4.691839251373644 a26.42216562696732,26.42216562696732 0 0,0 -0.3915917552438925,-0.2313593113608461 l 2.798175757936725 -4.644361367719048" fill="#ff1b02" stroke="none" /><path d="M 89.1626897886671 117.98757091392108 l -2.4800743743942677 4.116382461264676 a25.805764608252733,25.805764608252733 0 0,0 -0.37851010766631044,-0.23251182315207036 l 2.550563681992887 -4.073082171284227" fill="#ff1202" stroke="none" /><path d="M 88.8546689885994 117.79835938074946 l -5.2845121671551025 8.439017792002751 a30.957062324729584,30.957062324729584 0 0,0 -0.4491990593101275,-0.286700092769625 l 5.428993028512153 -8.346803270409323" fill="#ff5e08" stroke="none" /><path d="M 88.54995079064634 117.60387380957326 l -2.78305723070595 4.278810282679428 a26.104275167401134,26.104275167401134 0 0,0 -0.37456564661867053,-0.2482416861384172 l 2.856297576064582 -4.230270575449692" fill="#ff1602" stroke="none" /><path d="M 88.24862548938628 117.40417183066458 l -5.4614837540921695 8.088636918239029 a30.75980798946947,30.75980798946947 0 0,0 -0.43626652571358554,-0.30006809447637006 l 5.599907164428645 -7.993428034397558" fill="#ff5b08" stroke="none" /><path d="M 87.95078237400918 117.19931262002967 l -2.8335280275394186 4.044638903205055 a25.938419275453555,25.938419275453555 0 0,0 -0.3634746643601741,-0.25932952217009436 l 2.9027300197484793 -3.995265119190741" fill="#ff1402" stroke="none" /><path d="M 87.65650970185807 116.9893568818739 l -5.933765792681878 8.167127957357641 a31.095125336233046,31.095125336233046 0 0,0 -0.4303195604489437,-0.31834012333238676 l 6.073470323549386 -8.063777885285488" fill="#ff6008" stroke="none" /><path d="M 87.36589467227662 116.77436683061367 l -5.327719715045941 7.073640954596758 a29.855562868425572,29.855562868425572 0 0,0 -0.4078430134098994,-0.3127166313644437 l 5.448691456949327 -6.980884981404948" fill="#ff4e07" stroke="none" /><path d="M 87.07902340077011 116.55440617244103 l -3.1463128933539375 4.031068486361443 a26.113589538144566,26.113589538144566 0 0,0 -0.35196456462029546,-0.2796219367009113 l 3.215234950691591 -3.976312635655401" fill="#ff1702" stroke="none" /><path d="M 86.79598089348748 116.32954008644616 l -3.1382499197022953 3.8811044918731823 a25.99115063240428,25.99115063240428 0 0,0 -0.34547173976183987,-0.2842997222276923 l 3.2045917880088237 -3.826509650788309" fill="#ff1502" stroke="none" /><path d="M 86.51685102203217 116.09983520530335 l -3.0258569180939956 3.6130875521545094 a25.71277113260459,25.71277113260459 0 0,0 -0.3368795729263039,-0.28709608049405483 l 3.087601967597356 -3.560467081437503" fill="#ff1101" stroke="none" /><path d="M 85.70375840098266 115.38237550388516 l -5.9630742175836 6.41610916667161 a29.759264293481372,29.759264293481372 0 0,0 -0.37222344403763996,-0.3519604993535406 l 6.072633496012057 -6.312514030572139" fill="#ff4c07" stroke="none" /><path d="M 85.18274418774928 114.88116024355367 l -6.713366782731037 6.742320449443313 a30.51462971441653,30.51462971441653 0 0,0 -0.3690226804254797,-0.3738180269854156 l 6.82843008821205 -6.625761928477233" fill="#ff5708" stroke="none" /><path d="M 84.9287848128048 114.62390073753433 l -5.768041192729987 5.596845430497134 a29.037100097292967,29.037100097292967 0 0,0 -0.34497934482038245,-0.3617094638349254 l 5.8635270889293265 -5.496728850079709" fill="#ff4206" stroke="none" /><path d="M 84.67929136418377 114.36230785411682 l -3.668184317400404 3.43871773065288 a26.02795742001946,26.02795742001946 0 0,0 -0.30360198393180887,-0.32949999143791514 l 3.7268327093279416 -3.3750664844136207" fill="#ff1502" stroke="none" /><path d="M 84.43433777217949 114.09645910891817 l -7.185745032058441 6.507500903526079 a30.694457162479253,30.694457162479253 0 0,0 -0.3512924354214317,-0.3946807752215209 l 7.2966963171282115 -6.382845958563694" fill="#ff5a08" stroke="none" /><path d="M 83.95833913139862 113.55231037782056 l -3.8129126535174356 3.221223547066104 a25.99145109597665,25.99145109597665 0 0,0 -0.2857871441253589,-0.3442490254106715 l 3.867795797536331 -3.1551132645416713" fill="#ff1502" stroke="none" /><path d="M 83.72743513129214 113.27417163493432 l -6.4985954131427555 5.3011600565771015 a29.386539231957876,29.386539231957876 0 0,0 -0.31637000700203716,-0.3947202278474202 l 6.588883332199654 -5.188511995151422" fill="#ff4706" stroke="none" /><path d="M 83.50135304334701 112.99209946851258 l -3.82557478079778 3.012504492455717 a25.869312653808734,25.869312653808734 0 0,0 -0.2724816953465167,-0.35221932213754326 l 3.876863293362365 -2.946207176204921" fill="#ff1302" stroke="none" /><path d="M 83.28015986056508 112.70617746262583 l -3.8366736701805246 2.9156652284323403 a25.818834773650774,25.818834773650774 0 0,0 -0.26585867270776825,-0.356161138095421 l 3.886293609583378 -2.849191210827611" fill="#ff1202" stroke="none" /><path d="M 83.06392112726016 112.41649034213515 l -3.9168256581435186 2.8715754290944964 a25.856693183769245,25.856693183769245 0 0,0 -0.26006933822647404,-0.3612135644894531 l 3.9656747887456003 -2.803728259153905" fill="#ff1302" stroke="none" /><path d="M 82.85270091963577 112.12312394758628 l -4.335279408223775 3.065038369424589 a26.309341555542836,26.309341555542836 0 0,0 -0.25825637149624636,-0.3720375648107038 l 4.3873966868821554 -2.9899595424268726" fill="#ff1902" stroke="none" /><path d="M 82.24976979558568 111.22182372390057 l -7.204015194563276 4.554430431983107 a29.52294969381331,29.52294969381331 0 0,0 -0.2678650408559776,-0.4318837359456285 l 7.28134487508721 -4.4297503646722145" fill="#ff4906" stroke="none" /><path d="M 82.05923443525364 110.91462005526583 l -4.491480362117974 2.732481033838119 a26.257361357523035,26.257361357523035 0 0,0 -0.23158883224359533,-0.38815620380500904 l 4.537850070059801 -2.6547627361469988" fill="#ff1902" stroke="none" /><line stroke="#e1ed5e" stroke-width="0.3" x1="26.63291911575756" x2="22.317208475507996" y1="142.92168965132927" y2="145.44649492493687" /><path d="M 25.769776987707644 143.4266507060508 a86.0,86.0 0 0,1 -11.730757126820373,-40.83630448921669" fill="none" id="id33" stroke="none" /><text fill="#e1ed5e" style="font-size:6.75px; font-family:Arial;" text-anchor="middle"><textPath startOffset="21.46611528233685" xlink:href="#id33">September</textPath></text><path d="M 81.87401531095188 110.60418214915194 l -8.404391387077753 4.916792033658965 a30.73697275796944,30.73697275796944 0 0,0 -0.2632372949923602,-0.4589764121568132 l 8.487780678222492 -4.771395775643845" fill="#ff5b08" stroke="none" /><path d="M 81.69416730710424 110.29060199501025 l -8.602107009854855 4.835664186489465 a30.868125107308423,30.868125107308423 0 0,0 -0.2563871054626917,-0.465417069083725 l 8.684070524769064 -4.686876599007918" fill="#ff5d08" stroke="none" /><path d="M 81.51974371655577 109.97397251340807 l -4.330665563131565 2.33730196318397 a25.92114262004235,25.92114262004235 0 0,0 -0.20853866807624571,-0.39447657015126697 l 4.370256739432698 -2.2624103779465767" fill="#ff1402" stroke="none" /><path d="M 81.35079622478065 109.6543875284942 l -4.602264446789095 2.382516970346648 a26.18239569621702,26.18239569621702 0 0,0 -0.2037505682313386,-0.4020192009418536 l 4.642593684806701 -2.3029435577021093" fill="#ff1802" stroke="none" /><path d="M 81.18737489456691 109.33194174019688 l -3.2485774108263015 1.611446300899046 a24.626294854919017,24.626294854919017 0 0,0 -0.18510383069022232,-0.38136871716547377 l 3.2758344981312426 -1.5552886277682876" fill="#ff0000" stroke="none" /><path d="M 81.02952815118164 109.00673069616217 l -4.406864604495722 2.092274932508569 a25.878326560979797,25.878326560979797 0 0,0 -0.1875875322042495,-0.4040468557976475 l 4.442226753539798 -2.0161080094320947" fill="#ff1302" stroke="none" /><path d="M 80.87730276802145 108.67885076344099 l -11.5233594591547 5.229885503403026 a33.65462427745665,33.65462427745665 0 0,0 -0.23487548704192285,-0.5295822179618501 l 11.611676030927901 -5.030754948948481" fill="#ff840c" stroke="none" /><path d="M 80.73074385275274 108.34839909993369 l -10.371161837106875 4.493302568845584 a32.30268843358324,32.30268843358324 0 0,0 -0.21665723670099174,-0.5121137080480469 l 10.446970055000174 -4.314114335131378" fill="#ff710a" stroke="none" /><path d="M 80.45479744820244 107.68017299344265 l -11.241595567156622 4.417319209114081 a33.0783351456533,33.0783351456533 0 0,0 -0.20367704551695462,-0.5317364949317637 l 11.315966892267086 -4.223159147349159" fill="#ff7c0b" stroke="none" /><path d="M 80.20201598880116 107.00284435728193 l -4.54060242527774 1.6060792884028314 a25.816280833285642,25.816280833285642 0 0,0 -0.144582444616142,-0.42022426159664883 l 4.56757570083711 -1.5276823237168857" fill="#ff1202" stroke="none" /><path d="M 80.0844068197444 106.66101706037122 l -11.681305222743497 3.906957361091229 a33.31735391747267,33.31735391747267 0 0,0 -0.17722888610551524,-0.5454544250788546 l 11.74682635986526 -3.7053040360345713" fill="#ff7f0b" stroke="none" /><path d="M 79.86692584326677 105.97154293290107 l -12.239227970416637 3.6301994778310447 a33.766246494591655,33.766246494591655 0 0,0 -0.16048190594662023,-0.5586585678483339 l 12.29990251324936 -3.4189834344781147" fill="#ff860c" stroke="none" /><path d="M 79.67330655649465 105.27499134158121 l -11.345716266114989 2.944333038432087 a32.72153465346535,32.72153465346535 0 0,0 -0.13678954864173432,-0.5464062502458956 l 11.394717129051783 -2.7485989487888" fill="#ff770a" stroke="none" /><path d="M 79.58551787078972 104.9243191809786 l -10.273106481536079 2.4780474456846124 a31.567754535569165,31.567754535569165 0 0,0 -0.12287287574193209,-0.5293331328143145 l 10.314239923208566 -2.300845655521724" fill="#ff6709" stroke="none" /><path d="M 79.4281124754447 104.21870165774334 l -11.052106173231941 2.266468673762444 a32.282106678875984,32.282106678875984 0 0,0 -0.1069461107302899,-0.5453159145551976 l 11.089482216937897 -2.0758890321392918" fill="#ff710a" stroke="none" /><path d="M 79.35854240842038 103.8639653848113 l -6.4096256239634375 1.1998460588702506 a27.520960911120014,27.520960911120014 0 0,0 -0.08315728000260417,-0.4663901880986564 l 6.429329346305231 -1.0893371200383806" fill="#ff2c04" stroke="none" /><path d="M 79.29508885075956 103.50808413554451 l -4.815553757031963 0.8159111438411232 a25.88418560064099,25.88418560064099 0 0,0 -0.07064933849597528,-0.4399334982545052 l 4.82888484988923 -0.7328984158934043" fill="#ff1302" stroke="none" /><path d="M 79.23777060512086 103.15116336523772 l -10.685454307338473 1.6217724750941962 a31.807824929891837,31.807824929891837 0 0,0 -0.0774989308397998,-0.5420273417912614 l 10.711787289194872 -1.437599661322534" fill="#ff6a09" stroke="none" /><path d="M 79.1416061653843 102.43462659150553 l -12.23966801840234 1.4286345087294774 a33.32276226177531,33.32276226177531 0 0,0 -0.061595854220462876,-0.5703011105638582 l 12.262446174123854 -1.217737076280837" fill="#ff7f0b" stroke="none" /><path d="M 79.10278846688536 102.07522291339032 l -4.85414967721794 0.4820472156883728 a25.878026097407428,25.878026097407428 0 0,0 -0.04020385947525228,-0.44364623917583756 l 4.861728132970267 -0.39841958796396904" fill="#ff1302" stroke="none" /><path d="M 79.04373962182676 101.35467743843564 l -9.013122917757215 0.5826361214355773 a30.031934985406053,30.031934985406053 0 0,0 -0.0289073807601648,-0.5161607023527777 l 9.021816649404913 -0.42740370274736195" fill="#ff5007" stroke="none" /><path d="M 79.0235259727143 100.99374915477108 l -8.567424420289843 0.40587711572276103 a29.577033136839695,29.577033136839695 0 0,0 -0.01971501811929104,-0.508757015945118 l 8.573141571260335 -0.25834285276364627" fill="#ff4a06" stroke="none" /><path d="M 79.0095281055655 100.63252640178507 l -9.475024291728868 0.28552016611224956 a30.479325244663194,30.479325244663194 0 0,0 -0.011288870531250482,-0.5245494548222048 l 9.478535224945126 -0.12238089549991589" fill="#ff5708" stroke="none" /><line stroke="#e1ed5e" stroke-width="0.3" x1="15.007084014347285" x2="10.007500721073583" y1="101.09737516637583" y2="101.16192664675087" /><path d="M 14.007167355692545 101.11028546245083 a86.0,86.0 0 0,1 10.666146001902534,-42.60595125391555" fill="none" id="id34" stroke="none" /><text fill="#e1ed5e" style="font-size:6.75px; font-family:Arial;" text-anchor="middle"><textPath startOffset="22.20632615414155" xlink:href="#id34">October</textPath></text><path d="M 79.00175016825051 100.2711162175752 l -6.158989892274719 0.07952101042024394 a27.15950323356035,27.15950323356035 0 0,0 -0.002012005371247691,-0.4675191902680332 l 6.15944619493547 0.026507658051464617" fill="#ff2603" stroke="none" /><path d="M 79.00019446554 99.90962569577889 l -9.170514001888925 -0.039466023669159876 a30.170598924054257,30.170598924054257 0 0,0 0.00670504621108667,-0.5193132182688261 l 9.168475948560124 0.19731549999845802" fill="#ff5207" stroke="none" /><path d="M 79.08570108090925 98.10471618934814 l -3.6456089928930755 -0.33037032371618424 a24.660547702169062,24.660547702169062 0 0,0 0.041949792674856656,-0.42242868736670697 l 3.63938207453599 0.39307454178732154" fill="#ff0100" stroke="none" /><path d="M 79.16333360222342 97.38593545837743 l -9.390988833199255 -1.1781467558677778 a30.464602529617125,30.464602529617125 0 0,0 0.06975523698746794,-0.5197575382215426 l 9.369317597153954 1.3396226361539798" fill="#ff5708" stroke="none" /><path d="M 79.21141760316559 97.0276538004421 l -8.923159616337097 -1.2758310820514092 a30.013907171063927,30.013907171063927 0 0,0 0.07752750375667061,-0.5108093839771238 l 8.899876219141124 1.429239578420625" fill="#ff5007" stroke="none" /><path d="M 79.26566170972629 96.67025291283419 l -9.39485766819569 -1.5087291196404524 a30.515230641561267,30.515230641561267 0 0,0 0.0877503797011874,-0.5179077082606072 l 9.367495426974282 1.6702226162168876" fill="#ff5708" stroke="none" /><path d="M 79.32604984820605 96.31383870115002 l -4.909220135269391 -0.875312997143647 a25.98664367881875,25.98664367881875 0 0,0 0.08230870439566665,-0.4396963901072839 l 4.893425706963863 0.9596874647135035" fill="#ff1502" stroke="none" /><path d="M 79.3925641242962 95.95851677861259 l -7.371171191160577 -1.4456172456745444 a28.51158930921994,28.51158930921994 0 0,0 0.09859674715324121,-0.4807927550412409 l 7.3451951480923405 1.5722856568791879" fill="#ff3a05" stroke="none" /><path d="M 79.46518482838121 95.60439243477599 l -4.407117088855404 -0.9433713941275127 a25.506953585531964,25.506953585531964 0 0,0 0.09559716274570802,-0.4285433358691247 l 4.390225539107659 1.0190928995465967" fill="#ff0d01" stroke="none" /><path d="M 79.54389044137918 95.25157060432595 l -8.195087673000963 -1.9023067458203133 a29.41298002632633,29.41298002632633 0 0,0 0.1187264739436319,-0.4921978839122979 l 8.161128398796516 2.043089861392008" fill="#ff4706" stroke="none" /><path d="M 79.62865764111835 94.90015583598534 l -11.181620312965384 -2.7992520125922007 a32.52668402678418,32.52668402678418 0 0,0 0.14064486770130885,-0.5419620479054506 l 11.131779113393769 2.991310486046515" fill="#ff740a" stroke="none" /><path d="M 79.71946130924805 94.55025226153421 l -5.055771273941462 -1.3585772294562848 a26.235127053167744,26.235127053167744 0 0,0 0.1209479702199526,-0.43511420028505865 l 5.031636533155149 1.445402733160286" fill="#ff1802" stroke="none" /><path d="M 79.81627453868168 94.20196356495316 l -9.246157356460811 -2.6560784003764715 a30.620092428317975,30.620092428317975 0 0,0 0.14988404435836003,-0.5053344862266577 l 9.199067414990745 2.8148422733496683" fill="#ff5908" stroke="none" /><path d="M 79.91906864156998 93.8553929516997 l -5.9483998509021925 -1.8201635669960141 a27.220647570537402,27.220647570537402 0 0,0 0.14095695959877652,-0.44687208189085686 l 5.9161874075352126 1.9222858153132854" fill="#ff2703" stroke="none" /><path d="M 80.02781315780177 93.51064311812611 l -4.286367576159981 -1.392725250788479 a25.506953585531964,25.506953585531964 0 0,0 0.13927125360737563,-0.41640332150629866 l 4.261759028780833 1.4663016752170999" fill="#ff0d01" stroke="none" /><path d="M 80.14247586403 93.16781622104843 l -7.102931714634722 -2.443836125361833 a28.51158930921994,28.51158930921994 0 0,0 0.16366591678297304,-0.46270558623484837 l 7.059812717041939 2.5657393380232927" fill="#ff3a05" stroke="none" /><path d="M 80.2630227832202 92.82701384747504 l -4.996511852359261 -1.8158763590926048 a26.31625221770732,26.31625221770732 0 0,0 0.15839302515009868,-0.42441455934465483 l 4.964514238707535 1.9016140554666012" fill="#ff1a02" stroke="none" /><path d="M 80.38941819471856 92.48833698450439 l -4.208761046746717 -1.6121293600474196 a25.506953585531964,25.506953585531964 0 0,0 0.16058018032741198,-0.408659043615705 l 4.1803873165376135 1.684337408558888" fill="#ff0d01" stroke="none" /><line stroke="#e1ed5e" stroke-width="0.3" x1="26.266209847984243" x2="21.928928074336255" y1="57.711370442889674" y2="55.22380399835377" /><path d="M 25.398753493254645 57.213857153982495 a86.0,86.0 0 0,1 29.58750427330803,-30.492523968695096" fill="none" id="id35" stroke="none" /><text fill="#e1ed5e" style="font-size:6.75px; font-family:Arial;" text-anchor="middle"><textPath startOffset="21.46611528233685" xlink:href="#id35">November</textPath></text><line stroke="#e1ed5e" stroke-width="0.3" x1="56.762969772571076" x2="54.21961505331055" y1="26.818313649435495" y2="22.513508569990535" /><path d="M 56.25429882871897 25.957352633546506 a86.0,86.0 0 0,1 42.265352541879196,-11.944610805530505" fill="none" id="id36" stroke="none" /><text fill="#e1ed5e" style="font-size:6.75px; font-family:Arial;" text-anchor="middle"><textPath startOffset="22.20632615414155" xlink:href="#id36">December</textPath></text></svg>