<?xml version="1.0" encoding="utf-8" ?>
<svg baseProfile="full" height="200mm" version="1.1" viewBox="0,0,200,200" width="200mm" xmlns="http://www.w3.org/2000/svg" xmlns:ev="http://www.w3.org/2001/xml-events" xmlns:xlink="http://www.w3.org/1999/xlink"><defs /><rect fill="#1a1a1a" height="200" width="200" x="0" y="0" /><text alignment-baseline="middle" fill="#e1ed5e" style="dominant-baseline: central; font-size:9.0px; font-family:Arial;" text-anchor="middle" x="100.0" y="100.0">2025</text><line stroke="#e1ed5e" stroke-width="0.3" x1="100.0" x2="100.0" y1="15.0" y2="10.0" /><path d="M 100.0 14.0 a86.0,86.0 0 0,1 42.46469731375804,11.215312516191453" fill="none" id="id25" stroke="none" /><text fill="#e1ed5e" style="font-size:6.75px; font-family:Arial;" text-anchor="middle"><textPath startOffset="22.20632615414155" xlink:href="#id25">January</textPath></text><path d="M 100.0 79.0 l 0.0 -15.607204322060966 a36.607204322060966,36.607204322060966 0 0,0 0.6301328458650461,0.005423752344399791 l -0.26865236659251784 15.604891946325125" fill="#ff0000" stroke="none" /><path d="M 100.36148047927253 79.00311137660856 l 0.5128739195930963 -29.790700148484778 a50.79511461623079,50.79511461623079 0 0,0 0.8740953087871273,0.022575302993616563 l -1.0255958635750912 29.777458053348802" fill="#fff917" stroke="none" /><path d="M 100.72285384407766 79.0124445844662 l 1.021084599963894 -29.646476671967484 a50.66405556935524,50.66405556935524 0 0,0 0.8713232446289996,0.03752101179085743 l -1.531248676982225 29.624507933652435" fill="#fff717" stroke="none" /><path d="M 101.08401301168833 79.027996857942 l 1.5390524859225136 -29.77548537013251 a50.81523455519677,50.81523455519677 0 0,0 0.8731459583157979,0.05267054866379198 l -2.0513604930779232 29.744581552088416" fill="#fff917" stroke="none" /><path d="M 101.44485096284872 79.0497635885617 l 2.039632390535372 -29.574524897636252 a50.644773961179524,50.644773961179524 0 0,0 0.8691844472921784,0.06746544157564173 l -2.5484070271898918 29.535034193872143" fill="#fff717" stroke="none" /><path d="M 101.80526077348638 79.07773832637324 l 2.5263305219536423 -29.27917618921391 a50.387965295766655,50.387965295766655 0 0,0 0.8634934574759624,0.08199910842718679 l -3.0299491065198487 29.231351536271546" fill="#fff216" stroke="none" /><path d="M 102.16513564639614 79.11191278185805 l 3.169827041519315 -30.580820106994004 a51.74466395798588,51.74466395798588 0 0,0 0.8851622004480368,0.09945828684039365 l -3.6957559454770768 30.52172586668301" fill="#f6ff19" stroke="none" /><path d="M 102.52436894288641 79.15227682838746 l 3.516378038088055 -29.04031762527376 a50.25243515134311,50.25243515134311 0 0,0 0.8578456123033853,0.1113729808109042 l -4.015738378899287 28.97548632129872" fill="#fff016" stroke="none" /><path d="M 102.88285421437855 79.19881850522331 l 4.007260448981375 -28.914313974100967 a50.19067811646144,50.19067811646144 0 0,0 0.8547496851317743,0.1259678847828032 l -4.5043791145418055 28.841051605157197" fill="#ffef16" stroke="none" /><path d="M 103.2404852339499 79.25152402106235 l 4.481568310869659 -28.69499649986209 a50.042852453780924,50.042852453780924 0 0,0 0.8499439957983419,0.14024804190790385 l -4.974841512806876 28.61360219501456" fill="#ffed16" stroke="none" /><path d="M 103.95276090670814 79.375362276772 l 5.54664325876724 -28.941165552896994 a50.46788616443703,50.46788616443703 0 0,0 0.8517863857078954,0.17086033578272694 l -6.043996053942261 28.841401261037056" fill="#fff417" stroke="none" /><path d="M 104.307194497241 79.44645832069477 l 6.056490754277573 -28.90102483835096 a50.52880486852844,50.52880486852844 0 0,0 0.849743575197498,0.18572103300943124 l -6.553077053628599 28.79249030724566" fill="#fff517" stroke="none" /><path d="M 104.66035177308747 79.52364482259891 l 6.563495497321317 -28.838266197958415 a50.575751392782365,50.575751392782365 0 0,0 0.847207207335857,0.20050657380934706 l -7.058926391619698 28.721013712008197" fill="#fff517" stroke="none" /><path d="M 105.01212808612495 79.60689891045804 l 7.093274613351819 -28.86076807302867 a50.719664845108404,50.719664845108404 0 0,0 0.84603084591029,0.21567210028511352 l -7.589014347947134 28.73439297657469" fill="#fff817" stroke="none" /><path d="M 105.36241919743992 79.69619591428918 l 7.885573388407377 -29.857258689912765 a51.88103243319967,51.88103243319967 0 0,0 0.8614774056528496,0.235474317462453 l -8.398348683283938 29.717097831624017" fill="#f4ff19" stroke="none" /><path d="M 105.71112130821622 79.79150937346287 l 8.366201966789998 -29.603348432183463 a51.762827791774605,51.762827791774605 0 0,0 0.8553432191449257,0.2496981407238164 l -8.87453540365835 29.454951962540942" fill="#f6ff19" stroke="none" /><path d="M 106.0581310904928 79.89281104454417 l 8.712338891548175 -28.91661499554575 a51.20058727511444,51.20058727511444 0 0,0 0.8416757930081415,0.26151276595545275 l -9.208800057267034 28.762362094707775" fill="#ffff18" stroke="none" /><path d="M 106.40334571778207 80.00007090966166 l 8.948147917296462 -27.948252635932207 a50.34576931265747,50.34576931265747 0 0,0 0.8230746396407556,0.27135476799063485 l -9.427905379179634 27.790084143682336" fill="#fff216" stroke="none" /><path d="M 106.74666289553966 80.11325718540242 l 9.966565877918649 -29.377862126466642 a52.02243089315496,52.02243089315496 0 0,0 0.8455329455337377,0.2949898422221281 l -10.47078082751566 29.201951431072306" fill="#f2ff19" stroke="none" /><path d="M 107.08798089147638 80.2323363322302 l 10.440504552727278 -29.117513954971113 a51.93272949859835,51.93272949859835 0 0,0 0.8388809388950688,0.308966929402522 l -10.940167817394922 28.933483757762264" fill="#f3ff19" stroke="none" /><path d="M 107.4271985657038 80.35727306442388 l 10.956672849515046 -28.977134649297003 a51.97939657925553,51.97939657925553 0 0,0 0.8341872247794206,0.3236516833383054 l -11.453843239294134 28.784240262068153" fill="#f2ff19" stroke="none" /><path d="M 107.76421540070413 80.48803036053334 l 11.413756182738208 -28.683498926326248 a51.87097246371668,51.87097246371668 0 0,0 0.8267643420829788,0.3372579339519922 l -11.905804394409575 28.482780106190678" fill="#f4ff19" stroke="none" /><path d="M 108.09893153111575 80.62456947434976 l 11.931453932720926 -28.544142626130157 a51.93748003974309,51.93748003974309 0 0,0 0.8218889617451397,0.351889960784656 l -12.42102665225638 28.33453313738271" fill="#f3ff19" stroke="none" /><path d="M 108.43124777332544 80.76684994638697 l 12.396905103988953 -28.27950766905041 a51.87739966644193,51.87739966644193 0 0,0 0.8147663836875257,0.3655619264905661 l -12.881853606143258 28.061925412043312" fill="#f4ff19" stroke="none" /><path d="M 108.76106565485865 80.91482961587045 l 12.837202669175829 -27.964657479875513 a51.77037276888684,51.77037276888684 0 0,0 0.8066854275772255,0.37874962471816426 l -13.316666308052653 27.739542872517347" fill="#f6ff19" stroke="none" /><path d="M 109.08828744355905 81.06846463323043 l 13.305056416708553 -27.715358660700748 a51.74354618359888,51.74354618359888 0 0,0 0.7996317849214548,0.3923758440982443 l -13.78015946864044 27.48222765646767" fill="#f6ff19" stroke="none" /><path d="M 109.41281617654863 81.2277094730956 l 13.608936130486958 -27.140751291847735 a51.3615467868422,51.3615467868422 0 0,0 0.7869066199945679,0.40308413438015783 l -14.07410323807028 26.902474632155077" fill="#fcff18" stroke="none" /><path d="M 109.73455568895987 81.39251694778311 l 13.835497640605709 -26.446382977553785 a50.84681168162946,50.84681168162946 0 0,0 0.7720360844252232,0.41239493899717217 l -14.288678771559244 26.20430931205486" fill="#fffa17" stroke="none" /><path d="M 110.05341064243156 81.56283822128135 l 14.34366198419417 -26.305144185166007 a50.96166299989355,50.96166299989355 0 0,0 0.7665505582140638,0.4265845557194465 l -14.79433663148027 26.05434423188638" fill="#fffc17" stroke="none" /><path d="M 110.36928655335952 81.73862282372117 l 15.184550903146917 -26.741551587744716 a51.75192949150137,51.75192949150137 0 0,0 0.7708653641031223,0.4465349748049208 l -15.642612999715368 26.476212455549746" fill="#f6ff19" stroke="none" /><line stroke="#e1ed5e" stroke-width="0.3" x1="143.23703022742887" x2="145.7803849466894" y1="26.81831364943548" y2="22.513508569990506" /><path d="M 143.74570117128098 25.957352633546492 a86.0,86.0 0 0,1 28.547481713284135,27.462654790039103" fill="none" id="id26" stroke="none" /><text fill="#e1ed5e" style="font-size:6.75px; font-family:Arial;" text-anchor="middle"><textPath startOffset="19.985693538727396" xlink:href="#id26">February</textPath></text><path d="M 110.68208982089419 81.91981866633111 l 32.04626946268258 -54.24054400100664 a84.0,84.0 0 0,0 1.23855173512945,0.7462135621655417 l -32.97518326402967 53.68088382938249" fill="#4dd2ff" stroke="none" /><path d="M 111.2981086023043 82.29822771554956 l 16.57551723175082 -25.970367418276897 a51.80921542883503,51.80921542883503 0 0,0 0.74761431634204,0.48626914759400786 l -17.02009857387714 25.68119934652336" fill="#f5ff19" stroke="none" /><path d="M 111.90073688211348 82.69761687909136 l 17.09445561916656 -24.853487922309412 a51.1648184947305,51.1648184947305 0 0,0 0.7213480716735332,0.5053504225256773 l -17.519734830423744 24.5555526570198" fill="#ffff18" stroke="none" /><path d="M 112.19680574252982 82.90503203632743 l 17.87760835330634 -25.057145987098995 a51.78099162556333,51.78099162556333 0 0,0 0.7211235011781543,0.5239268915500499 l -18.306277170838282 24.74569986073227" fill="#f5ff19" stroke="none" /><path d="M 112.48926042617603 83.11751280151076 l 18.328546974479572 -24.77580329857067 a51.81843706752777,51.81843706752777 0 0,0 0.7125130004513248,0.5366500199963122 l -18.75230612868928 24.45663668906851" fill="#f5ff19" stroke="none" /><line stroke="#e1ed5e" stroke-width="0.3" x1="172.23445277983987" x2="176.4835382374775" y1="55.19839476539836" y2="52.563006222186495" /><path d="M 173.08426987136738 54.67131705675599 a86.0,86.0 0 0,1 12.851231095245387,41.99856678651699" fill="none" id="id27" stroke="none" /><text fill="#e1ed5e" style="font-size:6.75px; font-family:Arial;" text-anchor="middle"><textPath startOffset="22.20632615414155" xlink:href="#id27">March</textPath></text><line stroke="#e1ed5e" stroke-width="0.3" x1="184.98032266829074" x2="189.97916517819016" y1="98.17113171792111" y2="98.06355123074" /><path d="M 185.9800911702706 98.14961562048488 a86.0,86.0 0 0,1 -9.607161424134198,41.387399972396054" fill="none" id="id28" stroke="none" /><text fill="#e1ed5e" style="font-size:6.75px; font-family:Arial;" text-anchor="middle"><textPath startOffset="21.466115282336823" xlink:href="#id28">April</textPath></text><line stroke="#e1ed5e" stroke-width="0.3" x1="174.80103733775053" x2="179.2010983576182" y1="140.37084112569926" y2="142.7455964860345" /><path d="M 175.68104954172406 140.8457921977663 a86.0,86.0 0 0,1 -30.038265399797805,32.042727171017184" fill="none" id="id29" stroke="none" /><text fill="#e1ed5e" style="font-size:6.75px; font-family:Arial;" text-anchor="middle"><textPath startOffset="22.206326154141568" xlink:href="#id29">May</textPath></text><line stroke="#e1ed5e" stroke-width="0.3" x1="143.8653032363475" x2="146.44561519142675" y1="172.8068346515853" y2="177.08958963109032" /><path d="M 144.38136562736335 173.6633856474863 a86.0,86.0 0 0,1 -40.68145358897372,12.25698825130547" fill="none" id="id30" stroke="none" /><text fill="#e1ed5e" style="font-size:6.75px; font-family:Arial;" text-anchor="middle"><textPath startOffset="21.466115282336833" xlink:href="#id30">June</textPath></text><line stroke="#e1ed5e" stroke-width="0.3" x1="102.19456741930631" x2="102.32365962044197" y1="184.97166512339345" y2="189.96999836594603" /><path d="M 102.22038585953345 185.97133177190398 a86.0,86.0 0 0,1 -42.740103519485714,-10.115201625700543" fill="none" id="id31" stroke="none" /><text fill="#e1ed5e" style="font-size:6.75px; font-family:Arial;" text-anchor="middle"><textPath startOffset="22.20632615414155" xlink:href="#id31">July</textPath></text><line stroke="#e1ed5e" stroke-width="0.3" x1="58.666819895761336" x2="56.23545636021788" y1="174.27360380694188" y2="178.64263932499728" /><path d="M 58.180547188652646 175.14741091055294 a86.0,86.0 0 0,1 -31.652253787137756,-30.449443065178592" fill="none" id="id32" stroke="none" /><text fill="#e1ed5e" style="font-size:6.75px; font-family:Arial;" text-anchor="middle"><textPath startOffset="22.20632615414155" xlink:href="#id32">August</textPath></text><line stroke="#e1ed5e" stroke-width="0.3" x1="26.63291911575756" x2="22.317208475507996" y1="142.92168965132927" y2="145.44649492493687" /><path d="M 25.769776987707644 143.4266507060508 a86.0,86.0 0 0,1 -11.730757126820373,-40.83630448921669" fill="none" id="id33" stroke="none" /><text fill="#e1ed5e" style="font-size:6.75px; font-family:Arial;" text-anchor="middle"><textPath startOffset="21.46611528233685" xlink:href="#id33">September</textPath></text><line stroke="#e1ed5e" stroke-width="0.3" x1="15.007084014347285" x2="10.007500721073583" y1="101.09737516637583" y2="101.16192664675087" /><path d="M 14.007167355692545 101.11028546245083 a86.0,86.0 0 0,1 10.666146001902534,-42.60595125391555" fill="none" id="id34" stroke="none" /><text fill="#e1ed5e" style="font-size:6.75px; font-family:Arial;" text-anchor="middle"><textPath startOffset="22.20632615414155" xlink:href="#id34">October</textPath></text><line stroke="#e1ed5e" stroke-width="0.3" x1="26.266209847984243" x2="21.928928074336255" y1="57.711370442889674" y2="55.22380399835377" /><path d="M 25.398753493254645 57.213857153982495 a86.0,86.0 0 0,1 29.58750427330803,-30.492523968695096" fill="none" id="id35" stroke="none" /><text fill="#e1ed5e" style="font-size:6.75px; font-family:Arial;" text-anchor="middle"><textPath startOffset="21.46611528233685" xlink:href="#id35">November</textPath></text><line stroke="#e1ed5e" stroke-width="0.3" x1="56.762969772571076" x2="54.21961505331055" y1="26.818313649435495" y2="22.513508569990535" /><path d="M 56.25429882871897 25.957352633546506 a86.0,86.0 0 0,1 42.265352541879196,-11.944610805530505" fill="none" id="id36" stroke="none" /><text fill="#e1ed5e" style="font-size:6.75px; font-family:Arial;" text-anchor="middle"><textPath startOffset="22.20632615414155" xlink:href="#id36">December</textPath></text></svg>