<?xml version="1.0" encoding="utf-8" ?>
<svg baseProfile="full" height="200mm" version="1.1" viewBox="0,0,200,200" width="200mm" xmlns="http://www.w3.org/2000/svg" xmlns:ev="http://www.w3.org/2001/xml-events" xmlns:xlink="http://www.w3.org/1999/xlink"><defs /><rect fill="#1a1a1a" height="200" width="200" x="0" y="0" /><text alignment-baseline="middle" fill="#e1ed5e" style="dominant-baseline: central; font-size:9.0px; font-family:Arial;" text-anchor="middle" x="100.0" y="100.0">2025</text><line stroke="#e1ed5e" stroke-width="0.3" x1="100.0" x2="100.0" y1="15.0" y2="10.0" /><path d="M 100.0 14.0 a86.0,86.0 0 0,1 42.46469731375804,11.215312516191453" fill="none" id="id25" stroke="none" /><text fill="#e1ed5e" style="font-size:6.75px; font-family:Arial;" text-anchor="middle"><textPath startOffset="22.20632615414155" xlink:href="#id25">January</textPath></text><path d="M 100.0 79.0 l 0.0 -8.390595490184857 a29.390595490184857,29.390595490184857 0 0,0 0.5059107878046206,0.004354533872370331 l -0.14443030853209227 8.389352332921046" fill="#ff3605" stroke="none" /><path d="M 100.36148047927253 79.00311137660856 l 0.2757263573905082 -16.015790474531176 a37.018163738339155,37.018163738339155 0 0,0 0.6370180185252834,0.01645229603228973 l -0.5513710111106594 16.00867138635653" fill="#ffa50f" stroke="none" /><path d="M 100.72285384407766 79.0124445844662 l 0.5489457088380644 -15.938254432414121 a36.94770503061867,36.94770503061867 0 0,0 0.6354286854277499,0.027362895854265067 l -0.8232152266551458 15.92644381003566" fill="#ffa40f" stroke="none" /><path d="M 101.08401301168833 79.027996857942 l 0.8274106355669194 -16.007610851326888 a37.02898042694443,37.02898042694443 0 0,0 0.6362600681341305,0.0383809448607282 l -1.1028327525406618 15.990996637085857" fill="#ffa50f" stroke="none" /><path d="M 101.44485096284872 79.0497635885617 l 1.0965276025425383 -15.899572409627943 a36.93733903737195,36.93733903737195 0 0,0 0.633932350853249,0.04920535119172736 l -1.3700501427581284 15.878341796247751" fill="#ffa40f" stroke="none" /><path d="M 101.80526077348638 79.07773832637324 l 1.3581815837611477 -15.740789869860876 a36.79927602586849,36.79927602586849 0 0,0 0.6306254658562117,0.05988548668665296 l -1.6289321767076035 15.715078838659046" fill="#ffa20f" stroke="none" /><path d="M 102.16513564639614 79.11191278185805 l 1.7041320104743665 -16.440567188141667 a37.52865134779374,37.52865134779374 0 0,0 0.6419781493572446,0.07213372519942599 l -1.9868768633413363 16.40879750947164" fill="#ffac0f" stroke="none" /><path d="M 102.52436894288641 79.15227682838746 l 1.8904414332848676 -15.612377019741693 a36.72641360956905,36.72641360956905 0 0,0 0.6269465882742618,0.0813956606455626 l -2.1589027500669755 15.577523035931993" fill="#ffa10e" stroke="none" /><path d="M 102.88285421437855 79.19881850522331 l 2.1543449267010844 -15.544636145369797 a36.693212384822296,36.693212384822296 0 0,0 0.6248871884062797,0.09209212793015151 l -2.42160109553602 15.505249533278677" fill="#ffa00e" stroke="none" /><path d="M 103.2404852339499 79.25152402106235 l 2.4093377700569993 -15.42672878846627 a36.61373976993075,36.61373976993075 0 0,0 0.6218596014269447,0.1026121625341196 l -2.674526577622819 15.382970362992525" fill="#ff9f0e" stroke="none" /><path d="M 103.95276090670814 79.375362276772 l 2.981933147815098 -15.559071833613583 a36.842242316717225,36.842242316717225 0 0,0 0.6218156298855381,0.12473036561730771 l -3.249315187167762 15.505437511919066" fill="#ffa30f" stroke="none" /><path d="M 104.307194497241 79.44645832069477 l 3.25603246811836 -15.537491767671428 a36.87499284610542,36.87499284610542 0 0,0 0.6201272390661303,0.13553579550146078 l -3.523002431338018 15.479142474074097" fill="#ffa30f" stroke="none" /><path d="M 104.66035177308747 79.52364482259891 l 3.5286034951069665 -15.503752069376873 a36.9002317861844,36.9002317861844 0 0,0 0.6181251184748687,0.1462902447213956 l -3.7949523005443586 15.440715912514609" fill="#ffa30f" stroke="none" /><path d="M 105.01212808612495 79.60689891045804 l 3.8134182620589403 -15.515849311624047 a36.97760115606936,36.97760115606936 0 0,0 0.6168059525105447,0.15723757105236202 l -4.07993310325451 15.447908744402817" fill="#ffa40f" stroke="none" /><path d="M 105.36241919743992 79.69619591428918 l 4.239366330122823 -16.05157303917342 a37.60196445945172,37.60196445945172 0 0,0 0.6243754464926582,0.17066539544557666 l -4.5150396658391925 15.97622110290155" fill="#ffad10" stroke="none" /><path d="M 105.71112130821622 79.79150937346287 l 4.497757256454892 -15.91506824180855 a37.53841641389573,37.53841641389573 0 0,0 0.6202951288949184,0.1810811577368194 l -4.771042603073237 15.835288755153028" fill="#ffac0f" stroke="none" /><path d="M 106.0581310904928 79.89281104454417 l 4.683844069950191 -15.545873198448552 a37.23615006009271,37.23615006009271 0 0,0 0.6121173173658415,0.19018783013998894 l -4.950746760026751 15.462945233426042" fill="#ffa80f" stroke="none" /><path d="M 106.40334571778207 80.00007090966166 l 4.810617456596494 -15.0252715147791 a36.77659102615464,36.77659102615464 0 0,0 0.6012397827925832,0.19821930346150657 l -5.068540061631494 14.940238487058357" fill="#ffa20e" stroke="none" /><path d="M 106.74666289553966 80.11325718540242 l 5.358129552368901 -15.793844456894567 a37.67798174326103,37.67798174326103 0 0,0 0.6123892009309723,0.21365056762765078 l -5.629200757363147 15.69927303609471" fill="#ffae10" stroke="none" /><path d="M 107.08798089147638 80.2323363322302 l 5.612923916908132 -15.65387857008033 a37.62975733989584,37.62975733989584 0 0,0 0.6078418460277042,0.2238732816803597 l -5.881548088708413 15.554942020593646" fill="#ffae10" stroke="none" /><path d="M 107.4271985657038 80.35727306442388 l 5.890421365767821 -15.578409194220391 a37.65484604818863,37.65484604818863 0 0,0 0.604300811313587,0.2344593264132797 l -6.1577053420810755 15.474707163916564" fill="#ffae10" stroke="none" /><path d="M 107.76421540070413 80.48803036053334 l 6.1361541232329015 -15.420547573261604 a37.596556115149085,37.596556115149085 0 0,0 0.5992463704602737,0.24444764069103755 l -6.400684363281562 15.312639046386987" fill="#ffad10" stroke="none" /><path d="M 108.09893153111575 80.62456947434976 l 6.414473822049418 -15.345628175794541 a37.63231128026098,37.63231128026098 0 0,0 0.5955156319200695,0.2549687148955583 l -6.677673211759803 15.232939932936192" fill="#ffae10" stroke="none" /><path d="M 108.43124777332544 80.76684994638697 l 6.664705216343554 -15.203357668431481 a37.600011446231335,37.600011446231335 0 0,0 0.5905312438486111,0.2649541555422836 l -6.925418578658946 15.086383182372668" fill="#ffad10" stroke="none" /><path d="M 108.76106565485865 80.91482961587045 l 6.901413770198668 -15.034090929631844 a37.5424726721227,37.5424726721227 0 0,0 0.58498643142895,0.2746589733675613 l -7.159178412927216 14.91306697362428" fill="#ffac0f" stroke="none" /><path d="M 109.08828744355905 81.06846463323043 l 7.152936814499778 -14.900065289631776 a37.52805042064901,37.52805042064901 0 0,0 0.5799490787896121,0.2845784942708668 l -7.408357160299822 14.774731635226077" fill="#ffac0f" stroke="none" /><path d="M 109.41281617654863 81.2277094730956 l 7.316305711540722 -14.591150387370254 a37.322683568934934,37.322683568934934 0 0,0 0.5718181911118233,0.2929074870265141 l -7.566384390241301 14.463050375031239" fill="#ffa90f" stroke="none" /><path d="M 109.73455568895987 81.39251694778311 l 7.438107537532375 -14.217850754315103 a37.045956618783265,37.045956618783265 0 0,0 0.5624898463807781,0.30046259567961603 l -7.6817424304414645 14.087709432133732" fill="#ffa50f" stroke="none" /><path d="M 110.05341064243156 81.56283822128135 l 7.711301977843452 -14.141919309451977 a37.107701882905054,37.107701882905054 0 0,0 0.5581632921288568,0.3106172677591347 l -7.953589359044344 14.007086644132663" fill="#ffa60f" stroke="none" /><path d="M 110.36928655335952 81.73862282372117 l 8.163372613014046 -14.37653647139842 a37.532557374234536,37.532557374234536 0 0,0 0.5590622183615762,0.3238449218443208 l -8.40963156384095 14.23388739216405" fill="#ffac0f" stroke="none" /><line stroke="#e1ed5e" stroke-width="0.3" x1="143.23703022742887" x2="145.7803849466894" y1="26.81831364943548" y2="22.513508569990506" /><path d="M 143.74570117128098 25.957352633546492 a86.0,86.0 0 0,1 28.547481713284135,27.462654790039103" fill="none" id="id26" stroke="none" /><text fill="#e1ed5e" style="font-size:6.75px; font-family:Arial;" text-anchor="middle"><textPath startOffset="19.985693538727396" xlink:href="#id26">February</textPath></text><path d="M 110.68208982089419 81.91981866633111 l 17.228408014801076 -29.160281014372043 a54.869455731700334,54.869455731700334 0 0,0 0.8090316619298332,0.4874325239956739 l -17.727801742948547 28.85940188091775" fill="#78ff26" stroke="none" /><path d="M 111.2981086023043 82.29822771554956 l 8.911170589060644 -13.961939835068607 a37.56335489040234,37.56335489040234 0 0,0 0.5420445311409154,0.3525608410036074 l -9.15018214598584 13.80648006990547" fill="#ffad10" stroke="none" /><path d="M 111.90073688211348 82.69761687909136 l 9.190157267474254 -13.361493793063614 a37.216920391461116,37.216920391461116 0 0,0 0.5247033908812322,0.367588256897 l -9.418791797939136 13.201320693402678" fill="#ffa80f" stroke="none" /><path d="M 112.19680574252982 82.90503203632743 l 9.611188328745794 -13.470982488457173 a37.54818147999771,37.54818147999771 0 0,0 0.5229115017249172,0.37991744438629865 l -9.841645146824499 13.3035458092542" fill="#ffac10" stroke="none" /><path d="M 112.48926042617603 83.11751280151076 l 9.85361762505597 -13.319729730765946 a37.56831253934642,37.56831253934642 0 0,0 0.5165711782163548,0.38907070178891906 l -10.081434957030707 13.14814243947118" fill="#ffad10" stroke="none" /><path d="M 112.77801427241765 83.33499621200491 l 10.057850514731989 -13.117383761959426 a37.529552738510844,37.529552738510844 0 0,0 0.5092714642810876,0.39749445580150206 l -10.282154534172507 12.942310916934698" fill="#ffac0f" stroke="none" /><path d="M 113.06298171725822 83.55741782278167 l 10.282247985366613 -12.942428545434217 a37.52970297029702,37.52970297029702 0 0,0 0.502355807515934,0.40620345983984746 l -10.503507191447039 12.76351898833024" fill="#ffac0f" stroke="none" /><path d="M 113.6212207817346 84.01681056812373 l 5.1699326716571985 -6.066417582185339 a28.97054741601328,28.97054741601328 0 0,0 0.3767636264719613,0.3267257041860586 l -5.273590096775924 5.97652688457961" fill="#ff3004" stroke="none" /><path d="M 114.16331599549186 84.49514656593476 l 3.2605699417310117 -3.569408398015647 a25.83445887941395,25.83445887941395 0 0,0 0.3257505256045253,0.3027496119746217 l -3.3215283511303837 3.5127541999663845" fill="#ff0000" stroke="none" /><path d="M 114.68862486808459 84.99185889309783 l 9.071947080755644 -9.269285799391819 a33.9699607966577,33.9699607966577 0 0,0 0.4143756107534878,0.4125961501927768 l -9.230158491676455 9.111753798548923" fill="#ff7a0b" stroke="none" /><path d="M 114.94478906791727 85.2469230424477 l 44.8343672037518 -44.25923087265689 a84.0,84.0 0 0,0 1.0069429451875638,1.0377432177995427 l -45.58957441264248 43.480923459307235" fill="#4dd2ff" stroke="none" /><path d="M 116.38621287248628 86.86637796730983 l 3.9479116144880195 -3.1642686059702094 a26.059506095118184,26.059506095118184 0 0,0 0.27752867618618593,0.35243323527812953 l -4.001794371268169 3.0958429767390414" fill="#ff0400" stroke="none" /><path d="M 117.04232023915458 87.72973835380427 l 4.063680935523818 -2.9258004559130524 a26.007375665312196,26.007375665312196 0 0,0 0.25844814730334525,0.3655565758245695 l -4.113441702631046 2.8554173797566897" fill="#ff0300" stroke="none" /><path d="M 117.45458315368197 88.32363383020206 l 13.961019316091729 -9.339322068193988 a37.796815086132895,37.796815086132895 0 0,0 0.357095965992529,0.5438816551526428 l -14.119711917442183 9.097622349063672" fill="#ffb010" stroke="none" /><path d="M 117.65298651832404 88.62581576622439 l 14.15153639379582 -9.118127517229633 a37.834673496251355,37.834673496251355 0 0,0 0.34802927735810985,0.5504987373687895 l -14.306393267399885 8.873181132146637" fill="#ffb010" stroke="none" /><line stroke="#e1ed5e" stroke-width="0.3" x1="172.23445277983987" x2="176.4835382374775" y1="55.19839476539836" y2="52.563006222186495" /><path d="M 173.08426987136738 54.67131705675599 a86.0,86.0 0 0,1 12.851231095245387,41.99856678651699" fill="none" id="id27" stroke="none" /><text fill="#e1ed5e" style="font-size:6.75px; font-family:Arial;" text-anchor="middle"><textPath startOffset="22.20632615414155" xlink:href="#id27">March</textPath></text><path d="M 117.84615892207809 88.93136811851018 l 14.052458553154954 -8.715684502973891 a37.535862473530585,37.535862473530585 0 0,0 0.3358283598322561,0.5520135234425333 l -14.200402711273433 8.472503206324276" fill="#ffac0f" stroke="none" /><path d="M 118.03404312379186 89.2402003453031 l 13.994883977396885 -8.349882871737115 a37.296543238138845,37.296543238138845 0 0,0 0.32419634018197035,0.5541566351586874 l -14.136539992049183 8.107746824224533" fill="#ffa90f" stroke="none" /><path d="M 118.21658344932153 89.55222093294921 l 7.173046888181451 -4.113966229386839 a29.26905797516168,29.26905797516168 0 0,0 0.2468947603270793,0.43919822936418934 l -7.242799289800963 3.9898844900878556" fill="#ff3505" stroke="none" /><path d="M 118.3937258080291 89.86733742301442 l 7.033576316965973 -3.8746285702586394 a29.030189435128484,29.030189435128484 0 0,0 0.23734516210310716,0.43976453889407235 l -7.099229578287544 3.7529830480321085" fill="#ff3104" stroke="none" /><path d="M 118.56541770881063 90.18545643968196 l 7.055931874880343 -3.7300938675775237 a28.98121387283237,28.98121387283237 0 0,0 0.22935258863018626,0.4430361997707669 l -7.119093896670646 3.6080849455464117" fill="#ff3004" stroke="none" /><path d="M 118.73160827565052 90.50648371742162 l 4.886186062460976 -2.4764070581157784 a26.477901619641734,26.477901619641734 0 0,0 0.202543322533342,0.4083149788661477 l -4.928089397947726 2.391932490750681" fill="#ff0a01" stroke="none" /><path d="M 118.89224826269711 90.83032412892265 l 7.5280305917145665 -3.653858424562238 a29.36791049047101,29.36791049047101 0 0,0 0.21682161359696484,0.4566816146406213 l -7.589810399153287 3.5237343942810764" fill="#ff3605" stroke="none" /><path d="M 119.196687751892 91.48605970444005 l 7.473145405731038 -3.3144214578455724 a29.17516310879643,29.17516310879643 0 0,0 0.1996543800280544,0.46082983619110307 l -7.529090495601773 3.1852924770678666" fill="#ff3304" stroke="none" /><path d="M 119.61058180528143 92.48833698450437 l 15.603280120638994 -5.976700914149149 a37.70877925942884,37.70877925942884 0 0,0 0.2269626986474708,0.6081471936207953 l -15.70384740778809 5.707230583499021" fill="#ffaf10" stroke="none" /><path d="M 119.7369772167798 92.82701384747503 l 10.81196197989539 -3.9293784813959185 a32.503848795284156,32.503848795284156 0 0,0 0.18658280162358515,0.5274947057001554 l -10.877997862328785 3.7426861492691486" fill="#ff6509" stroke="none" /><path d="M 119.97218684219823 93.5106431181261 l 7.483854909056121 -2.43165186370166 a28.868990728552625,28.868990728552625 0 0,0 0.14949259194650458,0.4739323690050365 l -7.524602984770832 2.3024693282702042" fill="#ff2f04" stroke="none" /><line stroke="#e1ed5e" stroke-width="0.3" x1="184.98032266829074" x2="189.97916517819016" y1="98.17113171792111" y2="98.06355123074" /><path d="M 185.9800911702706 98.14961562048488 a86.0,86.0 0 0,1 -9.607161424134198,41.387399972396054" fill="none" id="id28" stroke="none" /><text fill="#e1ed5e" style="font-size:6.75px; font-family:Arial;" text-anchor="middle"><textPath startOffset="21.466115282336823" xlink:href="#id28">April</textPath></text><line stroke="#e1ed5e" stroke-width="0.3" x1="174.80103733775053" x2="179.2010983576182" y1="140.37084112569926" y2="142.7455964860345" /><path d="M 175.68104954172406 140.8457921977663 a86.0,86.0 0 0,1 -30.038265399797805,32.042727171017184" fill="none" id="id29" stroke="none" /><text fill="#e1ed5e" style="font-size:6.75px; font-family:Arial;" text-anchor="middle"><textPath startOffset="22.206326154141568" xlink:href="#id29">May</textPath></text><line stroke="#e1ed5e" stroke-width="0.3" x1="143.8653032363475" x2="146.44561519142675" y1="172.8068346515853" y2="177.08958963109032" /><path d="M 144.38136562736335 173.6633856474863 a86.0,86.0 0 0,1 -40.68145358897372,12.25698825130547" fill="none" id="id30" stroke="none" /><text fill="#e1ed5e" style="font-size:6.75px; font-family:Arial;" text-anchor="middle"><textPath startOffset="21.466115282336833" xlink:href="#id30">June</textPath></text><line stroke="#e1ed5e" stroke-width="0.3" x1="102.19456741930631" x2="102.32365962044197" y1="184.97166512339345" y2="189.96999836594603" /><path d="M 102.22038585953345 185.97133177190398 a86.0,86.0 0 0,1 -42.740103519485714,-10.115201625700543" fill="none" id="id31" stroke="none" /><text fill="#e1ed5e" style="font-size:6.75px; font-family:Arial;" text-anchor="middle"><textPath startOffset="22.20632615414155" xlink:href="#id31">July</textPath></text><line stroke="#e1ed5e" stroke-width="0.3" x1="58.666819895761336" x2="56.23545636021788" y1="174.27360380694188" y2="178.64263932499728" /><path d="M 58.180547188652646 175.14741091055294 a86.0,86.0 0 0,1 -31.652253787137756,-30.449443065178592" fill="none" id="id32" stroke="none" /><text fill="#e1ed5e" style="font-size:6.75px; font-family:Arial;" text-anchor="middle"><textPath startOffset="22.20632615414155" xlink:href="#id32">August</textPath></text><line stroke="#e1ed5e" stroke-width="0.3" x1="26.63291911575756" x2="22.317208475507996" y1="142.92168965132927" y2="145.44649492493687" /><path d="M 25.769776987707644 143.4266507060508 a86.0,86.0 0 0,1 -11.730757126820373,-40.83630448921669" fill="none" id="id33" stroke="none" /><text fill="#e1ed5e" style="font-size:6.75px; font-family:Arial;" text-anchor="middle"><textPath startOffset="21.46611528233685" xlink:href="#id33">September</textPath></text><line stroke="#e1ed5e" stroke-width="0.3" x1="15.007084014347285" x2="10.007500721073583" y1="101.09737516637583" y2="101.16192664675087" /><path d="M 14.007167355692545 101.11028546245083 a86.0,86.0 0 0,1 10.666146001902534,-42.60595125391555" fill="none" id="id34" stroke="none" /><text fill="#e1ed5e" style="font-size:6.75px; font-family:Arial;" text-anchor="middle"><textPath startOffset="22.20632615414155" xlink:href="#id34">October</textPath></text><line stroke="#e1ed5e" stroke-width="0.3" x1="26.266209847984243" x2="21.928928074336255" y1="57.711370442889674" y2="55.22380399835377" /><path d="M 25.398753493254645 57.213857153982495 a86.0,86.0 0 0,1 29.58750427330803,-30.492523968695096" fill="none" id="id35" stroke="none" /><text fill="#e1ed5e" style="font-size:6.75px; font-family:Arial;" text-anchor="middle"><textPath startOffset="21.46611528233685" xlink:href="#id35">November</textPath></text><line stroke="#e1ed5e" stroke-width="0.3" x1="56.762969772571076" x2="54.21961505331055" y1="26.818313649435495" y2="22.513508569990535" /><path d="M 56.25429882871897 25.957352633546506 a86.0,86.0 0 0,1 42.265352541879196,-11.944610805530505" fill="none" id="id36" stroke="none" /><text fill="#e1ed5e" style="font-size:6.75px; font-family:Arial;" text-anchor="middle"><textPath startOffset="22.20632615414155" xlink:href="#id36">December</textPath></text></svg>