<?xml version="1.0" encoding="utf-8" ?>
<svg baseProfile="full" height="200mm" version="1.1" viewBox="0,0,200,200" width="200mm" xmlns="http://www.w3.org/2000/svg" xmlns:ev="http://www.w3.org/2001/xml-events" xmlns:xlink="http://www.w3.org/1999/xlink"><defs /><rect fill="#1a1a1a" height="200" width="200" x="0" y="0" /><text alignment-baseline="middle" fill="#e1ed5e" style="dominant-baseline: central; font-size:9.0px; font-family:Arial;" text-anchor="middle" x="100.0" y="100.0">2023</text><line stroke="#e1ed5e" stroke-width="0.3" x1="100.0" x2="100.0" y1="15.0" y2="10.0" /><path d="M 100.0 14.0 a86.0,86.0 0 0,1 42.46469731375804,11.215312516191453" fill="none" id="id1" stroke="none" /><text fill="#e1ed5e" style="font-size:6.75px; font-family:Arial;" text-anchor="middle"><textPath startOffset="22.20632615414155" xlink:href="#id1">January</textPath></text><line stroke="#e1ed5e" stroke-width="0.3" x1="143.23703022742887" x2="145.7803849466894" y1="26.81831364943548" y2="22.513508569990506" /><path d="M 143.74570117128098 25.957352633546492 a86.0,86.0 0 0,1 28.547481713284135,27.462654790039103" fill="none" id="id2" stroke="none" /><text fill="#e1ed5e" style="font-size:6.75px; font-family:Arial;" text-anchor="middle"><textPath startOffset="19.985693538727396" xlink:href="#id2">February</textPath></text><line stroke="#e1ed5e" stroke-width="0.3" x1="172.23445277983987" x2="176.4835382374775" y1="55.19839476539836" y2="52.563006222186495" /><path d="M 173.08426987136738 54.67131705675599 a86.0,86.0 0 0,1 12.851231095245387,41.99856678651699" fill="none" id="id3" stroke="none" /><text fill="#e1ed5e" style="font-size:6.75px; font-family:Arial;" text-anchor="middle"><textPath startOffset="22.20632615414155" xlink:href="#id3">March</textPath></text><line stroke="#e1ed5e" stroke-width="0.3" x1="184.98032266829074" x2="189.97916517819016" y1="98.17113171792111" y2="98.06355123074" /><path d="M 185.9800911702706 98.14961562048488 a86.0,86.0 0 0,1 -9.607161424134198,41.387399972396054" fill="none" id="id4" stroke="none" /><text fill="#e1ed5e" style="font-size:6.75px; font-family:Arial;" text-anchor="middle"><textPath startOffset="21.466115282336823" xlink:href="#id4">April</textPath></text><line stroke="#e1ed5e" stroke-width="0.3" x1="174.80103733775053" x2="179.2010983576182" y1="140.37084112569926" y2="142.7455964860345" /><path d="M 175.68104954172406 140.8457921977663 a86.0,86.0 0 0,1 -30.038265399797805,32.042727171017184" fill="none" id="id5" stroke="none" /><text fill="#e1ed5e" style="font-size:6.75px; font-family:Arial;" text-anchor="middle"><textPath startOffset="22.206326154141568" xlink:href="#id5">May</textPath></text><path d="M 113.48314897796784 116.09983520530334 l 4.760506182368941 5.6843816793248285 a28.414486778504408,28.414486778504408 0 0,0 -0.3776824781882147,0.31080696705669675 l -4.661953575636034 -5.765483765238704" fill="#ff5507" stroke="none" /><line stroke="#e1ed5e" stroke-width="0.3" x1="143.8653032363475" x2="146.44561519142675" y1="172.8068346515853" y2="177.08958963109032" /><path d="M 144.38136562736335 173.6633856474863 a86.0,86.0 0 0,1 -40.68145358897372,12.25698825130547" fill="none" id="id6" stroke="none" /><text fill="#e1ed5e" style="font-size:6.75px; font-family:Arial;" text-anchor="middle"><textPath startOffset="21.466115282336833" xlink:href="#id6">June</textPath></text><line stroke="#e1ed5e" stroke-width="0.3" x1="102.19456741930631" x2="102.32365962044197" y1="184.97166512339345" y2="189.96999836594603" /><path d="M 102.22038585953345 185.97133177190398 a86.0,86.0 0 0,1 -42.740103519485714,-10.115201625700543" fill="none" id="id7" stroke="none" /><text fill="#e1ed5e" style="font-size:6.75px; font-family:Arial;" text-anchor="middle"><textPath startOffset="22.20632615414155" xlink:href="#id7">July</textPath></text><path d="M 100.18074693466247 120.99922214144158 l 0.12896527623410586 14.983216668264722 a35.98377168040944,35.98377168040944 0 0,0 -0.6194244217931123,0.0 l 0.12896527623409554 -14.983216668264722" fill="#ffbb11" stroke="none" /><path d="M 99.81925306533755 120.99922214144158 l -0.12911945331797028 15.001128998780597 a36.001684674438444,36.001684674438444 0 0,0 -0.6196409558626388,-0.010667680994058223 l 0.387320099073277 -14.996683840507378" fill="#ffbb11" stroke="none" /><path d="M 99.09653310690486 120.98055641714683 l -0.3251080788253847 7.54974912926659 a28.55674580608473,28.55674580608473 0 0,0 -0.49092028396569753,-0.025374971189724843 l 0.4550164312045712 -7.543034351314663" fill="#ff5708" stroke="none" /><path d="M 98.37488393609728 120.93702456842531 l -0.33245106058470514 4.283100867605289 a25.2959837930054,25.2959837930054 0 0,0 -0.4338329667318459,-0.03743293384354547 l 0.40612834505809275 -4.27674368148308" fill="#ff2904" stroke="none" /><path d="M 98.01472825383883 120.90594882070398 l -0.6206867160321797 6.536155437738295 a27.565560136479956,27.565560136479956 0 0,0 -0.47198461339935543,-0.04892313500749115 l 0.7331039260371285 -6.524502934275043" fill="#ff4906" stroke="none" /><path d="M 97.2962882734958 120.8252237178851 l -1.9264618712064783 14.83849001303217 a35.963022462325846,35.963022462325846 0 0,0 -0.6132061961078408,-0.08498479123295857 l 2.1815966585011504 -14.803130656306605" fill="#ffba11" stroke="none" /><path d="M 96.22490169976321 120.6578951692458 l -0.538705561396458 2.9478763542977657 a23.996694626101792,23.996694626101792 0 0,0 -0.40569541597616693,-0.07775249203505834 l 0.5893685919443199 -2.9381666639142394" fill="#ff1602" stroke="none" /><path d="M 95.86986931433489 120.58985236759428 l -1.4790729595095804 7.373590860672445 a28.520471993176002,28.520471993176002 0 0,0 -0.4805136435833193,-0.10069630595953256 l 1.6057780645222866 -7.347038573986372" fill="#ff5608" stroke="none" /><path d="M 95.51606077576429 120.51570834832081 l -3.1971493865839924 14.628160882878623 a35.973471708842766,35.973471708842766 0 0,0 -0.6038059016072848,-0.1374242573825734 l 3.4484754375841398 -14.570959891918363" fill="#ffbb11" stroke="none" /><path d="M 94.46302465271185 120.25689768951611 l -0.3959874109259747 1.4487108875051304 a22.501855274381576,22.501855274381576 0 0,0 -0.37274733856086434,-0.10534212114982905 l 0.420865917591453 -1.44167997301678" fill="#ff0000" stroke="none" /><path d="M 93.08242187328487 119.8279376855182 l -2.5527377798570443 7.316943112069884 a28.749459766846744,28.749459766846744 0 0,0 -0.4658513714819337,-0.167037727615513 l 2.678308711968705 -7.271917843414413" fill="#ff5a08" stroke="none" /><path d="M 92.40401165467489 119.57807347666478 l -1.2773009688442634 3.2921446272674304 a24.53124822291726,24.53124822291726 0 0,0 -0.3923585360220728,-0.15612755884052207 l 1.3337805809081942 -3.269670224020842" fill="#ff1e03" stroke="none" /><path d="M 92.06813273071674 119.44442032107085 l -2.8862682498001084 7.075485645834076 a28.641533977822007,28.641533977822007 0 0,0 -0.4548937631131818,-0.1901456298742872 l 3.0076334724107525 -7.0247549729398155" fill="#ff5808" stroke="none" /><path d="M 91.7346041902142 119.30500536409082 l -0.5885892466763869 1.3747337484892086 a22.495436451521183,22.495436451521183 0 0,0 -0.3546559011261544,-0.1554707246775138 l 0.6121658224602845 -1.3643984705172425" fill="#ff0000" stroke="none" /><path d="M 91.40352486487194 119.15986991738527 l -3.0981041324352594 6.9050711175109 a28.56823997725334,28.56823997725334 0 0,0 -0.44693243510116054,-0.20516476030327585 l 3.216504563303839 -6.85071928687355" fill="#ff5708" stroke="none" /><path d="M 90.7491055286396 118.85261126421891 l -12.653169343792257 25.78618571829498 a49.723336650554444,49.723336650554444 0 0,0 -0.7651381874095831,-0.3836561711753794 l 13.0951614388846 -25.5645617062103" fill="#9eff22" stroke="none" /><path d="M 90.10565033884886 118.52300852407294 l -5.149591224695507 9.640443830790247 a31.929613306795567,31.929613306795567 0 0,0 -0.4825586137824959,-0.2631294318303214 l 5.314772650346644 -9.55037374720016" fill="#ff850c" stroke="none" /><line stroke="#e1ed5e" stroke-width="0.3" x1="58.666819895761336" x2="56.23545636021788" y1="174.27360380694188" y2="178.64263932499728" /><path d="M 58.180547188652646 175.14741091055294 a86.0,86.0 0 0,1 -31.652253787137756,-30.449443065178592" fill="none" id="id8" stroke="none" /><text fill="#e1ed5e" style="font-size:6.75px; font-family:Arial;" text-anchor="middle"><textPath startOffset="22.20632615414155" xlink:href="#id8">August</textPath></text><path d="M 89.7882731507175 118.34994917583269 l -7.875761667758753 14.152339604980606 a37.19618282627239,37.19618282627239 0 0,0 -0.55679361606014,-0.316161946619698 l 8.1182040507401 -14.014674492566275" fill="#ffca12" stroke="none" /><path d="M 88.8546689885994 117.79835938074946 l -3.9746240511156983 6.347212764947536 a28.488974978675007,28.488974978675007 0 0,0 -0.4133861484301017,-0.26384259861675996 l 4.083292001592723 -6.277855737506972" fill="#ff5608" stroke="none" /><path d="M 87.95078237400918 117.19931262002967 l -4.30099169964995 6.139328138522963 a28.495990901336366,28.495990901336366 0 0,0 -0.39931387562524084,-0.28489984781764227 l 4.406032903124078 -6.0643840288611015" fill="#ff5608" stroke="none" /><path d="M 87.07902340077011 116.55440617244103 l -9.21313024359361 11.803898799812053 a35.973770258743244,35.973770258743244 0 0,0 -0.4848621966878296,-0.3852038531696301 l 9.414949932998798 -11.643561032637292" fill="#ffbb11" stroke="none" /><path d="M 86.24171649860922 115.8653595955263 l -19.57523647536876 22.573176793296476 a50.87872476542508,50.87872476542508 0 0,0 -0.6567174962871166,-0.579476835239372 l 19.960896324562466 -22.232876816284815" fill="#91ff24" stroke="none" /><path d="M 85.70375840098266 115.38237550388516 l -5.108152404152728 5.496236046902842 a28.503454648848454,28.503454648848454 0 0,0 -0.35651600630090324,-0.33710813656462546 l 5.202004244844448 -5.407493273592285" fill="#ff5608" stroke="none" /><path d="M 85.18274418774928 114.88116024355367 l -5.450828993429057 5.474337538558354 a28.725277224907593,28.725277224907593 0 0,0 -0.3473834975782885,-0.3518976490070567 l 5.544253116062879 -5.379699395570632" fill="#ff5908" stroke="none" /><path d="M 84.67929136418377 114.36230785411682 l -7.755319188041981 7.270178183873809 a31.63016775661075,31.63016775661075 0 0,0 -0.36894872417521324,-0.4004209718341882 l 7.879314320212923 -7.135605957238277" fill="#ff810b" stroke="none" /><path d="M 84.19399662182784 113.82643327865904 l -7.868958335207877 6.883436931599678 a31.45476969007677,31.45476969007677 0 0,0 -0.35297867081869644,-0.4105939386976103 l 7.986279515597352 -6.746965893740537" fill="#ff7f0b" stroke="none" /><path d="M 83.95833913139862 113.55231037782056 l -5.733399974930892 4.843688980642721 a28.505544498151835,28.505544498151835 0 0,0 -0.31343067856362167,-0.3775474434287473 l 5.8159266533880505 -4.744280280100213" fill="#ff5608" stroke="none" /><path d="M 82.6465618267979 111.8261652097733 l -16.478488379610095 11.229897155800293 a40.94119277793574,40.94119277793574 0 0,0 -0.3918596480545579,-0.5857770056263302 l 16.669351133075384 -10.944583235968143" fill="#fff917" stroke="none" /><path d="M 82.05923443525364 110.91462005526583 l -6.382948942856985 3.883193406213465 a28.47136053454649,28.47136053454649 0 0,0 -0.25111621266136297,-0.4208852165980107 l 6.44884603121658 -3.772746095729343" fill="#ff5607" stroke="none" /><line stroke="#e1ed5e" stroke-width="0.3" x1="26.63291911575756" x2="22.317208475507996" y1="142.92168965132927" y2="145.44649492493687" /><path d="M 25.769776987707644 143.4266507060508 a86.0,86.0 0 0,1 -11.730757126820373,-40.83630448921669" fill="none" id="id9" stroke="none" /><text fill="#e1ed5e" style="font-size:6.75px; font-family:Arial;" text-anchor="middle"><textPath startOffset="21.46611528233685" xlink:href="#id9">September</textPath></text><path d="M 81.87401531095188 110.60418214915194 l -9.033100188937922 5.284603370150302 a31.465368211543932,31.465368211543932 0 0,0 -0.26947541253222,-0.4698530959000512 l 9.12272759762252 -5.128330428391943" fill="#ff7f0b" stroke="none" /><path d="M 81.51974371655577 109.97397251340807 l -23.65388731462968 12.76623106805737 a47.879044640318455,47.879044640318455 0 0,0 -0.3851925952652626,-0.7286392266222317 l 23.87013241811983 -12.357176826349011" fill="#b3ff20" stroke="none" /><path d="M 81.18737489456691 109.33194174019688 l -15.365694307042107 7.622102883960638 a38.152288882570375,38.152288882570375 0 0,0 -0.2867721215622951,-0.5908355095149891 l 15.49461968521912 -7.356478418480364" fill="#ffd714" stroke="none" /><path d="M 80.87730276802145 108.67885076344099 l -20.17819726045674 9.157890258593959 a43.15911998862667,43.15911998862667 0 0,0 -0.30120732426122193,-0.679142999797763 l 20.332845669449245 -8.8091989223035" fill="#eaff1a" stroke="none" /><path d="M 80.58989483394504 108.01547362559985 l -19.10173450180892 7.888130836623338 a41.66637048620984,41.66637048620984 0 0,0 -0.26804846314619446,-0.6652743030343827 l 19.234685579212503 -7.55815716574615" fill="#fcff18" stroke="none" /><path d="M 80.45479744820244 107.68017299344265 l -12.067231396352927 4.741747977811026 a33.96542507819164,33.96542507819164 0 0,0 -0.20913922660229825,-0.5459965261376927 l 12.147064902548735 -4.533327884840176" fill="#ffa00e" stroke="none" /><path d="M 80.32549172779594 107.34259656027581 l -7.002015962926076 2.613177295872398 a28.473748933750354,28.473748933750354 0 0,0 -0.16741986626412042,-0.4606675679874479 l 7.045960090195421 -2.492261930878833" fill="#ff5607" stroke="none" /><path d="M 80.20201598880116 107.00284435728193 l -7.048071049536963 2.4930086089095362 a28.47598805800398,28.47598805800398 0 0,0 -0.15947796636059036,-0.4635176202251887 l 7.089939846840783 -2.3713182855950508" fill="#ff5607" stroke="none" /><path d="M 80.0844068197444 106.66101706037122 l -7.3996876281771415 2.4749172714359102 a28.802601649132782,28.802601649132782 0 0,0 -0.1532130378619185,-0.47154124430823735 l 7.441192917055309 -2.3471771271498696" fill="#ff5a08" stroke="none" /><path d="M 79.97269907076064 106.31721596034903 l -18.79203728008517 5.927576474367021 a40.70474125675291,40.70474125675291 0 0,0 -0.20502246938236318,-0.6700252924622543 l 18.891286521973665 -5.60322420935272" fill="#fff617" stroke="none" /><path d="M 79.86692584326677 105.97154293290107 l -13.584673003835565 4.029263362381068 a35.169626101791295,35.169626101791295 0 0,0 -0.16715179252006837,-0.5818773180174202 l 13.652017433241737 -3.7948285688590517" fill="#ffb010" stroke="none" /><path d="M 79.76711848015287 105.62410040840567 l -23.610253973149433 6.562903009277084 a45.505423656525444,45.505423656525444 0 0,0 -0.2032833966714836,-0.7564931422943502 l 23.71972544616269 -6.155518933807195" fill="#ceff1d" stroke="none" /><path d="M 79.58551787078972 104.9243191809786 l -20.142685676068325 4.8587572686529485 a41.720408018197325,41.720408018197325 0 0,0 -0.16239059716922752,-0.6995744424482444 l 20.22333683916811 -4.5113141688561305" fill="#fbff18" stroke="none" /><path d="M 79.35854240842038 103.8639653848113 l -7.340277217329783 1.3740588307218844 a28.46777793574069,28.46777793574069 0 0,0 -0.0860181804152711,-0.4824356369343263 l 7.3628418400842435 -1.2475044430543445" fill="#ff5607" stroke="none" /><path d="M 79.29508885075956 103.50808413554451 l -7.359751115502682 1.2469807739695673 a28.464643161785613,28.464643161785613 0 0,0 -0.07769254327454443,-0.4837915411339199 l 7.380125413138517 -1.1201100031424338" fill="#ff5607" stroke="none" /><path d="M 79.23777060512086 103.15116336523772 l -4.620289688911618 0.7012391264723639 a25.673201592266135,25.673201592266135 0 0,0 -0.06255208204335515,-0.4374891161215441 l 4.631675821971572 -0.6216045383704192" fill="#ff2e04" stroke="none" /><path d="M 79.18660465613746 102.79330883721812 l -14.812012284945572 1.987879638519546 a35.944810918396364,35.944810918396364 0 0,0 -0.07702201151120244,-0.6139412143773754 l 14.844035805703623 -1.732620669854762" fill="#ffba11" stroke="none" /><path d="M 79.1416061653843 102.43462659150553 l -18.355920340582117 2.1425337025985773 a39.48053738982087,39.48053738982087 0 0,0 -0.07297826652259592,-0.6756881119936669 l 18.390080908605764 -1.8262492687201284" fill="#ffe715" stroke="none" /><path d="M 79.07016306316243 101.71520430193888 l -22.323423676867122 1.8294090126032354 a43.398258458913844,43.398258458913844 0 0,0 -0.054606254117101065,-0.7450589525569111 l 22.351606489648557 -1.4448769235495638" fill="#e7ff1a" stroke="none" /><path d="M 79.04373962182676 101.35467743843564 l -8.660322075674278 0.5598299846341547 a29.67839778220074,29.67839778220074 0 0,0 -0.028567081856650724,-0.5100844368306604 l 8.668675508418461 -0.4106738314680567" fill="#ff6609" stroke="none" /><path d="M 79.0235259727143 100.99374915477108 l -3.0820565691213777 0.14601076932839205 a24.085513221495592,24.085513221495592 0 0,0 -0.016054562585006687,-0.4142969234737818 l 3.0841132645575855 -0.09293659884061352" fill="#ff1702" stroke="none" /><path d="M 79.0095281055655 100.63252640178507 l -7.500348601005358 0.22601533384228167 a28.503753198748935,28.503753198748935 0 0,0 -0.010557162172470831,-0.4905498425825027 l 7.503127825862837 -0.09687567546965009" fill="#ff5608" stroke="none" /><line stroke="#e1ed5e" stroke-width="0.3" x1="15.007084014347285" x2="10.007500721073583" y1="101.09737516637583" y2="101.16192664675087" /><path d="M 14.007167355692545 101.11028546245083 a86.0,86.0 0 0,1 10.666146001902534,-42.60595125391555" fill="none" id="id10" stroke="none" /><text fill="#e1ed5e" style="font-size:6.75px; font-family:Arial;" text-anchor="middle"><textPath startOffset="22.20632615414155" xlink:href="#id10">October</textPath></text><path d="M 79.00175016825051 100.2711162175752 l -14.929385459350419 0.19275885128013592 a35.930629798123405,35.930629798123405 0 0,0 -0.0026617799127049706,-0.6185039101997238 l 14.930491536552626 0.06425453712326323" fill="#ffba11" stroke="none" /><path d="M 79.00019446554 99.90962569577889 l -21.873055906770134 -0.09413240544157483 a42.873258458913845,42.873258458913845 0 0,0 0.00952805676514726,-0.7379584967475963 l 21.86819484288727 0.470627160249643" fill="#edff1a" stroke="none" /><path d="M 79.00486145842228 99.54816195383935 l -9.155450413066303 -0.19703517641325907 a30.157570372476542,30.157570372476542 0 0,0 0.015636420985281452,-0.5188966884146335 l 9.150702297625378 0.35460201225288707" fill="#ff6d0a" stroke="none" /><path d="M 79.03285615573316 98.82574320788736 l -17.938771682114034 -1.0046539789271398 a38.96688228603924,38.96688228603924 0 0,0 0.04327069834814458,-0.6693785513813587 l 17.91882039276148 1.3132915945615102" fill="#ffe115" stroke="none" /><path d="M 79.08570108090925 98.10471618934814 l -7.438342565523081 -0.6740732881870549 a28.46882286039238,28.46882286039238 0 0,0 0.048428008619842484,-0.48766343785353483 l 7.42563743122101 0.80201225674502" fill="#ff5607" stroke="none" /><path d="M 79.12142395522702 97.74499172005258 l -30.732379403407503 -3.319276653185335 a51.91111032129656,51.91111032129656 0 0,0 0.10359887184558529,-0.8875718672081157 l 30.670690178558328 3.847792258718312" fill="#86ff25" stroke="none" /><path d="M 79.26566170972629 96.67025291283419 l -7.384949917347564 -1.1859561241792025 a28.479570656809784,28.479570656809784 0 0,0 0.0818965836508582,-0.4833582726071684 l 7.363441472176483 1.3129001851021989" fill="#ff5607" stroke="none" /><path d="M 79.32604984820605 96.31383870115002 l -7.343602239375141 -1.3093628537448996 a28.459418538527153,28.459418538527153 0 0,0 0.09014083914459035,-0.481535967114608 l 7.319975676320689 1.4355768983220802" fill="#ff5607" stroke="none" /><path d="M 79.46518482838121 95.60439243477599 l -51.10757582036214 -10.939901091816546 a73.26533977822008,73.26533977822008 0 0,0 0.2745901656547053,-1.2309338709093236 l 50.9116912677054 11.818013132275828" fill="#40ffc3" stroke="none" /><path d="M 79.81627453868168 94.20196356495316 l -7.208780820329391 -2.0708156147208467 a28.500319874893375,28.500319874893375 0 0,0 0.139507848265193,-0.4703511112838854 l 7.1720670749524915 2.1945961127512716" fill="#ff5608" stroke="none" /><path d="M 80.14247586403 93.16781622104843 l -13.861449585416477 -4.7691731538017 a35.65894938868354,35.65894938868354 0 0,0 0.20469411858879646,-0.5786978376569856 l 13.77730238601787 5.007068617885297" fill="#ffb710" stroke="none" /><path d="M 81.26839172434947 90.50648371742162 l -6.666577787498367 -3.3787416351729758 a28.473898208700597,28.473898208700597 0 0,0 0.22533777540215078,-0.43528085850359344 l 6.6074305789361025 3.4929952159369044" fill="#ff5607" stroke="none" /><line stroke="#e1ed5e" stroke-width="0.3" x1="26.266209847984243" x2="21.928928074336255" y1="57.711370442889674" y2="55.22380399835377" /><path d="M 25.398753493254645 57.213857153982495 a86.0,86.0 0 0,1 29.58750427330803,-30.492523968695096" fill="none" id="id11" stroke="none" /><text fill="#e1ed5e" style="font-size:6.75px; font-family:Arial;" text-anchor="middle"><textPath startOffset="21.46611528233685" xlink:href="#id11">November</textPath></text><path d="M 81.78341655067845 89.55222093294921 l -7.816374941366193 -4.4829349433067 a30.010683821438725,30.010683821438725 0 0,0 0.2608647616254084,-0.44590243817270775 l 7.73805050527046 4.6168167938333" fill="#ff6b09" stroke="none" /><path d="M 81.96595687620814 89.24020034530311 l -6.470103956099111 -3.8603114029845154 a28.534205288598237,28.534205288598237 0 0,0 0.2552917324850232,-0.4196324837640127 l 6.402696425327871 3.9711116599556022" fill="#ff5708" stroke="none" /><path d="M 82.54541684631803 88.32363383020206 l -52.36374946104589 -35.02909850939381 a84.0,84.0 0 0,0 0.8143021373250385,-1.194887906918337 l 51.75302285805211 35.92526443958256" fill="#4dd2ff" stroke="none" /><path d="M 86.65592168130627 83.78471172551755 l -1.0986953310024847 -1.335098692659442 a22.729051748649418,22.729051748649418 0 0,0 0.30424091430461664,-0.24600832749695137 l 1.0755510181333676 1.3538131174205277" fill="#ff0300" stroke="none" /><path d="M 86.93701828274178 83.55741782278169 l -1.7501498394006463 -2.2029413482812803 a23.813534262155244,23.813534262155244 0 0,0 0.3231467624433263,-0.252221173756027 l 1.7119705217978944 2.232740911260529" fill="#ff1302" stroke="none" /><path d="M 88.09926311788651 82.69761687909137 l -2.4105167575762287 -3.504630416763516 a25.253589707136765,25.253589707136765 0 0,0 0.3602789012210242,-0.24326192235480007 l 2.349833161948665 3.545604251416981" fill="#ff2803" stroke="none" /><line stroke="#e1ed5e" stroke-width="0.3" x1="56.762969772571076" x2="54.21961505331055" y1="26.818313649435495" y2="22.513508569990535" /><path d="M 56.25429882871897 25.957352633546506 a86.0,86.0 0 0,1 42.265352541879196,-11.944610805530505" fill="none" id="id12" stroke="none" /><text fill="#e1ed5e" style="font-size:6.75px; font-family:Arial;" text-anchor="middle"><textPath startOffset="22.20632615414155" xlink:href="#id12">December</textPath></text><path d="M 89.94658935756843 81.56283822128135 l -7.154300868887613 -13.12042322996219 a35.944213818595394,35.944213818595394 0 0,0 0.5457614583192799,-0.2915268701179325 l 6.927394364040027 13.241628826581872" fill="#ffba11" stroke="none" /><path d="M 90.58718382345135 81.22770947309562 l -6.715430113559005 -13.39280431492242 a35.98212965595678,35.98212965595678 0 0,0 0.5560588070244872,-0.27285564167003024 l 6.483900039524092 13.50641511672728" fill="#ffbb11" stroke="none" /><path d="M 91.23893434514133 80.91482961587045 l -4.5840526067873 -9.985934188477454 a31.987830537389822,31.987830537389822 0 0,0 0.502388500127892,-0.22540707573410615 l 4.411481988192634 10.06336159472809" fill="#ff860c" stroke="none" /><path d="M 91.56875222667455 80.76684994638697 l -4.200580929660273 -9.582259412195642 a31.462531987489335,31.462531987489335 0 0,0 0.4978814476421276,-0.21316685250790104 l 4.035015724227837 9.65314579266633" fill="#ff7f0b" stroke="none" /><path d="M 91.90106846888425 80.62456947434976 l -3.5501045763277252 -8.493071501242165 a30.205189081603642,30.205189081603642 0 0,0 0.4814363813212224,-0.19638998808855515 l 3.403384325418122 8.552922375514298" fill="#ff6e0a" stroke="none" /><path d="M 94.98787191387505 79.60689891045804 l -3.566349313485267 -14.510587283644794 a35.94242251919249,35.94242251919249 0 0,0 0.6020806131160155,-0.1424930286801328 l 3.3160450134067174 14.569826224465798" fill="#ffba11" stroke="none" /><path d="M 95.33964822691252 79.52364482259891 l -2.423296790966182 -10.647326255203774 a31.91961188512937,31.91961188512937 0 0,0 0.5367925323537707,-0.11732205635955646 l 2.2396615344588904 10.6874618096592" fill="#ff850c" stroke="none" /><path d="M 96.04723909329186 79.375362276772 l -2.8168338528526062 -14.697619995941535 a35.965112311629234,35.965112311629234 0 0,0 0.6090175908617979,-0.11129407198752081 l 2.563421140887915 14.743929549279791" fill="#ffbb11" stroke="none" /><path d="M 97.83486435360386 79.11191278185805 l -1.452447727874206 -14.01244992207641 a35.08752487915837,35.08752487915837 0 0,0 0.6012913598383471,-0.05709985985977586 l 1.2110312409456225 14.035375326451367" fill="#ffaf10" stroke="none" /><path d="M 98.91598698831166 79.02799685794201 l -1.0022111768000563 -19.389412970348523 a40.415297128234286,40.415297128234286 0 0,0 0.6950645271224397,-0.029930940644967607 l 0.6683058172882925 19.40379163751768" fill="#fff316" stroke="none" /><path d="M 99.27714615592234 79.0124445844662 l -0.13657046006354978 -3.965227718150932 a24.9675789024737,24.9675789024737 0 0,0 0.4296484761440129,-0.011096552552324912 l 0.06829534872465787 3.9669910628456164" fill="#ff2403" stroke="none" /></svg>