<?xml version="1.0" encoding="utf-8" ?>
<svg baseProfile="full" height="200mm" version="1.1" viewBox="0,0,200,200" width="200mm" xmlns="http://www.w3.org/2000/svg" xmlns:ev="http://www.w3.org/2001/xml-events" xmlns:xlink="http://www.w3.org/1999/xlink"><defs /><rect fill="#1a1a1a" height="200" width="200" x="0" y="0" /><rect fill="#1a1a1a" height="200" width="180" x="10" y="0" /><text alignment-baseline="middle" fill="#e1ed5e" style="dominant-baseline: central; font-size:9.0px; font-family:Arial;" text-anchor="middle" x="100.0" y="100.0">2026</text><line stroke="#e1ed5e" stroke-width="0.3" x1="100.0" x2="100.0" y1="15.0" y2="10.0" /><path d="M 100.0 14.0 a86.0,86.0 0 0,1 42.46469731375804,11.215312516191453" fill="none" id="id37" stroke="none" /><text fill="#e1ed5e" style="font-size:6.75px; font-family:Arial;" text-anchor="middle"><textPath startOffset="22.20632615414155" xlink:href="#id37">January</textPath></text><path d="M 100.0 79.0 l 0.0 -46.355688285641406 a67.3556882856414,67.3556882856414 0 0,0 1.1594174515821276,0.009979472046920347 l -0.7979369723095993 46.34882019020304" fill="red" stroke="none" /><path d="M 100.36148047927253 79.00311137660856 l 0.6923078870538912 -40.21326857488965 a61.21922748744293,61.21922748744293 0 0,0 1.0534761060908615,0.027208179763070234 l -1.3844106283396205 40.195393602984225" fill="red" stroke="none" /><path d="M 100.72285384407766 79.0124445844662 l 1.3375603444472888 -38.835128402100594 a59.85815571643459,59.85815571643459 0 0,0 1.029443890155109,0.044330019402825 l -2.0058450669917294 38.80635065617357" fill="red" stroke="none" /><path d="M 101.08401301168833 79.027996857942 l 2.575347385849531 -49.82430366200807 a70.89081728696968,70.89081728696968 0 0,0 1.2180998698055028,0.0734791106331215 l -3.4326093044946457 49.77259128199464" fill="red" stroke="none" /><path d="M 101.44485096284872 79.0497635885617 l 2.6709045072595186 -38.7279257849115 a59.81991713654876,59.81991713654876 0 0,0 1.0266516670259038,0.07968792846679665 l -3.3371463636477636 38.676212594256235" fill="red" stroke="none" /><path d="M 101.80526077348638 79.07773832637324 l 3.359489604015946 -38.93516195408588 a60.07982864330891,60.07982864330891 0 0,0 1.029581937973843,0.09777121092888005 l -4.029196669080033 38.87156519864182" fill="red" stroke="none" /><path d="M 102.16513564639614 79.11191278185805 l 4.003599231436483 -38.62461461568439 a59.83155496520966,59.83155496520966 0 0,0 1.0234993678233968,0.11500207945438225 l -4.667865302769605 38.549976582759406" fill="red" stroke="none" /><path d="M 102.88285421437855 79.19881850522331 l 5.3326501215734865 -38.477638749035584 a59.84540952313931,59.84540952313931 0 0,0 1.019170229734521,0.15019919902452944 l -5.9941893317366635 38.38014506585009" fill="red" stroke="none" /><path d="M 103.2404852339499 79.25152402106235 l 6.418259306714652 -41.095419184996246 a62.593599634063736,62.593599634063736 0 0,0 1.063109946290806,0.17542225021550442 l -7.124698459144333 40.978850671841116" fill="red" stroke="none" /><path d="M 103.59715602781102 79.31037775812273 l 9.510989261313044 -54.70398654985886 a76.52463472348063,76.52463472348063 0 0,0 1.2958349268327656,0.23680555011028329 l -10.451219309248712 54.53216551839784" fill="red" stroke="none" /><path d="M 103.95276090670814 79.375362276772 l 5.227070021423395 -27.273702632215294 a48.77007591418091,48.77007591418091 0 0,0 0.8231311008011433,0.16511235520535666 l -5.695767531691663 27.179686320932728" fill="red" stroke="none" /><path d="M 104.307194497241 79.44645832069477 l 8.150028408648087 -38.89119673884491 a60.735980506856905,60.735980506856905 0 0,0 1.0213977819840958,0.22323799404960382 l -8.81826891478571 38.74514524669944" fill="red" stroke="none" /><path d="M 104.66035177308747 79.52364482259891 l 8.776331037181992 -38.56088128573427 a60.547004336696546,60.547004336696546 0 0,0 1.014238188144153,0.240037410412121 l -9.438792912288667 38.40409796318128" fill="red" stroke="none" /><path d="M 105.01212808612495 79.60689891045804 l 9.276367530129079 -37.743229529459974 a59.866468451192375,59.866468451192375 0 0,0 0.9986043697271936,0.25456648869726084 l -9.924680788541297 37.577960044593844" fill="red" stroke="none" /><path d="M 105.36241919743992 79.69619591428918 l 9.921850542925526 -37.56724384535964 a59.855384804848654,59.855384804848654 0 0,0 0.9938904296560833,0.2716677988534965 l -10.56703886180532 37.39088950567985" fill="red" stroke="none" /><path d="M 105.71112130821622 79.79150937346287 l 11.485793855908627 -40.6418538407764 a63.23368021041335,63.23368021041335 0 0,0 1.0448907429696177,0.30503226066358 l -12.183674816601672 40.43812325119412" fill="red" stroke="none" /><path d="M 106.0581310904928 79.89281104454417 l 17.640900864243 -58.55088338686721 a82.15069360755095,82.15069360755095 0 0,0 1.350458146442223,0.419593919793014 l -18.646144383395942 58.23854933219168" fill="red" stroke="none" /><path d="M 106.40334571778207 80.00007090966166 l 11.841241223103088 -36.98441334285506 a59.8337716944784,59.8337716944784 0 0,0 0.9781886491780881,0.3224934181724352 l -12.476112694523593 36.775106200423394" fill="red" stroke="none" /><path d="M 106.74666289553966 80.11325718540242 l 12.503887241150672 -36.856975603729424 a59.920224135959394,59.920224135959394 0 0,0 0.9738976580078629,0.3397737698971498 l -13.136466903221807 36.63628098066006" fill="red" stroke="none" /><path d="M 107.08798089147638 80.2323363322302 l 13.108596569054358 -36.558553430238334 a59.83765097069871,59.83765097069871 0 0,0 0.9665708949291786,0.3559962178297523 l -13.735949789756113 36.32749394460225" fill="red" stroke="none" /><path d="M 107.76421540070413 80.48803036053334 l 14.351241854737001 -36.06558820262463 a59.81603786032846,59.81603786032846 0 0,0 0.9533996537696977,0.38891565721231985 l -14.969925378095086 35.813211659228735" fill="red" stroke="none" /><path d="M 108.09893153111575 80.62456947434976 l 14.988733428026162 -35.85820698526186 a59.86480590424081,59.86480590424081 0 0,0 0.9473355875575931,0.4055996591652995 l -15.60375277337407 35.59488779813377" fill="red" stroke="none" /><path d="M 108.43124777332544 80.76684994638697 l 22.180112686715262 -50.59671438660434 a76.2447726533018,76.2447726533018 0 0,0 1.1974709235473318,0.5372702979560865 l -23.047765728729374 50.20742375813172" fill="red" stroke="none" /><path d="M 108.76106565485865 80.91482961587045 l 16.225708455889205 -35.34620361075851 a59.892515020100106,59.892515020100106 0 0,0 0.9332445664115644,0.438170837373665 l -16.83173123360037 35.06166779074484" fill="red" stroke="none" /><path d="M 109.08828744355905 81.06846463323043 l 16.830771887277567 -35.05966940557581 a59.89029829083137,59.89029829083137 0 0,0 0.9255296486995621,0.4541533790857422 l -17.43177280298756 34.76476086635523" fill="red" stroke="none" /><path d="M 109.41281617654863 81.2277094730956 l 17.402709912284898 -34.70679978248946 a59.82545895972061,59.82545895972061 0 0,0 0.9165816188323536,0.469508705389152 l -17.997552018706006 34.40209855178781" fill="red" stroke="none" /><path d="M 110.05341064243156 81.56283822128135 l 18.604040635090158 -34.11834243389189 a59.860926628020515,59.860926628020515 0 0,0 0.9004107013151453,0.5010775804278965 l -19.18857542547734 33.79304945590381" fill="red" stroke="none" /><path d="M 110.36928655335952 81.73862282372117 l 19.17078871637111 -33.76172523682258 a59.82490477740344,59.82490477740344 0 0,0 0.891115509253447,0.5161916204857937 l -19.749100958089887 33.42672945894673" fill="red" stroke="none" /><line stroke="#e1ed5e" stroke-width="0.3" x1="143.23703022742887" x2="145.7803849466894" y1="26.81831364943548" y2="22.513508569990506" /><path d="M 143.74570117128098 25.957352633546492 a86.0,86.0 0 0,1 28.547481713284135,27.462654790039103" fill="none" id="id38" stroke="none" /><text fill="#e1ed5e" style="font-size:6.75px; font-family:Arial;" text-anchor="middle"><textPath startOffset="19.985693538727396" xlink:href="#id38">February</textPath></text><path d="M 110.68208982089419 81.91981866633111 l 19.747973372320484 -33.42482094146356 a59.82268804813469,59.82268804813469 0 0,0 0.8820654057395836,0.5314345374609114 l -20.320400844277707 33.07993979454403" fill="red" stroke="none" /><path d="M 110.99172775467656 82.1063720568725 l 21.109384917941384 -34.36434091712318 a61.33006395088009,61.33006395088009 0 0,0 0.8947789037301878,0.5603104674286692 l -21.697782974043836 33.99588610837157" fill="red" stroke="none" /><path d="M 111.2981086023043 82.29822771554956 l 20.910361026171664 -32.762160667799265 a59.866468451192375,59.866468451192375 0 0,0 0.8638816185979231,0.561892635166652 l -21.47120967055387 32.397369108473086" fill="red" stroke="none" /><path d="M 112.19680574252982 82.90503203632743 l 22.5887833589802 -31.660299918822176 a59.892515020100106,59.892515020100106 0 0,0 0.8340879301418731,0.6060003533440317 l -23.13041660547586 31.26678033066147" fill="red" stroke="none" /><path d="M 112.48926042617603 83.11751280151076 l 27.412740671519572 -37.055456261643 a67.09300586729532,67.09300586729532 0 0,0 0.922541119052043,0.6948388445868371 l -28.04652794433 36.578100827550315" fill="red" stroke="none" /><path d="M 112.77801427241765 83.33499621200491 l 23.65744004653385 -30.85388070357505 a59.87976882680483,59.87976882680483 0 0,0 0.8125611771532651,0.6342168873999477 l -24.185033778846545 30.44208542695188" fill="red" stroke="none" /><path d="M 113.06298171725822 83.55741782278167 l 34.49410393800965 -43.4182754677603 a76.45259102224647,76.45259102224647 0 0,0 1.0233601670139227,0.8274860851293221 l -35.23636750358807 42.81808328536685" fill="red" stroke="none" /><path d="M 113.34407831869373 83.78471172551755 l 35.25150975341972 -42.83648365295166 a76.47642086188546,76.47642086188546 0 0,0 1.0092792210578132,0.8452423223193706 l -35.983646511436646 42.22334017323847" fill="red" stroke="none" /><path d="M 113.6212207817346 84.01681056812373 l 35.98256813433726 -42.22207480167341 a76.4747583149339,76.4747583149339 0 0,0 0.9945586067999229,0.862471423273639 l -36.70402053978394 41.5964383849801" fill="red" stroke="none" /><path d="M 113.89432698308785 84.25364557470407 l 25.678367729337566 -29.101134572505305 a59.810496037156604,59.810496037156604 0 0,0 0.7661126790680336,0.6878235275701584 l -26.17549139600159 28.65481203616585" fill="red" stroke="none" /><path d="M 114.42810811169701 84.74124197986012 l 36.89187070377319 -39.01579636229607 a74.69583307676746,74.69583307676746 0 0,0 0.9266436261346523,0.8914304341627528 l -37.55799757352026 38.37498284137102" fill="red" stroke="none" /><path d="M 114.68862486808459 84.99185889309783 l 27.16609362945362 -27.75702764389015 a59.83875933533308,59.83875933533308 0 0,0 0.7299308525769408,0.7267962975247143 l -27.639860282197883 27.285295495715317" fill="red" stroke="none" /><path d="M 114.94478906791727 85.2469230424477 l 19.733179361896195 -19.480041666711127 a48.72851224039197,48.72851224039197 0 0,0 0.5841289479755779,0.6019962272729615 l -20.06557257357488 19.13748124388805" fill="red" stroke="none" /><path d="M 115.4437574822437 85.77008943001954 l 32.62478654621989 -30.06054682295906 a65.36229449072404,65.36229449072404 0 0,0 0.7552655439096022,0.8339830774503056 l -33.137395730745524 29.494510958239207" fill="red" stroke="none" /><path d="M 115.68641384162765 86.03803664274999 l 41.40415141772852 -36.85247952583492 a76.42931536492466,76.42931536492466 0 0,0 0.866228519906031,0.9902489409930963 l -42.0323718012124 36.13431502863888" fill="red" stroke="none" /><path d="M 115.9244219780498 86.31012108654704 l 33.645648705463586 -28.924431755028138 a65.36949886084746,65.36949886084746 0 0,0 0.7261909659953187,0.8595810513168256 l -34.13855028494602 28.340991754082207" fill="red" stroke="none" /><path d="M 116.15771136456269 86.58626213691792 l 34.171382784002276 -28.368248493962852 a65.41217089927076,65.41217089927076 0 0,0 0.7117514136685246,0.8725230747231452 l -34.65463268974721 27.775841249631608" fill="red" stroke="none" /><path d="M 116.38621287248628 86.86637796730983 l 30.291452706723135 -24.27873321108927 a59.82047131886595,59.82047131886595 0 0,0 0.637076395590961,0.8090223262796213 l -30.70488318290806 23.753718490856613" fill="red" stroke="none" /><path d="M 116.60985879189232 87.15038557335679 l 30.7158413853288 -23.762195906449353 a59.834325876795596,59.834325876795596 0 0,0 0.6232003176060054,0.8200585672493903 l -31.12031764315892 23.22995256331893" fill="red" stroke="none" /><path d="M 116.82858285166822 87.43820079747576 l 31.115876641711445 -23.22663755046651 a59.828784053623735,59.828784053623735 0 0,0 0.6089356190527594,0.8305875000523509 l -31.51107487327783 22.687587606742664" fill="red" stroke="none" /><path d="M 117.2510076193507 88.02491185347247 l 31.930168781221646 -22.16488416941656 a59.8692393627783,59.8692393627783 0 0,0 0.5803767806325759,0.8516313108450632 l -32.30697002752296 21.61197483530109" fill="red" stroke="none" /><path d="M 117.65298651832404 88.62581576622439 l 52.95895955497212 -34.12255270132683 a84.0,84.0 0 0,0 0.7726896150161773,1.2222094091431752 l -53.538476766234254 33.20589564446945" fill="red" stroke="none" /><line stroke="#e1ed5e" stroke-width="0.3" x1="172.23445277983987" x2="176.4835382374775" y1="55.19839476539836" y2="52.563006222186495" /><path d="M 173.08426987136738 54.67131705675599 a86.0,86.0 0 0,1 12.851231095245387,41.99856678651699" fill="none" id="id39" stroke="none" /><text fill="#e1ed5e" style="font-size:6.75px; font-family:Arial;" text-anchor="middle"><textPath startOffset="22.20632615414155" xlink:href="#id39">March</textPath></text><line stroke="#e1ed5e" stroke-width="0.3" x1="184.98032266829074" x2="189.97916517819016" y1="98.17113171792111" y2="98.06355123074" /><path d="M 185.9800911702706 98.14961562048488 a86.0,86.0 0 0,1 -9.607161424134198,41.387399972396054" fill="none" id="id40" stroke="none" /><text fill="#e1ed5e" style="font-size:6.75px; font-family:Arial;" text-anchor="middle"><textPath startOffset="21.466115282336823" xlink:href="#id40">April</textPath></text><line stroke="#e1ed5e" stroke-width="0.3" x1="174.80103733775053" x2="179.2010983576182" y1="140.37084112569926" y2="142.7455964860345" /><path d="M 175.68104954172406 140.8457921977663 a86.0,86.0 0 0,1 -30.038265399797805,32.042727171017184" fill="none" id="id41" stroke="none" /><text fill="#e1ed5e" style="font-size:6.75px; font-family:Arial;" text-anchor="middle"><textPath startOffset="22.206326154141568" xlink:href="#id41">May</textPath></text><line stroke="#e1ed5e" stroke-width="0.3" x1="143.8653032363475" x2="146.44561519142675" y1="172.8068346515853" y2="177.08958963109032" /><path d="M 144.38136562736335 173.6633856474863 a86.0,86.0 0 0,1 -40.68145358897372,12.25698825130547" fill="none" id="id42" stroke="none" /><text fill="#e1ed5e" style="font-size:6.75px; font-family:Arial;" text-anchor="middle"><textPath startOffset="21.466115282336833" xlink:href="#id42">June</textPath></text><line stroke="#e1ed5e" stroke-width="0.3" x1="102.19456741930631" x2="102.32365962044197" y1="184.97166512339345" y2="189.96999836594603" /><path d="M 102.22038585953345 185.97133177190398 a86.0,86.0 0 0,1 -42.740103519485714,-10.115201625700543" fill="none" id="id43" stroke="none" /><text fill="#e1ed5e" style="font-size:6.75px; font-family:Arial;" text-anchor="middle"><textPath startOffset="22.20632615414155" xlink:href="#id43">July</textPath></text><line stroke="#e1ed5e" stroke-width="0.3" x1="58.666819895761336" x2="56.23545636021788" y1="174.27360380694188" y2="178.64263932499728" /><path d="M 58.180547188652646 175.14741091055294 a86.0,86.0 0 0,1 -31.652253787137756,-30.449443065178592" fill="none" id="id44" stroke="none" /><text fill="#e1ed5e" style="font-size:6.75px; font-family:Arial;" text-anchor="middle"><textPath startOffset="22.20632615414155" xlink:href="#id44">August</textPath></text><line stroke="#e1ed5e" stroke-width="0.3" x1="26.63291911575756" x2="22.317208475507996" y1="142.92168965132927" y2="145.44649492493687" /><path d="M 25.769776987707644 143.4266507060508 a86.0,86.0 0 0,1 -11.730757126820373,-40.83630448921669" fill="none" id="id45" stroke="none" /><text fill="#e1ed5e" style="font-size:6.75px; font-family:Arial;" text-anchor="middle"><textPath startOffset="21.46611528233685" xlink:href="#id45">September</textPath></text><line stroke="#e1ed5e" stroke-width="0.3" x1="15.007084014347285" x2="10.007500721073583" y1="101.09737516637583" y2="101.16192664675087" /><path d="M 14.007167355692545 101.11028546245083 a86.0,86.0 0 0,1 10.666146001902534,-42.60595125391555" fill="none" id="id46" stroke="none" /><text fill="#e1ed5e" style="font-size:6.75px; font-family:Arial;" text-anchor="middle"><textPath startOffset="22.20632615414155" xlink:href="#id46">October</textPath></text><line stroke="#e1ed5e" stroke-width="0.3" x1="26.266209847984243" x2="21.928928074336255" y1="57.711370442889674" y2="55.22380399835377" /><path d="M 25.398753493254645 57.213857153982495 a86.0,86.0 0 0,1 29.58750427330803,-30.492523968695096" fill="none" id="id47" stroke="none" /><text fill="#e1ed5e" style="font-size:6.75px; font-family:Arial;" text-anchor="middle"><textPath startOffset="21.46611528233685" xlink:href="#id47">November</textPath></text><line stroke="#e1ed5e" stroke-width="0.3" x1="56.762969772571076" x2="54.21961505331055" y1="26.818313649435495" y2="22.513508569990535" /><path d="M 56.25429882871897 25.957352633546506 a86.0,86.0 0 0,1 42.265352541879196,-11.944610805530505" fill="none" id="id48" stroke="none" /><text fill="#e1ed5e" style="font-size:6.75px; font-family:Arial;" text-anchor="middle"><textPath startOffset="22.20632615414155" xlink:href="#id48">December</textPath></text></svg>