<?xml version="1.0" encoding="utf-8" ?>
<svg baseProfile="full" height="200mm" version="1.1" viewBox="0,0,200,200" width="200mm" xmlns="http://www.w3.org/2000/svg" xmlns:ev="http://www.w3.org/2001/xml-events" xmlns:xlink="http://www.w3.org/1999/xlink"><defs /><rect fill="#1a1a1a" height="200" width="200" x="0" y="0" /><rect fill="#1a1a1a" height="200" width="180" x="10" y="0" /><text alignment-baseline="middle" fill="#e1ed5e" style="dominant-baseline: central; font-size:9.0px; font-family:Arial;" text-anchor="middle" x="100.0" y="100.0">2026</text><line stroke="#e1ed5e" stroke-width="0.3" x1="100.0" x2="100.0" y1="15.0" y2="10.0" /><path d="M 100.0 14.0 a86.0,86.0 0 0,1 42.46469731375804,11.215312516191453" fill="none" id="id37" stroke="none" /><text fill="#e1ed5e" style="font-size:6.75px; font-family:Arial;" text-anchor="middle"><textPath startOffset="22.20632615414155" xlink:href="#id37">January</textPath></text><path d="M 100.0 79.0 l 0.0 -11.193324058241913 a32.19332405824191,32.19332405824191 0 0,0 0.5541551528547193,0.004769788353646161 l -0.1926746735821909 11.191665646496826" fill="#ff4e07" stroke="none" /><path d="M 100.36148047927253 79.00311137660856 l 0.1671688376218384 -9.710138350793935 a30.711577225756432,30.711577225756432 0 0,0 0.5284926666925842,0.013649406375426599 l -0.3342881395092905 9.705822152276149" fill="#ff3705" stroke="none" /><path d="M 100.72285384407766 79.0124445844662 l 0.3229753874130189 -9.37736431329814 a30.382924627491796,30.382924627491796 0 0,0 0.5225272270496484,0.022501121561977633 l -0.4843434468519988 9.370415465211966" fill="#ff3204" stroke="none" /><path d="M 101.08401301168833 79.027996857942 l 0.6218589113536902 -12.030876845762466 a33.046937626780235,33.046937626780235 0 0,0 0.567837584065358,0.03425351376800088 l -0.82885854425866 12.018390062614161" fill="#ff5b08" stroke="none" /><path d="M 101.44485096284872 79.0497635885617 l 0.6449327101812238 -9.351478522827394 a30.373691309380938,30.373691309380938 0 0,0 0.5212845872943185,0.04046171670230692 l -0.8058074868378834 9.338991543936622" fill="#ff3204" stroke="none" /><path d="M 101.80526077348638 79.07773832637324 l 0.8112026204061998 -9.401519018049123 a30.436451109293856,30.436451109293856 0 0,0 0.521586379751482,0.049530911597643695 l -0.972914127247926 9.386162561936302" fill="#ff3304" stroke="none" /><path d="M 102.16513564639614 79.11191278185805 l 0.9667332155798829 -9.326532384850346 a30.37650144967555,30.37650144967555 0 0,0 0.5196309881718361,0.05838659609119359 l -1.1271309072614442 9.308509835288552" fill="#ff3204" stroke="none" /><path d="M 102.88285421437855 79.19881850522331 l 1.2876538588357895 -9.29104270569805 a30.379846854788177,30.379846854788177 0 0,0 0.5173702669094853,0.0762469285520179 l -1.4473931061739305 9.267501292985063" fill="#ff3204" stroke="none" /><path d="M 103.2404852339499 79.25152402106235 l 1.5497915998399052 -9.923147757239473 a31.04344141292919,31.04344141292919 0 0,0 0.5272518520443226,0.08700107325550957 l -1.720372658023103 9.895000421044339" fill="#ff3d05" stroke="none" /><path d="M 103.59715602781102 79.31037775812273 l 2.296580826506925 -13.209154504560377 a34.40731316177954,34.40731316177954 0 0,0 0.5826384966699609,0.10647346113488772 l -2.523614444279787 13.16766556207475" fill="#ff6f0a" stroke="none" /><path d="M 103.95276090670814 79.375362276772 l 1.2621598511144612 -6.585672721530318 a27.70553000775284,27.70553000775284 0 0,0 0.4676081180125782,0.09379778944454376 l -1.3753343785941647 6.5629709760085655" fill="#ff0801" stroke="none" /><path d="M 104.307194497241 79.44645832069477 l 1.9679550112544169 -9.390902912028864 a30.594889495427946,30.594889495427946 0 0,0 0.514514658525199,0.11245297601407045 l -2.129312393933144 9.355636437918921" fill="#ff3605" stroke="none" /><path d="M 104.66035177308747 79.52364482259891 l 2.119185821085368 -9.311142950633624 a30.54925816969169,30.54925816969169 0 0,0 0.5117383526173405,0.12111193446146658 l -2.279147860665232 9.273285104031288" fill="#ff3505" stroke="none" /><path d="M 105.01212808612495 79.60689891045804 l 2.2399276483238006 -9.113707826418164 a30.384931870559374,30.384931870559374 0 0,0 0.5068367405794306,0.12920397036447762 l -2.3964732775882567 9.073800859884818" fill="#ff3204" stroke="none" /><path d="M 105.36241919743992 79.69619591428918 l 2.3957898694130497 -9.071213261789802 a30.38225554646927,30.38225554646927 0 0,0 0.5044931732951644,0.13789704160159585 l -2.551580931931925 9.028629679361913" fill="#ff3204" stroke="none" /><path d="M 105.71112130821622 79.79150937346287 l 2.7734290536933246 -9.813627133833839 a31.197999129132636,31.197999129132636 0 0,0 0.5155243278697631,0.15049568791304616 l -2.941943599286515 9.764433117002088" fill="#ff3f05" stroke="none" /><path d="M 106.0581310904928 79.89281104454417 l 4.259678312530951 -14.138049414931029 a35.765815269915784,35.765815269915784 0 0,0 0.5879467899095847,0.1826779296032311 l -4.502410475151255 14.062631350445278" fill="#ff830c" stroke="none" /><path d="M 106.40334571778207 80.00007090966166 l 2.859257518630365 -8.930479493684317 a30.37703671449357,30.37703671449357 0 0,0 0.4966170720694476,0.16372684065495116 l -3.01255741294223 8.87993892877013" fill="#ff3204" stroke="none" /><path d="M 106.74666289553966 80.11325718540242 l 3.0192640224752796 -8.899707608635529 a30.39791204239637,30.39791204239637 0 0,0 0.4940644961415052,0.17236940149308763 l -3.1720105226800586 8.846417353970233" fill="#ff3304" stroke="none" /><path d="M 107.08798089147638 80.2323363322302 l 3.1652807837098282 -8.82764879088122 a30.377973427925106,30.377973427925106 0 0,0 0.49070216637920133,0.18072974908339348 l -3.3167652758616057 8.771855773991502" fill="#ff3204" stroke="none" /><path d="M 107.76421540070413 80.48803036053334 l 3.4653374086138484 -8.708614434016017 a30.372754595949402,30.372754595949402 0 0,0 0.4841071851570335,0.19747947603307384 l -3.6147284633592696 8.647674071799363" fill="#ff3204" stroke="none" /><path d="M 108.09893153111575 80.62456947434976 l 3.6192699685243945 -8.658538914583957 a30.384530421945858,30.384530421945858 0 0,0 0.48082252243461404,0.205863111003019 l -3.767776248749324 8.594956275618147" fill="#ff3204" stroke="none" /><path d="M 108.43124777332544 80.76684994638697 l 5.3557437745483245 -12.217387797626502 a34.33973597850445,34.33973597850445 0 0,0 0.539326617754306,0.24198013239279376 l -5.565252510769411 12.123387334717176" fill="#ff6e0a" stroke="none" /><path d="M 108.76106565485865 80.91482961587045 l 3.917957418778747 -8.534907491954327 a30.391221232171112,30.391221232171112 0 0,0 0.47355570344669845,0.2223407524569581 l -4.064291333525044 8.466201756857364" fill="#ff3204" stroke="none" /><path d="M 109.08828744355905 81.06846463323043 l 4.064059683976254 -8.465719214722464 a30.390685967353093,30.390685967353093 0 0,0 0.4696500386509023,0.23045523429827391 l -4.209180989637588 8.394508820289358" fill="#ff3204" stroke="none" /><path d="M 109.41281617654863 81.2277094730956 l 4.202163288774221 -8.380513187423793 a30.37502947142599,30.37502947142599 0 0,0 0.4653736748387513,0.23838247146400424 l -4.345797451201728 8.306938190647287" fill="#ff3204" stroke="none" /><path d="M 110.05341064243156 81.56283822128135 l 4.492243850163414 -8.238420727125956 a30.383593708514322,30.383593708514322 0 0,0 0.45702120666391166,0.2543318067021052 l -4.63338914589936 8.15987352286367" fill="#ff3204" stroke="none" /><path d="M 110.36928655335952 81.73862282372117 l 4.62909425984937 -8.152309788012248 a30.374895655221486,30.374895655221486 0 0,0 0.45244602914180876,0.26208594344938957 l -4.768737021456507 8.07141968717281" fill="#ff3204" stroke="none" /><line stroke="#e1ed5e" stroke-width="0.3" x1="143.23703022742887" x2="145.7803849466894" y1="26.81831364943548" y2="22.513508569990506" /><path d="M 143.74570117128098 25.957352633546492 a86.0,86.0 0 0,1 28.547481713284135,27.462654790039103" fill="none" id="id38" stroke="none" /><text fill="#e1ed5e" style="font-size:6.75px; font-family:Arial;" text-anchor="middle"><textPath startOffset="19.985693538727396" xlink:href="#id38">February</textPath></text><path d="M 110.68208982089419 81.91981866633111 l 4.768464747796314 -8.070958845031319 a30.374360390403467,30.374360390403467 0 0,0 0.4478597233926363,0.2698304722074155 l -4.906686537406587 7.987681763365289" fill="#ff3204" stroke="none" /><path d="M 110.99172775467656 82.1063720568725 l 5.097199390088032 -8.297821004470057 a30.738340466657462,30.738340466657462 0 0,0 0.4484589908021179,0.2808249788985793 l -5.239277533262412 8.208851684248534" fill="#ff3805" stroke="none" /><path d="M 111.2981086023043 82.29822771554956 l 5.049141880895551 -7.910948898939217 a30.384931870559374,30.384931870559374 0 0,0 0.4384588702894106,0.28518584576317607 l -5.184567776969242 7.822864129016512" fill="#ff3204" stroke="none" /><path d="M 112.19680574252982 82.90503203632743 l 5.454423859710123 -7.644886957320326 a30.391221232171112,30.391221232171112 0 0,0 0.42324071386079154,0.30750237820321125 l -5.585209889924704 7.549865344300439" fill="#ff3204" stroke="none" /><path d="M 112.48926042617603 83.11751280151076 l 6.6192456850200525 -8.947633945304934 a32.129895177306466,32.129895177306466 0 0,0 0.44179194341843925,0.33274853247524944 l -6.772283782196874 8.832368823323838" fill="#ff4d07" stroke="none" /><path d="M 112.77801427241765 83.33499621200491 l 5.712468148408575 -7.4501641102032 a30.388143459467496,30.388143459467496 0 0,0 0.4123634092901487,0.3218561817509766 l -5.839864112858153 7.3507295392289995" fill="#ff3204" stroke="none" /><path d="M 113.06298171725822 83.55741782278167 l 8.329154366076267 -10.484038644102974 a34.38991705519388,34.38991705519388 0 0,0 0.46032803846971626,0.3722199267732327 l -8.508385803110475 10.339112620065611" fill="#ff6f0a" stroke="none" /><path d="M 113.34407831869373 83.78471172551755 l 8.512042142075654 -10.34355568379273 a34.3956711519876,34.3956711519876 0 0,0 0.4539286200479084,0.3801521650018627 l -8.68882829908268 10.195502361397047" fill="#ff6f0a" stroke="none" /><path d="M 113.6212207817346 84.01681056812373 l 8.688567907644718 -10.195196817147666 a34.39526970337408,34.39526970337408 0 0,0 0.44731245015278737,0.3879049488824182 l -8.862774156444269 10.044126874845578" fill="#ff6f0a" stroke="none" /><path d="M 113.89432698308785 84.25364557470407 l 6.200453534635718 -7.026935458823851 a30.37141643390435,30.37141643390435 0 0,0 0.38902749104127854,0.34927272256515957 l -6.320492013272987 6.919163727489394" fill="#ff3204" stroke="none" /><path d="M 114.42810811169701 84.74124197986012 l 8.908133589939656 -9.4209894885506 a33.965719686912564,33.965719686912564 0 0,0 0.4213637676763948,0.4053516106586162 l -9.068980601228468 9.26625479112968" fill="#ff6909" stroke="none" /><path d="M 114.68862486808459 84.99185889309783 l 6.559688802748366 -6.702379293716111 a30.378241060334116,30.378241060334116 0 0,0 0.37056275302593694,0.36897143879998845 l -6.674087355941625 6.588472004266004" fill="#ff3204" stroke="none" /><path d="M 114.94478906791727 85.2469230424477 l 4.764892496818618 -4.703768342300551 a27.695493792414958,27.695493792414958 0 0,0 0.33199740580664533,0.34215251007961855 l -4.845154166328372 4.621051636670818" fill="#ff0801" stroke="none" /><path d="M 115.4437574822437 85.77008943001954 l 7.877777715058197 -7.258600926901963 a31.711987170636903,31.711987170636903 0 0,0 0.3664340645551302,0.4046256463102847 l -8.001555420229362 7.1219224933221295" fill="#ff4706" stroke="none" /><path d="M 115.68641384162765 86.03803664274999 l 9.997696104076711 -8.898621958551896 a34.38429677460466,34.38429677460466 0 0,0 0.3897020189290409,0.4454967744414802 l -10.1493899865836 8.725209627907468" fill="#ff6f0a" stroke="none" /><path d="M 115.9244219780498 86.31012108654704 l 8.124281248708687 -6.984267730845389 a31.71372678129547,31.71372678129547 0 0,0 0.3523083745164572,0.41702199164583165 l -8.243300236712262 6.8433867895704505" fill="#ff4706" stroke="none" /><path d="M 116.15771136456269 86.58626213691792 l 8.251228169942678 -6.849968366363686 a31.724030629042364,31.724030629042364 0 0,0 0.34518994457858915,0.42316205633486875 l -8.367916606597674 6.7069221404207156" fill="#ff4706" stroke="none" /><path d="M 116.38621287248628 86.86637796730983 l 7.314356854157316 -5.862489342855893 a30.373825125585448,30.373825125585448 0 0,0 0.32347533552808155,0.41078082668602744 l -7.4141862702793615 5.735716122216827" fill="#ff3204" stroke="none" /><path d="M 116.60985879189232 87.15038557335679 l 7.416832303923285 -5.737763130111977 a30.377170530698073,30.377170530698073 0 0,0 0.3163913363323192,0.4163339116377585 l -7.5144995804797174 5.6092444425931856" fill="#ff3204" stroke="none" /><path d="M 116.82858285166822 87.43820079747576 l 7.5134272294871405 -5.608443979597453 a30.375832368653022,30.375832368653022 0 0,0 0.3091643358666629,0.42169980667625934 l -7.60885417786743 5.478281729249701" fill="#ff3204" stroke="none" /><path d="M 117.2510076193507 88.02491185347247 l 7.710051120377358 -5.352066604920282 a30.3856009515819,30.3856009515819 0 0,0 0.29456023569975853,0.43223079906538875 l -7.80103582174585 5.218557782584487" fill="#ff3204" stroke="none" /><path d="M 117.65298651832404 88.62581576622439 l 12.787789762356834 -8.23943736369234 a36.21235994434945,36.21235994434945 0 0,0 0.33310612457412636,0.5268938934674205 l -12.927723483176916 8.018095822510714" fill="#ff8a0c" stroke="none" /><line stroke="#e1ed5e" stroke-width="0.3" x1="172.23445277983987" x2="176.4835382374775" y1="55.19839476539836" y2="52.563006222186495" /><path d="M 173.08426987136738 54.67131705675599 a86.0,86.0 0 0,1 12.851231095245387,41.99856678651699" fill="none" id="id39" stroke="none" /><text fill="#e1ed5e" style="font-size:6.75px; font-family:Arial;" text-anchor="middle"><textPath startOffset="22.20632615414155" xlink:href="#id39">March</textPath></text><path d="M 117.84615892207809 88.93136811851018 l 7.963307541567605 -4.9390415114850805 a30.370613536677325,30.370613536677325 0 0,0 0.2717218323760105,0.4466392479809149 l -8.04714517222984 4.801234490297084" fill="#ff3204" stroke="none" /><path d="M 118.03404312379186 89.2402003453031 l 24.441597502092996 -14.58279158799998 a49.46136853619941,49.46136853619941 0 0,0 0.4299378244638548,0.7349031084021663 l -24.68899500102718 14.159909067243918" fill="#c1ff1e" stroke="none" /><path d="M 118.73160827565052 90.50648371742162 l 8.366409704001775 -4.240247051018599 a30.379579222379167,30.379579222379167 0 0,0 0.23238929584590007,0.46848263983828675 l -8.438159012801083 4.095604822681363" fill="#ff3204" stroke="none" /><path d="M 118.89224826269711 90.83032412892265 l 9.043335355051394 -4.389337512730572 a31.052273282426533,31.052273282426533 0 0,0 0.22925716833460894,0.48287406437995223 l -9.117550717227758 4.233021032710079" fill="#ff3d05" stroke="none" /><path d="M 119.04729006885535 91.15688171328212 l 8.561661709175265 -3.974937481993729 a30.439395065792965,30.439395065792965 0 0,0 0.21655119504127607,0.4771418533247883 l -8.628815221179888 3.826973619826878" fill="#ff3304" stroke="none" /><path d="M 119.196687751892 91.48605970444005 l 9.028696096683676 -4.004325147516332 a30.876840238320288,30.876840238320288 0 0,0 0.2112994663309505,0.48770830092922113 l -9.096286272857308 3.8483177020005086" fill="#ff3a05" stroke="none" /><path d="M 119.34039704204932 91.81776055985345 l 10.852838566575352 -4.591452986405028 a32.784122601132125,32.784122601132125 0 0,0 0.2154046634962048,0.5216194784007069 l -10.930264916957753 4.403958937551018" fill="#ff5708" stroke="none" /><path d="M 119.47837535516314 92.15188598940014 l 8.701936624911893 -3.5061338279026635 a30.381720281651248,30.381720281651248 0 0,0 0.19126949461544077,0.4867600010352139 l -8.760999669409035 3.355824821971665" fill="#ff3204" stroke="none" /><path d="M 119.61058180528143 92.48833698450437 l 8.760749744301862 -3.355729090330308 a30.381452649242238,30.381452649242238 0 0,0 0.1828607718818743,0.48997595598748633 l -8.817215104685362 3.204429997313488" fill="#ff3204" stroke="none" /><path d="M 119.7369772167798 92.82701384747503 l 8.818724320330821 -3.204978489760287 a30.3830584436963,30.3830584436963 0 0,0 0.1744087662363377,0.4930770682871709 l -8.872586167376967 3.0527037950465017" fill="#ff3204" stroke="none" /><path d="M 119.85752413597 93.16781622104841 l 8.907510136375327 -3.06471974289848 a30.41999171613972,30.41999171613972 0 0,0 0.16609707493394843,0.49660911281776626 l -8.958944505081046 2.9109375271583993" fill="#ff3304" stroke="none" /><path d="M 119.97218684219823 93.5106431181261 l 8.907783262222287 -2.894314231669833 a30.366197601928654,30.366197601928654 0 0,0 0.15724559371527566,0.49851150331082733 l -8.95628433970577 2.740552561932587" fill="#ff3204" stroke="none" /><path d="M 120.18372546131832 94.20196356495316 l 9.011777582325545 -2.588749776001417 a30.376233817266538,30.376233817266538 0 0,0 0.14003910923242027,0.503795184916996 l -9.05500346212433 2.433243287665469" fill="#ff3204" stroke="none" /><path d="M 120.28053869075195 94.5502522615342 l 9.080979024376528 -2.440223391290816 a30.403130874372074,30.403130874372074 0 0,0 0.13146265742953506,0.506579246068995 l -9.121638013676366 2.28354771967297" fill="#ff3304" stroke="none" /><path d="M 120.37134235888165 94.90015583598534 l 9.120469721227018 -2.283255244620286 a30.401926528531526,30.401926528531526 0 0,0 0.12271838945237734,0.5087469508634125 l -9.158420910940215 2.125923062097467" fill="#ff3304" stroke="none" /><path d="M 120.45610955862082 95.25157060432595 l 9.189835363538233 -2.1332152263155932 a30.43417623381727,30.43417623381727 0 0,0 0.11406383317002891,0.5113257984311617 l -9.225193583710299 1.9747112583344675" fill="#ff3304" stroke="none" /><path d="M 120.53481517161879 95.60439243477599 l 9.717851189172197 -2.0801677467194444 a30.93799424377914,30.93799424377914 0 0,0 0.10698756785528639,0.5217093767237349 l -9.75221805294248 1.9125827138322977" fill="#ff3b05" stroke="none" /><path d="M 120.6074358757038 95.95851677861258 l 9.203716520516592 -1.8050118470065961 a30.379043957561144,30.379043957561144 0 0,0 0.09622095795941633,0.5140162049452353 l -9.233423202385868 1.6463175645987982" fill="#ff3204" stroke="none" /><path d="M 120.67395015179393 96.31383870115 l 9.239351437117529 -1.647374567700668 a30.385065686763877,30.385065686763877 0 0,0 0.08737607401949603,0.5156985349390205 l -9.26633937265725 1.4880902444458095" fill="#ff3204" stroke="none" /><path d="M 120.73433829027371 96.67025291283417 l 9.317735357713905 -1.496343974520943 a30.437120190316378,30.437120190316378 0 0,0 0.07862068528592184,0.5180120843927596 l -9.342111936439128 1.3357327777361014" fill="#ff3304" stroke="none" /><path d="M 120.78858239683441 97.02765380044208 l 9.284090510405631 -1.32743688906647 a30.378508692743125,30.378508692743125 0 0,0 0.06955810669539961,0.5182886885732864 l -9.305564616158867 1.1674298584285194" fill="#ff3204" stroke="none" /><path d="M 120.83666639777658 97.38593545837742 l 9.310742857152377 -1.1680794947912034 a30.383727524718825,30.383727524718825 0 0,0 0.060636728333147864,0.5194984581324675 l -9.329469938489114 1.0076372983338833" fill="#ff3204" stroke="none" /><path d="M 120.87857604477298 97.74499172005257 l 9.326010834353575 -1.007263694863507 a30.380248303401693,30.380248303401693 0 0,0 0.05167951389929067,0.5204056522861269 l -9.341967473935094 0.8465825118729451" fill="#ff3204" stroke="none" /><path d="M 120.91429891909075 98.10471618934814 l 9.355161213840931 -0.8477781475355233 a30.3934961076477,30.3934961076477 0 0,0 0.042732555290879784,0.5214454121421579 l -9.368368252951305 0.6866188181855966" fill="#ff3304" stroke="none" /><path d="M 120.94382443527127 98.46500227214037 l 9.349550640750417 -0.6852396530736382 a30.37462802281248,30.37462802281248 0 0,0 0.03372944637870029,0.5217796064721596 l -9.359960678133534 0.5242009823484434" fill="#ff3204" stroke="none" /><path d="M 120.96714384426684 98.82574320788733 l 9.362900028580585 -0.5243655995348607 a30.37757197931159,30.37757197931159 0 0,0 0.024745268913964953,0.522333516642371 l -9.370538905728047 0.36312097626948986" fill="#ff3204" stroke="none" /><path d="M 120.98425023603335 99.18683210126433 l 9.364521692754538 -0.36288780117984515 a30.37155025010886,30.37155025010886 0 0,0 0.01574736757042452,0.5225784654450508 l -9.369380754780607 0.2016391883097953" fill="#ff3204" stroke="none" /><line stroke="#e1ed5e" stroke-width="0.3" x1="184.98032266829074" x2="189.97916517819016" y1="98.17113171792111" y2="98.06355123074" /><path d="M 185.9800911702706 98.14961562048488 a86.0,86.0 0 0,1 -9.607161424134198,41.387399972396054" fill="none" id="id40" stroke="none" /><text fill="#e1ed5e" style="font-size:6.75px; font-family:Arial;" text-anchor="middle"><textPath startOffset="21.466115282336823" xlink:href="#id40">April</textPath></text><path d="M 120.99513854157772 99.54816195383933 l 10.731715714384375 -0.23095810731310287 a31.734200660584754,31.734200660584754 0 0,0 0.007052537552758833,0.546226805630243 l -10.73410125905485 0.04619504362239723" fill="#ff4706" stroke="none" /><path d="M 120.99980553446 99.90962569577887 l 9.376816065694506 -0.04035386072295105 a30.376902898289064,30.376902898289064 0 0,0 -0.0022503538178748604,0.5229029752027865 l -9.376121414587129 -0.12105859268352014" fill="#ff3204" stroke="none" /><path d="M 120.99824983174949 100.27111621757518 l 9.380403176253774 0.12111387610175359 a30.38118501683323,30.38118501683323 0 0,0 -0.011252521553148551,0.5228604606403953 l -9.376928592015616 -0.2825641525322637" fill="#ff3204" stroke="none" /><path d="M 120.9904718944345 100.63252640178507 l 7.17170183648375 0.2161118997286201 a28.174957253156894,28.174957253156894 0 0,0 -0.0187804432644152,0.48463979163085846 l -7.166919260368132 -0.33952893837348475" fill="#ff1001" stroke="none" /><path d="M 120.9764740272857 100.99374915477107 l 9.368937759665096 0.4438483783146386 a30.37944540617466,30.37944540617466 0 0,0 -0.029241878555803548,0.5221333851967775 l -9.359909530221762 -0.6050534798468394" fill="#ff3204" stroke="none" /><path d="M 120.95626037817324 101.35467743843564 l 9.35897476781362 0.6049930539157927 a30.378508692743125,30.378508692743125 0 0,0 -0.03822403534798123,0.5215365931857275 l -9.347174173801301 -0.7660027835982905" fill="#ff3204" stroke="none" /><path d="M 120.92983693683757 101.71520430193887 l 9.44986838959394 0.7744185950182905 a30.48154717021209,30.48154717021209 0 0,0 -0.04735584678702577,0.5225678231957621 l -9.435137946529839 -0.9369678067626231" fill="#ff3404" stroke="none" /><path d="M 120.89721153311464 102.0752229133903 l 9.35244483150909 0.928755866772508 a30.39844730721439,30.39844730721439 0 0,0 -0.05619036963845759,0.52025303672401 l -9.33507216036958 -1.0896052253813093" fill="#ff3304" stroke="none" /><path d="M 120.8583938346157 102.4346265915055 l 10.263076742533498 1.197923471296569 a31.33275204706932,31.33275204706932 0 0,0 -0.06713935967908806,0.5351667556475737 l -10.240935873607562 -1.3744079812315375" fill="#ff4106" stroke="none" /><path d="M 120.81339534386255 102.79330883721812 l 9.293049830706174 1.2471947891228834 a30.37636763347104,30.37636763347104 0 0,0 -0.0740112226969115,0.5176343191631119 l -9.270204556992661 -1.4069745802664047" fill="#ff3204" stroke="none" /><path d="M 120.76222939487914 103.15116336523771 l 9.271395266736102 1.4071552988612528 a30.37757197931159,30.37757197931159 0 0,0 -0.08291376821989635,0.516304113852667 l -9.245799744154917 -1.5665386424071248" fill="#ff3204" stroke="none" /><path d="M 120.70491114924044 103.5080841355445 l 9.249230075975857 1.5671198519836333 a30.381051200628722,30.381051200628722 0 0,0 -0.09179932305500736,0.5148593550151337 l -9.220884310581662 -1.7260979577319853" fill="#ff3204" stroke="none" /><path d="M 120.64145759157962 103.86396538481128 l 9.227855480107808 1.7274029216678495 a30.388143459467496,30.388143459467496 0 0,0 -0.10067167510572798,0.5133227024826718 l -9.196753872026417 -1.885989351218466" fill="#ff3204" stroke="none" /><path d="M 120.5718875245553 104.21870165774334 l 9.180367848764254 1.8826290497674014 a30.37141643390435,30.37141643390435 0 0,0 -0.10943249617960092,0.5112321901972307 l -9.146601313860211 -2.040375059380801" fill="#ff3204" stroke="none" /><path d="M 120.49622156327973 104.57218783832717 l 9.151825554957915 2.041540455233772 a30.376769082084557,30.376769082084557 0 0,0 -0.11823713874418437,0.5093624991565255 l -9.115327850283178 -2.198771611738862" fill="#ff3204" stroke="none" /><path d="M 120.41448212921028 104.9243191809786 l 9.12248253449036 2.200497442864642 a30.38412897333234,30.38412897333234 0 0,0 -0.12701822613610514,0.5073746740526969 l -9.083252994059194 -2.357199956314735" fill="#ff3204" stroke="none" /><path d="M 120.32669344350535 105.2749913415812 l 9.090765488157837 2.359149527770327 a30.39189031319364,30.39189031319364 0 0,0 -0.13576769970906677,0.5052421174414347 l -9.048809712106994 -2.5152825783873096" fill="#ff3304" stroke="none" /><path d="M 120.23288151984713 105.62410040840565 l 6.691103888849878 1.8599150139366614 a27.944793381408044,27.944793381408044 0 0,0 -0.13281410191243423,0.4623433123304409 l -6.658097150051344 -1.9748158017716844" fill="#ff0c01" stroke="none" /><path d="M 120.13307415673323 105.97154293290107 l 8.99095850456469 2.666750954174788 a30.37810724412961,30.37810724412961 0 0,0 -0.1530090689698295,0.5000424904388842 l -8.943722663088726 -2.8211204171657296" fill="#ff3204" stroke="none" /><path d="M 120.02730092923936 106.31721596034902 l 8.958143493843117 2.825669182999179 a30.393228475238693,30.393228475238693 0 0,0 -0.16167424463418184,0.4975821610958695 l -8.908176998192689 -2.9794502440728436" fill="#ff3304" stroke="none" /><path d="M 119.9155931802556 106.66101706037122 l 8.893582791272081 2.9745690306236185 a30.377839611720603,30.377839611720603 0 0,0 -0.17012916545115567,0.49447499049815385 l -8.841062794877695 -3.1272167242110727" fill="#ff3204" stroke="none" /><path d="M 119.79798401119884 107.00284435728193 l 9.122770746090048 3.2268610584742468 a30.67665119638059,30.67665119638059 0 0,0 -0.18037248458847566,0.496307610687848 l -9.065874000496345 -3.3834164661682262" fill="#ff3705" stroke="none" /><path d="M 119.67450827220406 107.3425965602758 l 9.28752799400896 3.466138525994059 a30.91323824594569,30.91323824594569 0 0,0 -0.1903456448328365,0.49693241450969455 l -9.226488069582615 -3.6254945073368976" fill="#ff3b05" stroke="none" /><path d="M 119.54520255179757 107.68017299344265 l 8.73204067232498 3.431204295350997 a30.38198791406026,30.38198791406026 0 0,0 -0.19545367337395425,0.4850999882750669 l -8.671684384693632 -3.581003651468878" fill="#ff3204" stroke="none" /><path d="M 119.41010516605496 108.01547362559984 l 8.676384417593152 3.582944547173628 a30.387072929831454,30.387072929831454 0 0,0 -0.20380901936211956,0.48174431756100095 l -8.613424417038724 -3.7317633904007925" fill="#ff3204" stroke="none" /><path d="M 119.26925614724726 108.34839909993367 l 12.290052270883978 5.324661239247833 a34.39393154132903,34.39393154132903 0 0,0 -0.24003510945352582,0.5412158043994665 l -12.196576076699179 -5.535425380139987" fill="#ff6f0a" stroke="none" /><path d="M 119.12269723197855 108.67885076344098 l 6.111813794099433 2.773851364661324 a27.711819369364584,27.711819369364584 0 0,0 -0.20087820578890034,0.4326737843051647 l -6.063160971470701 -2.878645216245319" fill="#ff0901" stroke="none" /><path d="M 118.97047184881838 109.00673069616215 l 8.473701732124196 4.023112872946237 a30.380248303401693,30.380248303401693 0 0,0 -0.2283534884727766,0.47047582232302065 l -8.403194987036706 -4.168377651234533" fill="#ff3204" stroke="none" /><path d="M 118.81262510543309 109.33194174019688 l 8.47596081997247 4.204472906937967 a30.461474739536314,30.461474739536314 0 0,0 -0.23705022486699942,0.46772258262325006 l -8.402331925319201 -4.349749701263911" fill="#ff3404" stroke="none" /><path d="M 118.64920377521936 109.65438752849418 l 9.530208770000689 4.933633081713609 a31.73152433649465,31.73152433649465 0 0,0 -0.2552838784215017,0.48290089173202877 l -9.443872383354293 -5.096948988531771" fill="#ff4706" stroke="none" /><line stroke="#e1ed5e" stroke-width="0.3" x1="174.80103733775053" x2="179.2010983576182" y1="140.37084112569926" y2="142.7455964860345" /><path d="M 175.68104954172406 140.8457921977663 a86.0,86.0 0 0,1 -30.038265399797805,32.042727171017184" fill="none" id="id41" stroke="none" /><text fill="#e1ed5e" style="font-size:6.75px; font-family:Arial;" text-anchor="middle"><textPath startOffset="22.206326154141568" xlink:href="#id41">May</textPath></text><path d="M 118.48025628344425 109.97397251340804 l 8.258030260301055 4.456938560149871 a30.38399515712784,30.38399515712784 0 0,0 -0.2523659776435325,0.45811755407642807 l -8.180087873206013 -4.598426632624105" fill="#ff3204" stroke="none" /><path d="M 118.30583269289576 110.29060199501025 l 8.176005178120564 4.596131550455696 a30.379311589970158,30.379311589970158 0 0,0 -0.2601742165581435,0.45363567671910077 l -8.09567896541004 -4.736187073033111" fill="#ff3204" stroke="none" /><path d="M 118.12598468904814 110.60418214915192 l 8.404301387626525 4.916739381591193 a30.736868488407907,30.736868488407907 0 0,0 -0.2710978983429365,0.4543756711447399 l -8.318422613585362 -5.060677146622037" fill="#ff3805" stroke="none" /><path d="M 117.94076556474637 110.91462005526583 l 8.015697559907336 4.876508364627683 a30.38252317887828,30.38252317887828 0 0,0 -0.27566404769924013,0.44445821823481046 l -7.9305688725401335 -5.013762914227766" fill="#ff3204" stroke="none" /><path d="M 117.75023020441432 111.22182372390056 l 7.933735897120197 5.015765130038911 a30.386270032604425,30.386270032604425 0 0,0 -0.28330875678550593,0.43970148199345394 l -7.846222276957642 -5.151588211953818" fill="#ff3204" stroke="none" /><path d="M 117.55443506779139 111.5257021239791 l 7.836490424340913 5.145198576859228 a30.37462802281248,30.37462802281248 0 0,0 -0.29072409080427614,0.4345930697897623 l -7.746763228125916 -5.279328560854797" fill="#ff3204" stroke="none" /><path d="M 117.35343817320211 111.8261652097733 l 7.748864240192464 5.280760376012044 a30.377170530698073,30.377170530698073 0 0,0 -0.2981867798180567,0.42956029614884594 l -7.656816553212272 -5.4133619343479085" fill="#ff3204" stroke="none" /><path d="M 117.14729908036423 112.12312394758627 l 7.665557835042555 5.419542012189477 a30.387875827058487,30.387875827058487 0 0,0 -0.3056444495931283,0.4245134080658511 l -7.5711335930738235 -5.550689025706459" fill="#ff3204" stroke="none" /><path d="M 116.93607887273984 112.41649034213515 l 4.980404022332887 3.651325605406988 a27.17548402170796,27.17548402170796 0 0,0 -0.2798282019905664,0.3748756054375809 l -4.916814553647228 -3.736514090353884" fill="#ff0000" stroke="none" /><path d="M 116.71984013943494 112.70617746262583 l 7.46764716201192 5.675009406639239 a30.379311589970158,30.379311589970158 0 0,0 -0.31998555339569146,0.4136244622506085 l -7.36885479139816 -5.8027118630031" fill="#ff3204" stroke="none" /><path d="M 116.498646956653 112.99209946851258 l 8.422494527161561 6.632415794906157 a31.72041759152073,31.72041759152073 0 0,0 -0.341496106646807,0.42606890046870627 l -8.307080508459899 -6.776412528953114" fill="#ff4706" stroke="none" /><path d="M 116.27256486870786 113.27417163493432 l 11.410583305985948 9.308061911594713 a35.72553659235973,35.72553659235973 0 0,0 -0.3928175859583548,0.473174087463568 l -11.248669720134052 -9.503097256172051" fill="#ff830c" stroke="none" /><path d="M 116.0416608686014 113.55231037782055 l 48.12498260580419 40.656931133461654 a84.0,84.0 0 0,0 -0.942629961716885,1.096491603353888 l -47.41801013451653 -41.47929983597707" fill="#4dd2ff" stroke="none" /><path d="M 115.80600337817218 113.82643327865902 l 8.076154467732682 7.064683476561607 a31.730052358245096,31.730052358245096 0 0,0 -0.3631446325951944,0.4079968443905195 l -7.953350985489149 -7.202654490692993" fill="#ff4706" stroke="none" /><line stroke="#e1ed5e" stroke-width="0.3" x1="143.8653032363475" x2="146.44561519142675" y1="172.8068346515853" y2="177.08958963109032" /><path d="M 144.38136562736335 173.6633856474863 a86.0,86.0 0 0,1 -40.68145358897372,12.25698825130547" fill="none" id="id42" stroke="none" /><text fill="#e1ed5e" style="font-size:6.75px; font-family:Arial;" text-anchor="middle"><textPath startOffset="21.466115282336833" xlink:href="#id42">June</textPath></text><line stroke="#e1ed5e" stroke-width="0.3" x1="102.19456741930631" x2="102.32365962044197" y1="184.97166512339345" y2="189.96999836594603" /><path d="M 102.22038585953345 185.97133177190398 a86.0,86.0 0 0,1 -42.740103519485714,-10.115201625700543" fill="none" id="id43" stroke="none" /><text fill="#e1ed5e" style="font-size:6.75px; font-family:Arial;" text-anchor="middle"><textPath startOffset="22.20632615414155" xlink:href="#id43">July</textPath></text><line stroke="#e1ed5e" stroke-width="0.3" x1="58.666819895761336" x2="56.23545636021788" y1="174.27360380694188" y2="178.64263932499728" /><path d="M 58.180547188652646 175.14741091055294 a86.0,86.0 0 0,1 -31.652253787137756,-30.449443065178592" fill="none" id="id44" stroke="none" /><text fill="#e1ed5e" style="font-size:6.75px; font-family:Arial;" text-anchor="middle"><textPath startOffset="22.20632615414155" xlink:href="#id44">August</textPath></text><line stroke="#e1ed5e" stroke-width="0.3" x1="26.63291911575756" x2="22.317208475507996" y1="142.92168965132927" y2="145.44649492493687" /><path d="M 25.769776987707644 143.4266507060508 a86.0,86.0 0 0,1 -11.730757126820373,-40.83630448921669" fill="none" id="id45" stroke="none" /><text fill="#e1ed5e" style="font-size:6.75px; font-family:Arial;" text-anchor="middle"><textPath startOffset="21.46611528233685" xlink:href="#id45">September</textPath></text><line stroke="#e1ed5e" stroke-width="0.3" x1="15.007084014347285" x2="10.007500721073583" y1="101.09737516637583" y2="101.16192664675087" /><path d="M 14.007167355692545 101.11028546245083 a86.0,86.0 0 0,1 10.666146001902534,-42.60595125391555" fill="none" id="id46" stroke="none" /><text fill="#e1ed5e" style="font-size:6.75px; font-family:Arial;" text-anchor="middle"><textPath startOffset="22.20632615414155" xlink:href="#id46">October</textPath></text><line stroke="#e1ed5e" stroke-width="0.3" x1="26.266209847984243" x2="21.928928074336255" y1="57.711370442889674" y2="55.22380399835377" /><path d="M 25.398753493254645 57.213857153982495 a86.0,86.0 0 0,1 29.58750427330803,-30.492523968695096" fill="none" id="id47" stroke="none" /><text fill="#e1ed5e" style="font-size:6.75px; font-family:Arial;" text-anchor="middle"><textPath startOffset="21.46611528233685" xlink:href="#id47">November</textPath></text><line stroke="#e1ed5e" stroke-width="0.3" x1="56.762969772571076" x2="54.21961505331055" y1="26.818313649435495" y2="22.513508569990535" /><path d="M 56.25429882871897 25.957352633546506 a86.0,86.0 0 0,1 42.265352541879196,-11.944610805530505" fill="none" id="id48" stroke="none" /><text fill="#e1ed5e" style="font-size:6.75px; font-family:Arial;" text-anchor="middle"><textPath startOffset="22.20632615414155" xlink:href="#id48">December</textPath></text></svg>