<?xml version="1.0" encoding="utf-8" ?>
<svg baseProfile="full" height="200mm" version="1.1" viewBox="0,0,200,200" width="200mm" xmlns="http://www.w3.org/2000/svg" xmlns:ev="http://www.w3.org/2001/xml-events" xmlns:xlink="http://www.w3.org/1999/xlink"><defs /><rect fill="#1a1a1a" height="200" width="200" x="0" y="0" /><rect fill="#1a1a1a" height="200" width="180" x="10" y="0" /><text alignment-baseline="middle" fill="#e1ed5e" style="dominant-baseline: central; font-size:9.0px; font-family:Arial;" text-anchor="middle" x="100.0" y="100.0">2026</text><line stroke="#e1ed5e" stroke-width="0.3" x1="100.0" x2="100.0" y1="15.0" y2="10.0" /><path d="M 100.0 14.0 a86.0,86.0 0 0,1 42.46469731375804,11.215312516191453" fill="none" id="id37" stroke="none" /><text fill="#e1ed5e" style="font-size:6.75px; font-family:Arial;" text-anchor="middle"><textPath startOffset="22.20632615414155" xlink:href="#id37">January</textPath></text><path d="M 100.0 79.0 l 0.0 -24.776721989750342 a45.77672198975034,45.77672198975034 0 0,0 0.787971019256202,0.00678231533406722 l -0.42649053998367364 24.773051051024833" fill="#ffb110" stroke="none" /><path d="M 100.36148047927253 79.00311137660856 l 0.370032690338866 -21.493650782180783 a42.49683577037002,42.49683577037002 0 0,0 0.7312964064718912,0.018887228644612824 l -0.739955732005625 21.48409676139381" fill="#ff790b" stroke="none" /><path d="M 100.72285384407766 79.0124445844662 l 0.714914652861499 -20.757046555452526 a41.76935445954206,41.76935445954206 0 0,0 0.718351680392532,0.030933734450602046 l -1.0721071656433625 20.741665094477728" fill="#ff6c0a" stroke="none" /><path d="M 101.08401301168833 79.027996857942 l 1.3765013219745195 -26.63066747191095 a47.666218439983076,47.666218439983076 0 0,0 0.8190371714974763,0.04940655887822351 l -1.8347005423116078 26.60302764365242" fill="#ffd013" stroke="none" /><path d="M 101.44485096284872 79.0497635885617 l 1.4275757924198096 -20.699747666343146 a41.748916263105926,41.748916263105926 0 0,0 0.7165104287958801,0.05561499935124466 l -1.783676410578031 20.672107404803437" fill="#ff6c09" stroke="none" /><path d="M 101.80526077348638 79.07773832637324 l 1.795618682938252 -20.810513640050953 a41.88783675772251,41.88783675772251 0 0,0 0.7178276156976183,0.0681663815539176 l -2.1535714257261147 20.776521713981857" fill="#ff6e0a" stroke="none" /><path d="M 102.16513564639614 79.11191278185805 l 2.1398898125390517 -20.644528723144568 a41.755136583760404,41.755136583760404 0 0,0 0.7142778743040914,0.08025744170992014 l -2.494934390352868 20.604635327964047" fill="#ff6c09" stroke="none" /><path d="M 102.88285421437855 79.19881850522331 l 2.8502562342874396 -20.56597136973583 a41.76254172739668,41.76254172739668 0 0,0 0.7112181132314134,0.10481506211864289 l -3.203843327947509 20.51386182345622" fill="#ff6c09" stroke="none" /><path d="M 103.2404852339499 79.25152402106235 l 3.4305051306908103 -21.965152796885416 a43.231426019088815,43.231426019088815 0 0,0 0.7342565256179474,0.1211586180796439 l -3.808090862447633 21.902847915866147" fill="#ff860c" stroke="none" /><path d="M 103.59715602781102 79.31037775812273 l 5.083543044879064 -29.23881656389348 a50.677446048239226,50.677446048239226 0 0,0 0.8581498602284945,0.15682140180089257 l -5.58608802621046 29.14697968074185" fill="#feff18" stroke="none" /><path d="M 103.95276090670814 79.375362276772 l 2.79382456676587 -14.5775625978319 a35.842869904555926,35.842869904555926 0 0,0 0.6049484321559272,0.12134696443110551 l -3.0443394083889226 14.527311677323587" fill="#ff0000" stroke="none" /><path d="M 104.307194497241 79.44645832069477 l 4.35612101896433 -20.78701460561676 a42.23854436033664,42.23854436033664 0 0,0 0.7103261553341359,0.15524978498556097 l -4.713289898451993 20.708951322535327" fill="#ff740a" stroke="none" /><path d="M 104.66035177308747 79.52364482259891 l 4.690874458779849 -20.610463799161025 a42.13753820113781,42.13753820113781 0 0,0 0.7058565632796227,0.1670534432173824 l -5.044954709021995 20.526664443802773" fill="#ff730a" stroke="none" /><path d="M 105.01212808612495 79.60689891045804 l 4.958139720685522 -20.173435874458313 a41.77379754572382,41.77379754572382 0 0,0 0.6968090460065891,0.17763214092768756 l -5.304657655377136 20.08510073736176" fill="#ff6c0a" stroke="none" /><path d="M 105.36241919743992 79.69619591428918 l 5.303144913114471 -20.079373019814426 a41.7678734308148,41.7678734308148 0 0,0 0.6935497918077147,0.18957335709621437 l -5.647992594145896 19.985113121891917" fill="#ff6c0a" stroke="none" /><path d="M 105.71112130821622 79.79150937346287 l 6.139059341452577 -21.722725969595665 a43.57354365508486,43.57354365508486 0 0,0 0.7200212331795115,0.21019394224732957 l -6.512070792355516 21.61383369842963" fill="#ff8b0c" stroke="none" /><path d="M 106.0581310904928 79.89281104454417 l 9.428911801908924 -31.29495027647023 a53.68452677605906,53.68452677605906 0 0,0 0.882508757247557,0.27419976670932417 l -9.966205931867199 31.128010374878386" fill="#d0ff1d" stroke="none" /><path d="M 106.40334571778207 80.00007090966166 l 6.329042942703381 -19.76785506243409 a41.7563214067422,41.7563214067422 0 0,0 0.6826505913762505,0.22505916707921336 l -6.6683763563220495 19.65598217109564" fill="#ff6c09" stroke="none" /><path d="M 106.74666289553966 80.11325718540242 l 6.683221615784709 -19.699740672375597 a41.80252950303259,41.80252950303259 0 0,0 0.6794264569076648,0.2370385499268927 l -7.021330076755648 19.581781269276494" fill="#ff6d0a" stroke="none" /><path d="M 107.08798089147638 80.2323363322302 l 7.0064336196655645 -19.540236553213244 a41.75839484696037,41.75839484696037 0 0,0 0.6745326466407774,0.24843606637297325 l -7.341748592078918 19.416737219033948" fill="#ff6c09" stroke="none" /><path d="M 107.76421540070413 80.48803036053334 l 7.670616979116824 -19.27675082261776 a41.74684282288777,41.74684282288777 0 0,0 0.6653972231704187,0.27143223446049997 l -8.00129807187563 19.14185770197368" fill="#ff6c09" stroke="none" /><path d="M 108.09893153111575 80.62456947434976 l 8.011350814948715 -19.165907321884212 a41.77290892848747,41.77290892848747 0 0,0 0.6610388629182069,0.28302234289107364 l -8.340073435657237 19.02516545103035" fill="#ff6c0a" stroke="none" /><path d="M 108.43124777332544 80.76684994638697 l 11.855081998864438 -27.0435144491211 a50.527862146786404,50.527862146786404 0 0,0 0.7935710691264599,0.3560522066756059 l -12.31883518645768 26.835441911928964" fill="#fffd18" stroke="none" /><path d="M 108.76106565485865 80.91482961587045 l 8.672503469716212 -18.892245863344012 a41.78771921576003,41.78771921576003 0 0,0 0.6511358203567218,0.30571699843561784 l -8.99641750137253 18.74016388226839" fill="#ff6c0a" stroke="none" /><path d="M 109.08828744355905 81.06846463323043 l 8.995904738904512 -18.739095762354896 a41.78653439277822,41.78653439277822 0 0,0 0.6457586220244443,0.3168709513284907 l -9.317134627939389 18.581469650891574" fill="#ff6c0a" stroke="none" /><path d="M 109.41281617654863 81.2277094730956 l 9.301600759501902 -18.55048994345378 a41.75187832056044,41.75187832056044 0 0,0 0.6396775701481296,0.3276676966414915 l -9.619538817238787 18.38762972149979" fill="#ff6c09" stroke="none" /><path d="M 110.05341064243156 81.56283822128135 l 9.943701835712465 -18.23596448458914 a41.77083548826931,41.77083548826931 0 0,0 0.6283047957180588,0.34965093856593094 l -10.25613072050256 18.06209814846303" fill="#ff6c0a" stroke="none" /><path d="M 110.36928655335952 81.73862282372117 l 10.246623875432716 -18.045355619198027 a41.751582114814994,41.751582114814994 0 0,0 0.6219062528693471,0.36024824293297336 l -10.555726860767392 17.866303218875004" fill="#ff6c09" stroke="none" /><line stroke="#e1ed5e" stroke-width="0.3" x1="143.23703022742887" x2="145.7803849466894" y1="26.81831364943548" y2="22.513508569990506" /><path d="M 143.74570117128098 25.957352633546492 a86.0,86.0 0 0,1 28.547481713284135,27.462654790039103" fill="none" id="id38" stroke="none" /><text fill="#e1ed5e" style="font-size:6.75px; font-family:Arial;" text-anchor="middle"><textPath startOffset="19.985693538727396" xlink:href="#id38">February</textPath></text><path d="M 110.68208982089419 81.91981866633111 l 10.555124175742936 -17.865283132476932 a41.75039729183318,41.75039729183318 0 0,0 0.6155955596207604,0.37088943672577884 l -10.861081801581333 17.680947086292537" fill="#ff6c09" stroke="none" /><path d="M 110.99172775467656 82.1063720568725 l 11.282787093217804 -18.367448586202833 a42.556076919460246,42.556076919460246 0 0,0 0.6208746151569235,0.3887916270521189 l -11.597280860746991 18.17051261782777" fill="#ff7a0b" stroke="none" /><path d="M 111.2981086023043 82.29822771554956 l 11.176410512089053 -17.511096839889454 a41.77379754572382,41.77379754572382 0 0,0 0.6028018149793347,0.3920790684859159 l -11.476179352852668 17.31611884724401" fill="#ff6c0a" stroke="none" /><path d="M 112.19680574252982 82.90503203632743 l 12.073513004994256 -16.922161620535164 a41.78771921576003,41.78771921576003 0 0,0 0.5819530573115145,0.42281364543955385 l -12.363011378659559 16.711828740278936" fill="#ff6c0a" stroke="none" /><path d="M 112.48926042617603 83.11751280151076 l 14.651877249889587 -19.805826899618403 a45.6363204664065,45.6363204664065 0 0,0 0.6275077649042812,0.4726258389256279 l -14.990631168552252 19.550684471186926" fill="#ffae10" stroke="none" /><path d="M 112.77801427241765 83.33499621200491 l 12.644700935304973 -16.49113739368619 a41.78090648361465,41.78090648361465 0 0,0 0.5669618173218314,0.44252269141901956 l -12.926695307786234 16.271036313043947" fill="#ff6c0a" stroke="none" /><path d="M 113.06298171725822 83.55741782278167 l 18.436805819628926 -23.20669976703399 a50.63893930133058,50.63893930133058 0 0,0 0.6778301779953833,0.548091530676394 l -18.833539396188797 22.885902139093467" fill="#ffff18" stroke="none" /><path d="M 113.34407831869373 83.78471172551755 l 18.841632800218658 -22.895736979412273 a50.65167614838497,50.65167614838497 0 0,0 0.668463346900597,0.5598188290525351 l -19.23295368407837 22.56801699296592" fill="#ffff18" stroke="none" /><path d="M 113.6212207817346 84.01681056812373 l 19.232377300670432 -22.567340662603016 a50.65078753114862,50.65078753114862 0 0,0 0.6587163894372305,0.571232361820877 l -19.617987488754427 22.232943307362465" fill="#ffff18" stroke="none" /><path d="M 113.89432698308785 84.25364557470407 l 13.724869631100775 -15.554309461361493 a41.74388076543326,41.74388076543326 0 0,0 0.5346973933811734,0.4800565991746853 l -13.99057801207794 15.31575385341751" fill="#ff6c09" stroke="none" /><path d="M 114.42810811169701 84.74124197986012 l 19.718391807210683 -20.853612046933 a49.69996708825051,49.69996708825051 0 0,0 0.6165559151619329,0.593126301889168 l -20.074430965985034 20.51110265828153" fill="#fff016" stroke="none" /><path d="M 114.68862486808459 84.99185889309783 l 14.520046499082785 -14.835895714820053 a41.75898725845127,41.75898725845127 0 0,0 0.5093884550897211,0.5072009791804479 l -14.773270754339828 14.583758884989486" fill="#ff6c09" stroke="none" /><path d="M 114.94478906791727 85.2469230424477 l 10.547216902720965 -10.411916952905113 a35.820654473647096,35.820654473647096 0 0,0 0.42939708707428914,0.4425314432996205 l -10.724878253498362 10.228821314055377" fill="#ff0000" stroke="none" /><path d="M 115.4437574822437 85.77008943001954 l 17.437671537734836 -16.06710716714847 a44.711269923362636,44.711269923362636 0 0,0 0.5166416182398533,0.570488578743041 l -17.711656796590727 15.764565801135882" fill="#ff9f0e" stroke="none" /><path d="M 115.68641384162765 86.03803664274999 l 22.13016755521555 -19.69733755689708 a50.626498660021625,50.626498660021625 0 0,0 0.5737865999833481,0.6559372728240092 l -22.465946018776744 19.313484727870122" fill="#ffff18" stroke="none" /><path d="M 115.9244219780498 86.31012108654704 l 17.98331369827357 -15.459863305013652 a44.7151205980535,44.7151205980535 0 0,0 0.4967410977223557,0.5879847794956031 l -18.246765409483043 15.148019575888942" fill="#ff9f0e" stroke="none" /><path d="M 116.15771136456269 86.58626213691792 l 18.26431410159464 -15.162588072040021 a44.737928440453246,44.737928440453246 0 0,0 0.4867944814295848,0.596752475005282 l -18.52260707510063 14.845951427426638" fill="#ff9f0e" stroke="none" /><path d="M 116.38621287248628 86.86637796730983 l 16.190524402430736 -12.97677685913696 a41.74921246885138,41.74921246885138 0 0,0 0.444621000336867,0.5646235184583067 l -16.411499483361567 12.696160946725614" fill="#ff6c09" stroke="none" /><path d="M 116.60985879189232 87.15038557335679 l 16.417356549558342 -12.700692053416093 a41.75661761248766,41.75661761248766 0 0,0 0.4349131869863136,0.5722947741232436 l -16.63354567676877 12.416212503411817" fill="#ff6c09" stroke="none" /><path d="M 116.82858285166822 87.43820079747576 l 16.631171999183785 -12.414440657175154 a41.75365555503315,41.75365555503315 0 0,0 0.42496748839708076,0.5796551765855489 l -16.842402100094493 12.126323036918112" fill="#ff6c09" stroke="none" /><path d="M 117.2510076193507 88.02491185347247 l 17.066404237237567 -11.846942485605547 a41.77527857445108,41.77527857445108 0 0,0 0.40497260274435204,0.5942473235328316 l -17.26780130565065 11.551417138802309" fill="#ff6c0a" stroke="none" /><path d="M 117.65298651832404 88.62581576622439 l 28.306114444349927 -18.238214836802555 a54.67296534862946,54.67296534862946 0 0,0 0.5029194350836345,0.7954977699387346 l -28.615861475679516 17.748269419149615" fill="#c2ff1e" stroke="none" /><line stroke="#e1ed5e" stroke-width="0.3" x1="172.23445277983987" x2="176.4835382374775" y1="55.19839476539836" y2="52.563006222186495" /><path d="M 173.08426987136738 54.67131705675599 a86.0,86.0 0 0,1 12.851231095245387,41.99856678651699" fill="none" id="id39" stroke="none" /><text fill="#e1ed5e" style="font-size:6.75px; font-family:Arial;" text-anchor="middle"><textPath startOffset="22.20632615414155" xlink:href="#id39">March</textPath></text><path d="M 117.84615892207809 88.93136811851018 l 17.626994094843763 -10.932700401521549 a41.742103530960556,41.742103530960556 0 0,0 0.3734610380842056,0.6138717516422427 l -17.812570931214193 10.627660876672223" fill="#ff6c09" stroke="none" /><path d="M 118.03404312379186 89.2402003453031 l 54.10212937137558 -32.279398964090696 a84.0,84.0 0 0,0 0.7301613021186908,1.2480823505844187 l -54.6497503479646 31.34333720115238" fill="#4dd2ff" stroke="none" /><path d="M 118.73160827565052 90.50648371742162 l 18.51927150592654 -9.385900185172325 a41.76194931590578,41.76194931590578 0 0,0 0.31945899986416815,0.6440098500737584 l -18.678090518744117 9.065730746599616" fill="#ff6c09" stroke="none" /><path d="M 118.89224826269711 90.83032412892265 l 20.01766452809921 -9.715915907217028 a43.25097559828859,43.25097559828859 0 0,0 0.3193194940411806,0.6725682910746218 l -20.181942215982147 9.369905200501867" fill="#ff860c" stroke="none" /><path d="M 119.04729006885535 91.15688171328212 l 18.951467038277165 -8.79863036266509 a41.89435328412243,41.89435328412243 0 0,0 0.29804377680794697,0.6566999549965882 l -19.10011313204846 8.47110839882644" fill="#ff6e0a" stroke="none" /><path d="M 119.196687751892 91.48605970444005 l 19.985260138408908 -8.863680745803524 a42.86264986600216,42.86264986600216 0 0,0 0.29332195173832787,0.6770275059922787 l -20.134872799989918 8.518354095224643" fill="#ff7f0b" stroke="none" /><path d="M 119.34039704204932 91.81776055985345 l 24.023048253095318 -10.163303910548478 a47.08447035591706,47.08447035591706 0 0,0 0.30936360921744194,0.7491485182214049 l -24.19443354919896 9.74828082187377" fill="#ffc612" stroke="none" /><path d="M 119.47837535516314 92.15188598940014 l 19.261969313674335 -7.760920943661827 a41.76668860783299,41.76668860783299 0 0,0 0.26294407781133444,0.669163997348253 l -19.39270694136737 7.42820794141779" fill="#ff6c0a" stroke="none" /><path d="M 119.61058180528143 92.48833698450437 l 19.392153725462386 -7.427996036870831 a41.76609619634209,41.76609619634209 0 0,0 0.2513829959722554,0.6735814494432493 l -19.517141309936267 7.093091450398249" fill="#ff6c0a" stroke="none" /><path d="M 119.7369772167798 92.82701384747503 l 19.520481999107375 -7.0943055530899155 a41.7696506652875,41.7696506652875 0 0,0 0.23977155730242367,0.6778664804791009 l -19.639706637219607 6.7572414461842" fill="#ff6c0a" stroke="none" /><path d="M 119.85752413597 93.16781622104841 l 19.717011776081733 -6.783839067929334 a41.85140345103202,41.85140345103202 0 0,0 0.228514056149753,0.6832279420696984 l -19.830863126003255 6.443438022937322" fill="#ff6e0a" stroke="none" /><path d="M 119.97218684219823 93.5106431181261 l 19.717616347444363 -6.406641914048611 a41.73232874136067,41.73232874136067 0 0,0 0.216102947628831,0.6851053994391455 l -19.824974778841398 6.066286348183046" fill="#ff6b09" stroke="none" /><path d="M 120.18372546131832 94.20196356495316 l 19.94781055466151 -5.730266823981322 a41.754544172269505,41.754544172269505 0 0,0 0.1924948697546121,0.6925064650521687 l -20.043492194982484 5.386049055510202" fill="#ff6c09" stroke="none" /><path d="M 120.28053869075195 94.5502522615342 l 20.100989796329618 -5.401499701456388 a41.814081527105174,41.814081527105174 0 0,0 0.18080342772073169,0.6967093613678992 l -20.190989555920652 5.054693914539638" fill="#ff6d0a" stroke="none" /><path d="M 120.37134235888165 94.90015583598534 l 20.188403509356693 -5.0540465131929455 a41.81141567539612,41.81141567539612 0 0,0 0.16877317256829563,0.6996737596934096 l -20.272409482185807 4.70578752184013" fill="#ff6d0a" stroke="none" /><path d="M 120.45610955862082 95.25157060432595 l 20.341946212689745 -4.721928922249515 a41.88280126004984,41.88280126004984 0 0,0 0.15697197844019312,0.7036746002355173 l -20.420212578131974 4.371076152464035" fill="#ff6e0a" stroke="none" /><path d="M 120.53481517161879 95.60439243477599 l 21.51072335608785 -4.604506908255118 a42.99801589167333,42.99801589167333 0 0,0 0.1486926756338795,0.7250782935197148 l -21.58679532763673 4.233552958571991" fill="#ff810b" stroke="none" /><path d="M 120.6074358757038 95.95851677861258 l 20.372672524691378 -3.9954419695870538 a41.76076449292397,41.76076449292397 0 0,0 0.13227081043893762,0.7065959583932804 l -20.438429059040175 3.6441679337312105" fill="#ff6c09" stroke="none" /><path d="M 120.67395015179393 96.31383870115 l 20.451551365074746 -3.6465076383498802 a41.77409375146927,41.77409375146927 0 0,0 0.12012665515861488,0.7089943187262002 l -20.511289881753584 3.293927531307842" fill="#ff6c0a" stroke="none" /><path d="M 120.73433829027371 96.67025291283417 l 20.62505626844196 -3.3121973834434515 a41.889317786449766,41.889317786449766 0 0,0 0.1082023151315815,0.7129180646746327 l -20.67901447701284 2.9566802063767366" fill="#ff6e0a" stroke="none" /><path d="M 120.78858239683441 97.02765380044208 l 20.55058249963054 -2.938317035065348 a41.75957966994217,41.75957966994217 0 0,0 0.0956175080092316,0.7124614970871246 l -20.59811600669761 2.5841371959135593" fill="#ff6c09" stroke="none" /><path d="M 120.83666639777658 97.38593545837742 l 20.609578181546166 -2.585575183366518 a41.77113169401476,41.77113169401476 0 0,0 0.08336254209222656,0.7141993519996763 l -20.65103107664198 2.2304320930419888" fill="#ff6c0a" stroke="none" /><path d="M 120.87857604477298 97.74499172005257 l 20.643374257179424 -2.229605111774248 a41.763430344633036,41.763430344633036 0 0,0 0.07104332253715824,0.7153965626993055 l -20.678694705398808 1.8739330183705074" fill="#ff6c09" stroke="none" /><path d="M 120.91429891909075 98.10471618934814 l 20.707899401336412 -1.8765795898678206 a41.79275471343269,41.79275471343269 0 0,0 0.05875965026282591,0.7170165659428201 l -20.737133535418735 1.5198491067172315" fill="#ff6d0a" stroke="none" /><path d="M 120.94382443527127 98.46500227214037 l 20.695480247835306 -1.5167962878781485 a41.75098970332409,41.75098970332409 0 0,0 0.04636230499344053,0.7172043378066201 l -20.718523143833163 1.1603328858184931" fill="#ff6c09" stroke="none" /><path d="M 120.96714384426684 98.82574320788733 l 20.725029474613745 -1.1606972703606884 a41.757506229724015,41.757506229724015 0 0,0 0.03401525051227955,0.7180081768892494 l -20.74193833335952 0.8037779868484392" fill="#ff6c09" stroke="none" /><path d="M 120.98425023603335 99.18683210126433 l 20.72861907160831 -0.8032618475549634 a41.74417697117871,41.74417697117871 0 0,0 0.02164396921713423,0.7182579671838454 l -20.73937473528109 0.446333732946119" fill="#ff6c09" stroke="none" /><line stroke="#e1ed5e" stroke-width="0.3" x1="184.98032266829074" x2="189.97916517819016" y1="98.17113171792111" y2="98.06355123074" /><path d="M 185.9800911702706 98.14961562048488 a86.0,86.0 0 0,1 -9.607161424134198,41.387399972396054" fill="none" id="id40" stroke="none" /><text fill="#e1ed5e" style="font-size:6.75px; font-family:Arial;" text-anchor="middle"><textPath startOffset="21.466115282336823" xlink:href="#id40">April</textPath></text><path d="M 120.99513854157772 99.54816195383933 l 23.75493958227276 -0.5112319438265659 a44.76044007710753,44.76044007710753 0 0,0 0.00994745977370383,0.7704417219586532 l -23.76022004916418 0.10225396380744986" fill="#ffa00e" stroke="none" /><path d="M 120.99980553446 99.90962569577887 l 20.755832994727754 -0.08932434933030112 a41.75602520099676,41.75602520099676 0 0,0 -0.003093331504036721,0.718781301811829 l -20.754295365934215 -0.26796643068521264" fill="#ff6c09" stroke="none" /><path d="M 120.99824983174949 100.27111621757518 l 20.763773159830716 0.26808880200914514 a41.76550378485119,41.76550378485119 0 0,0 -0.01546902239845983,0.7187846865000821 l -20.756082074747248 -0.6254633042993422" fill="#ff6c0a" stroke="none" /><path d="M 120.9904718944345 100.63252640178507 l 15.874753707778307 0.47836946651340323 a36.88195965959848,36.88195965959848 0 0,0 -0.024584227214397264,0.6344096668456443 l -15.864167347712707 -0.7515563803730537" fill="#ff1402" stroke="none" /><path d="M 120.9764740272857 100.99374915477107 l 20.738394153752076 0.982470249041517 a41.761653110160324,41.761653110160324 0 0,0 -0.04019787630121435,0.717760084764076 l -20.71840992656333 -1.3393020501410164" fill="#ff6c09" stroke="none" /><path d="M 120.95626037817324 101.35467743843564 l 20.716340804987606 1.3391682957275175 a41.75957966994217,41.75957966994217 0 0,0 -0.05254437160050638,0.716926203791309 l -20.69021987472276 -1.6955676360155967" fill="#ff6c09" stroke="none" /><path d="M 120.92983693683757 101.71520430193887 l 20.917536266297798 1.7141962595403453 a41.98765809393954,41.98765809393954 0 0,0 -0.06523163317594775,0.7198256364322612 l -20.884930036844775 -2.074003284521177" fill="#ff700a" stroke="none" /><path d="M 120.89721153311464 102.0752229133903 l 20.701886616438586 2.0558259358557667 a41.803714326014386,41.803714326014386 0 0,0 -0.07727257042111355,0.7154480327450956 l -20.66343174451642 -2.4118702904856537" fill="#ff6d0a" stroke="none" /><path d="M 120.8583938346157 102.4346265915055 l 22.717594691809946 2.6516356230620532 a43.87182284075415,43.87182284075415 0 0,0 -0.094007895924933,0.7493354257155838 l -22.668585286638166 -3.042288803065032" fill="#ff900d" stroke="none" /><path d="M 120.81339534386255 102.79330883721812 l 20.570414194589844 2.7606990020457376 a41.75484037801495,41.75484037801495 0 0,0 -0.10173457298054606,0.711531366476566 l -20.519845570592697 -3.1143758405027127" fill="#ff6c09" stroke="none" /><path d="M 120.76222939487914 103.15116336523771 l 20.522481238436335 3.114775865942845 a41.757506229724015,41.757506229724015 0 0,0 -0.11397461901596904,0.709720061409709 l -20.465824865059076 -3.4675751570457587" fill="#ff6c09" stroke="none" /><path d="M 120.70491114924044 103.5080841355445 l 20.473417996234208 3.468861679978535 a41.765207579105734,41.765207579105734 0 0,0 -0.12619766701602564,0.707783535673267 l -20.410673886878993 -3.82076396638502" fill="#ff6c0a" stroke="none" /><path d="M 120.64145759157962 103.86396538481128 l 20.426104756957805 3.823652538937492 a41.78090648361465,41.78090648361465 0 0,0 -0.13841430782869432,0.7057715736057236 l -20.35726051615345 -4.174687839611161" fill="#ff6c0a" stroke="none" /><path d="M 120.5718875245553 104.21870165774334 l 20.32098961567995 4.167249722531591 a41.74388076543326,41.74388076543326 0 0,0 -0.15040908883279705,0.7026611892628499 l -20.24624648812271 -4.516424731210609" fill="#ff6c09" stroke="none" /><path d="M 120.49622156327973 104.57218783832717 l 20.25781048543144 4.519004366081075 a41.7557289952513,41.7557289952513 0 0,0 -0.16252807891566892,0.7001667102136809 l -20.177021840585216 -4.86703973364332" fill="#ff6c09" stroke="none" /><path d="M 120.41448212921028 104.9243191809786 l 20.19285892531566 4.870859906970046 a41.77202031125111,41.77202031125111 0 0,0 -0.1746243220173694,0.6975373626324899 l -20.106023289003232 -5.2177251089999315" fill="#ff6c0a" stroke="none" /><path d="M 120.32669344350535 105.2749913415812 l 20.122652395492352 5.222040537527063 a41.78920024448728,41.78920024448728 0 0,0 -0.1866821553844774,0.6947137476520527 l -20.0297821637661 -5.567645218354664" fill="#ff6c0a" stroke="none" /><path d="M 120.23288151984713 105.62410040840565 l 14.81093730476787 4.116971597095823 a36.37248577742254,36.37248577742254 0 0,0 -0.17286866168297124,0.6017784895562559 l -14.7378760061988 -4.371307562156661" fill="#ff0a01" stroke="none" /><path d="M 120.13307415673323 105.97154293290107 l 19.90172696956384 5.902924516764867 a41.758691052705814,41.758691052705814 0 0,0 -0.210331025169713,0.6873739599262926 l -19.797169171887994 -6.244625449243216" fill="#ff6c09" stroke="none" /><path d="M 120.02730092923936 106.31721596034902 l 19.82909006621783 6.254694263999709 a41.792162301941794,41.792162301941794 0 0,0 -0.22230992266255142,0.6841995891292432 l -19.71848789253903 -6.595092753106748" fill="#ff6d0a" stroke="none" /><path d="M 119.9155931802556 106.66101706037122 l 19.68618322543109 6.584288056666727 a41.758098641214914,41.758098641214914 0 0,0 -0.23386358488494713,0.6797170467931835 l -19.56992880960291 -6.922177806549211" fill="#ff6c09" stroke="none" /><path d="M 119.79798401119884 107.00284435728193 l 20.193496889395195 7.142743203838371 a42.41952607080728,42.41952607080728 0 0,0 -0.2494182061619514,0.6862917825006013 l -20.067554422228017 -7.489282783345104" fill="#ff770b" stroke="none" /><path d="M 119.67450827220406 107.3425965602758 l 20.55819146146715 7.672390273851018 a42.94321782876487,42.94321782876487 0 0,0 -0.2644192246629241,0.69031515730199 l -20.42307795721072 -8.025128997986153" fill="#ff810b" stroke="none" /><path d="M 119.54520255179757 107.68017299344265 l 19.32860542727556 7.595062420564074 a41.7672810193239,41.7672810193239 0 0,0 -0.26869764168035676,0.6668855109174362 l -19.19500517133781 -7.9266472993243235" fill="#ff6c0a" stroke="none" /><path d="M 119.41010516605496 108.01547362559984 l 19.205408819788275 7.930943523845071 a41.77853683765104,41.77853683765104 0 0,0 -0.28021266289543456,0.6623399616023159 l -19.06604517570053 -8.260358011113551" fill="#ff6c0a" stroke="none" /><path d="M 119.26925614724726 108.34839909993367 l 27.20435920292831 11.786279976170405 a50.64782547369411,50.64782547369411 0 0,0 -0.35347096962592445,0.796983722895726 l -26.997447148571112 -12.252812035558819" fill="#ffff18" stroke="none" /><path d="M 119.12269723197855 108.67885076344098 l 13.528663196168337 6.1399941380682135 a35.85679157459213,35.85679157459213 0 0,0 -0.25991970649221874,0.5598439242416314 l -13.420968872836285 -6.371958129588675" fill="#ff0100" stroke="none" /><path d="M 118.97047184881838 109.00673069616215 l 18.756765277988677 8.905267878220528 a41.763430344633036,41.763430344633036 0 0,0 -0.3139153082142164,0.646758513564267 l -18.600696713159746 -9.22681534775007" fill="#ff6c09" stroke="none" /><path d="M 118.81262510543309 109.33194174019688 l 18.761765829324087 9.306713161041237 a41.94322723212187,41.94322723212187 0 0,0 -0.32640085655857815,0.6440198556473598 l -18.59878630297924 -9.628287228391292" fill="#ff6f0a" stroke="none" /><path d="M 118.64920377521936 109.65438752849418 l 21.09537184574957 10.920728697660254 a44.75451596219851,44.75451596219851 0 0,0 -0.36005539130582975,0.6810891099336462 l -20.904263946218848 -11.282232822680033" fill="#ff9f0e" stroke="none" /><line stroke="#e1ed5e" stroke-width="0.3" x1="174.80103733775053" x2="179.2010983576182" y1="140.37084112569926" y2="142.7455964860345" /><path d="M 175.68104954172406 140.8457921977663 a86.0,86.0 0 0,1 -30.038265399797805,32.042727171017184" fill="none" id="id41" stroke="none" /><text fill="#e1ed5e" style="font-size:6.75px; font-family:Arial;" text-anchor="middle"><textPath startOffset="22.206326154141568" xlink:href="#id41">May</textPath></text><path d="M 118.48025628344425 109.97397251340804 l 18.279370710416263 9.865552632590902 a41.77172410550567,41.77172410550567 0 0,0 -0.3469511477087252,0.6298171118645796 l -18.10684315325603 -10.178740262853287" fill="#ff6c0a" stroke="none" /><path d="M 118.30583269289576 110.29060199501025 l 18.09780599855786 10.173660037128165 a41.76135690441488,41.76135690441488 0 0,0 -0.357652222725098,0.6235967969167778 l -17.920001779680383 -10.483676679903258" fill="#ff6c09" stroke="none" /><path d="M 118.12598468904814 110.60418214915192 l 18.603145760438334 10.883334040886856 a42.552818656260285,42.552818656260285 0 0,0 -0.37531408609927,0.6290479963282747 l -18.41305079864084 -11.201944131101236" fill="#ff7a0b" stroke="none" /><path d="M 117.94076556474637 110.91462005526583 l 17.742960800773776 10.794281609501574 a41.7684658423057,41.7684658423057 0 0,0 -0.3789699852276238,0.6110202828571701 l -17.554526175878188 -11.098098223724017" fill="#ff6c0a" stroke="none" /><line stroke="#e1ed5e" stroke-width="0.3" x1="143.8653032363475" x2="146.44561519142675" y1="172.8068346515853" y2="177.08958963109032" /><path d="M 144.38136562736335 173.6633856474863 a86.0,86.0 0 0,1 -40.68145358897372,12.25698825130547" fill="none" id="id42" stroke="none" /><text fill="#e1ed5e" style="font-size:6.75px; font-family:Arial;" text-anchor="middle"><textPath startOffset="21.466115282336833" xlink:href="#id42">June</textPath></text><line stroke="#e1ed5e" stroke-width="0.3" x1="102.19456741930631" x2="102.32365962044197" y1="184.97166512339345" y2="189.96999836594603" /><path d="M 102.22038585953345 185.97133177190398 a86.0,86.0 0 0,1 -42.740103519485714,-10.115201625700543" fill="none" id="id43" stroke="none" /><text fill="#e1ed5e" style="font-size:6.75px; font-family:Arial;" text-anchor="middle"><textPath startOffset="22.20632615414155" xlink:href="#id43">July</textPath></text><line stroke="#e1ed5e" stroke-width="0.3" x1="58.666819895761336" x2="56.23545636021788" y1="174.27360380694188" y2="178.64263932499728" /><path d="M 58.180547188652646 175.14741091055294 a86.0,86.0 0 0,1 -31.652253787137756,-30.449443065178592" fill="none" id="id44" stroke="none" /><text fill="#e1ed5e" style="font-size:6.75px; font-family:Arial;" text-anchor="middle"><textPath startOffset="22.20632615414155" xlink:href="#id44">August</textPath></text><line stroke="#e1ed5e" stroke-width="0.3" x1="26.63291911575756" x2="22.317208475507996" y1="142.92168965132927" y2="145.44649492493687" /><path d="M 25.769776987707644 143.4266507060508 a86.0,86.0 0 0,1 -11.730757126820373,-40.83630448921669" fill="none" id="id45" stroke="none" /><text fill="#e1ed5e" style="font-size:6.75px; font-family:Arial;" text-anchor="middle"><textPath startOffset="21.46611528233685" xlink:href="#id45">September</textPath></text><line stroke="#e1ed5e" stroke-width="0.3" x1="15.007084014347285" x2="10.007500721073583" y1="101.09737516637583" y2="101.16192664675087" /><path d="M 14.007167355692545 101.11028546245083 a86.0,86.0 0 0,1 10.666146001902534,-42.60595125391555" fill="none" id="id46" stroke="none" /><text fill="#e1ed5e" style="font-size:6.75px; font-family:Arial;" text-anchor="middle"><textPath startOffset="22.20632615414155" xlink:href="#id46">October</textPath></text><line stroke="#e1ed5e" stroke-width="0.3" x1="26.266209847984243" x2="21.928928074336255" y1="57.711370442889674" y2="55.22380399835377" /><path d="M 25.398753493254645 57.213857153982495 a86.0,86.0 0 0,1 29.58750427330803,-30.492523968695096" fill="none" id="id47" stroke="none" /><text fill="#e1ed5e" style="font-size:6.75px; font-family:Arial;" text-anchor="middle"><textPath startOffset="21.46611528233685" xlink:href="#id47">November</textPath></text><line stroke="#e1ed5e" stroke-width="0.3" x1="56.762969772571076" x2="54.21961505331055" y1="26.818313649435495" y2="22.513508569990535" /><path d="M 56.25429882871897 25.957352633546506 a86.0,86.0 0 0,1 42.265352541879196,-11.944610805530505" fill="none" id="id48" stroke="none" /><text fill="#e1ed5e" style="font-size:6.75px; font-family:Arial;" text-anchor="middle"><textPath startOffset="22.20632615414155" xlink:href="#id48">December</textPath></text></svg>