<?xml version="1.0" encoding="utf-8" ?>
<svg baseProfile="full" height="200mm" version="1.1" viewBox="0,0,200,200" width="200mm" xmlns="http://www.w3.org/2000/svg" xmlns:ev="http://www.w3.org/2001/xml-events" xmlns:xlink="http://www.w3.org/1999/xlink"><defs /><rect fill="#1a1a1a" height="200" width="200" x="0" y="0" /><rect fill="#1a1a1a" height="200" width="180" x="10" y="0" /><text alignment-baseline="middle" fill="#e1ed5e" style="dominant-baseline: central; font-size:9.0px; font-family:Arial;" text-anchor="middle" x="100.0" y="100.0">2026</text><line stroke="#e1ed5e" stroke-width="0.3" x1="100.0" x2="100.0" y1="15.0" y2="10.0" /><path d="M 100.0 14.0 a86.0,86.0 0 0,1 42.46469731375804,11.215312516191453" fill="none" id="id37" stroke="none" /><text fill="#e1ed5e" style="font-size:6.75px; font-family:Arial;" text-anchor="middle"><textPath startOffset="22.20632615414155" xlink:href="#id37">January</textPath></text><path d="M 100.0 79.0 l 0.0 -24.776721989750342 a45.77672198975034,45.77672198975034 0 0,0 0.787971019256202,0.00678231533406722 l -0.42649053998367364 24.773051051024833" fill="#ffb110" stroke="none" /><path d="M 100.36148047927253 79.00311137660856 l 0.370032690338866 -21.493650782180783 a42.49683577037002,42.49683577037002 0 0,0 0.7312964064718912,0.018887228644612824 l -0.739955732005625 21.48409676139381" fill="#ff790b" stroke="none" /><path d="M 100.72285384407766 79.0124445844662 l 0.714914652861499 -20.757046555452526 a41.76935445954206,41.76935445954206 0 0,0 0.718351680392532,0.030933734450602046 l -1.0721071656433625 20.741665094477728" fill="#ff6c0a" stroke="none" /><path d="M 101.08401301168833 79.027996857942 l 1.3765013219745195 -26.63066747191095 a47.666218439983076,47.666218439983076 0 0,0 0.8190371714974763,0.04940655887822351 l -1.8347005423116078 26.60302764365242" fill="#ffd013" stroke="none" /><path d="M 101.44485096284872 79.0497635885617 l 1.4275757924198096 -20.699747666343146 a41.748916263105926,41.748916263105926 0 0,0 0.7165104287958801,0.05561499935124466 l -1.783676410578031 20.672107404803437" fill="#ff6c09" stroke="none" /><path d="M 101.80526077348638 79.07773832637324 l 1.795618682938252 -20.810513640050953 a41.88783675772251,41.88783675772251 0 0,0 0.7178276156976183,0.0681663815539176 l -2.1535714257261147 20.776521713981857" fill="#ff6e0a" stroke="none" /><path d="M 102.16513564639614 79.11191278185805 l 2.1398898125390517 -20.644528723144568 a41.755136583760404,41.755136583760404 0 0,0 0.7142778743040914,0.08025744170992014 l -2.494934390352868 20.604635327964047" fill="#ff6c09" stroke="none" /><path d="M 102.88285421437855 79.19881850522331 l 2.8502562342874396 -20.56597136973583 a41.76254172739668,41.76254172739668 0 0,0 0.7112181132314134,0.10481506211864289 l -3.203843327947509 20.51386182345622" fill="#ff6c09" stroke="none" /><path d="M 103.2404852339499 79.25152402106235 l 3.4305051306908103 -21.965152796885416 a43.231426019088815,43.231426019088815 0 0,0 0.7342565256179474,0.1211586180796439 l -3.808090862447633 21.902847915866147" fill="#ff860c" stroke="none" /><path d="M 103.59715602781102 79.31037775812273 l 5.083543044879064 -29.23881656389348 a50.677446048239226,50.677446048239226 0 0,0 0.8581498602284945,0.15682140180089257 l -5.58608802621046 29.14697968074185" fill="#feff18" stroke="none" /><path d="M 103.95276090670814 79.375362276772 l 2.79382456676587 -14.5775625978319 a35.842869904555926,35.842869904555926 0 0,0 0.6049484321559272,0.12134696443110551 l -3.0443394083889226 14.527311677323587" fill="#ff0000" stroke="none" /><path d="M 104.307194497241 79.44645832069477 l 4.35612101896433 -20.78701460561676 a42.23854436033664,42.23854436033664 0 0,0 0.7103261553341359,0.15524978498556097 l -4.713289898451993 20.708951322535327" fill="#ff740a" stroke="none" /><path d="M 104.66035177308747 79.52364482259891 l 4.690874458779849 -20.610463799161025 a42.13753820113781,42.13753820113781 0 0,0 0.7058565632796227,0.1670534432173824 l -5.044954709021995 20.526664443802773" fill="#ff730a" stroke="none" /><path d="M 105.01212808612495 79.60689891045804 l 4.958139720685522 -20.173435874458313 a41.77379754572382,41.77379754572382 0 0,0 0.6968090460065891,0.17763214092768756 l -5.304657655377136 20.08510073736176" fill="#ff6c0a" stroke="none" /><path d="M 105.36241919743992 79.69619591428918 l 5.303144913114471 -20.079373019814426 a41.7678734308148,41.7678734308148 0 0,0 0.6935497918077147,0.18957335709621437 l -5.647992594145896 19.985113121891917" fill="#ff6c0a" stroke="none" /><path d="M 105.71112130821622 79.79150937346287 l 6.139059341452577 -21.722725969595665 a43.57354365508486,43.57354365508486 0 0,0 0.7200212331795115,0.21019394224732957 l -6.512070792355516 21.61383369842963" fill="#ff8b0c" stroke="none" /><path d="M 106.0581310904928 79.89281104454417 l 9.428911801908924 -31.29495027647023 a53.68452677605906,53.68452677605906 0 0,0 0.882508757247557,0.27419976670932417 l -9.966205931867199 31.128010374878386" fill="#d0ff1d" stroke="none" /><path d="M 106.40334571778207 80.00007090966166 l 6.329042942703381 -19.76785506243409 a41.7563214067422,41.7563214067422 0 0,0 0.6826505913762505,0.22505916707921336 l -6.6683763563220495 19.65598217109564" fill="#ff6c09" stroke="none" /><path d="M 106.74666289553966 80.11325718540242 l 6.683221615784709 -19.699740672375597 a41.80252950303259,41.80252950303259 0 0,0 0.6794264569076648,0.2370385499268927 l -7.021330076755648 19.581781269276494" fill="#ff6d0a" stroke="none" /><path d="M 107.08798089147638 80.2323363322302 l 7.0064336196655645 -19.540236553213244 a41.75839484696037,41.75839484696037 0 0,0 0.6745326466407774,0.24843606637297325 l -7.341748592078918 19.416737219033948" fill="#ff6c09" stroke="none" /><path d="M 107.76421540070413 80.48803036053334 l 7.670616979116824 -19.27675082261776 a41.74684282288777,41.74684282288777 0 0,0 0.6653972231704187,0.27143223446049997 l -8.00129807187563 19.14185770197368" fill="#ff6c09" stroke="none" /><path d="M 108.09893153111575 80.62456947434976 l 8.011350814948715 -19.165907321884212 a41.77290892848747,41.77290892848747 0 0,0 0.6610388629182069,0.28302234289107364 l -8.340073435657237 19.02516545103035" fill="#ff6c0a" stroke="none" /><path d="M 108.43124777332544 80.76684994638697 l 11.855081998864438 -27.0435144491211 a50.527862146786404,50.527862146786404 0 0,0 0.7935710691264599,0.3560522066756059 l -12.31883518645768 26.835441911928964" fill="#fffd18" stroke="none" /><path d="M 108.76106565485865 80.91482961587045 l 8.672503469716212 -18.892245863344012 a41.78771921576003,41.78771921576003 0 0,0 0.6511358203567218,0.30571699843561784 l -8.99641750137253 18.74016388226839" fill="#ff6c0a" stroke="none" /><path d="M 109.08828744355905 81.06846463323043 l 8.995904738904512 -18.739095762354896 a41.78653439277822,41.78653439277822 0 0,0 0.6457586220244443,0.3168709513284907 l -9.317134627939389 18.581469650891574" fill="#ff6c0a" stroke="none" /><path d="M 109.41281617654863 81.2277094730956 l 9.301600759501902 -18.55048994345378 a41.75187832056044,41.75187832056044 0 0,0 0.6396775701481296,0.3276676966414915 l -9.619538817238787 18.38762972149979" fill="#ff6c09" stroke="none" /><path d="M 110.05341064243156 81.56283822128135 l 9.943701835712465 -18.23596448458914 a41.77083548826931,41.77083548826931 0 0,0 0.6283047957180588,0.34965093856593094 l -10.25613072050256 18.06209814846303" fill="#ff6c0a" stroke="none" /><path d="M 110.36928655335952 81.73862282372117 l 10.246623875432716 -18.045355619198027 a41.751582114814994,41.751582114814994 0 0,0 0.6219062528693471,0.36024824293297336 l -10.555726860767392 17.866303218875004" fill="#ff6c09" stroke="none" /><line stroke="#e1ed5e" stroke-width="0.3" x1="143.23703022742887" x2="145.7803849466894" y1="26.81831364943548" y2="22.513508569990506" /><path d="M 143.74570117128098 25.957352633546492 a86.0,86.0 0 0,1 28.547481713284135,27.462654790039103" fill="none" id="id38" stroke="none" /><text fill="#e1ed5e" style="font-size:6.75px; font-family:Arial;" text-anchor="middle"><textPath startOffset="19.985693538727396" xlink:href="#id38">February</textPath></text><path d="M 110.68208982089419 81.91981866633111 l 10.555124175742936 -17.865283132476932 a41.75039729183318,41.75039729183318 0 0,0 0.6155955596207604,0.37088943672577884 l -10.861081801581333 17.680947086292537" fill="#ff6c09" stroke="none" /><path d="M 110.99172775467656 82.1063720568725 l 11.282787093217804 -18.367448586202833 a42.556076919460246,42.556076919460246 0 0,0 0.6208746151569235,0.3887916270521189 l -11.597280860746991 18.17051261782777" fill="#ff7a0b" stroke="none" /><path d="M 111.2981086023043 82.29822771554956 l 11.176410512089053 -17.511096839889454 a41.77379754572382,41.77379754572382 0 0,0 0.6028018149793347,0.3920790684859159 l -11.476179352852668 17.31611884724401" fill="#ff6c0a" stroke="none" /><path d="M 112.19680574252982 82.90503203632743 l 12.073513004994256 -16.922161620535164 a41.78771921576003,41.78771921576003 0 0,0 0.5819530573115145,0.42281364543955385 l -12.363011378659559 16.711828740278936" fill="#ff6c0a" stroke="none" /><path d="M 112.48926042617603 83.11751280151076 l 14.651877249889587 -19.805826899618403 a45.6363204664065,45.6363204664065 0 0,0 0.6275077649042812,0.4726258389256279 l -14.990631168552252 19.550684471186926" fill="#ffae10" stroke="none" /><path d="M 112.77801427241765 83.33499621200491 l 12.644700935304973 -16.49113739368619 a41.78090648361465,41.78090648361465 0 0,0 0.5669618173218314,0.44252269141901956 l -12.926695307786234 16.271036313043947" fill="#ff6c0a" stroke="none" /><path d="M 113.06298171725822 83.55741782278167 l 18.436805819628926 -23.20669976703399 a50.63893930133058,50.63893930133058 0 0,0 0.6778301779953833,0.548091530676394 l -18.833539396188797 22.885902139093467" fill="#ffff18" stroke="none" /><path d="M 113.34407831869373 83.78471172551755 l 18.841632800218658 -22.895736979412273 a50.65167614838497,50.65167614838497 0 0,0 0.668463346900597,0.5598188290525351 l -19.23295368407837 22.56801699296592" fill="#ffff18" stroke="none" /><path d="M 113.6212207817346 84.01681056812373 l 19.232377300670432 -22.567340662603016 a50.65078753114862,50.65078753114862 0 0,0 0.6587163894372305,0.571232361820877 l -19.617987488754427 22.232943307362465" fill="#ffff18" stroke="none" /><path d="M 113.89432698308785 84.25364557470407 l 13.724869631100775 -15.554309461361493 a41.74388076543326,41.74388076543326 0 0,0 0.5346973933811734,0.4800565991746853 l -13.99057801207794 15.31575385341751" fill="#ff6c09" stroke="none" /><path d="M 114.42810811169701 84.74124197986012 l 19.718391807210683 -20.853612046933 a49.69996708825051,49.69996708825051 0 0,0 0.6165559151619329,0.593126301889168 l -20.074430965985034 20.51110265828153" fill="#fff016" stroke="none" /><path d="M 114.68862486808459 84.99185889309783 l 14.520046499082785 -14.835895714820053 a41.75898725845127,41.75898725845127 0 0,0 0.5093884550897211,0.5072009791804479 l -14.773270754339828 14.583758884989486" fill="#ff6c09" stroke="none" /><path d="M 114.94478906791727 85.2469230424477 l 10.547216902720965 -10.411916952905113 a35.820654473647096,35.820654473647096 0 0,0 0.42939708707428914,0.4425314432996205 l -10.724878253498362 10.228821314055377" fill="#ff0000" stroke="none" /><path d="M 115.4437574822437 85.77008943001954 l 17.437671537734836 -16.06710716714847 a44.711269923362636,44.711269923362636 0 0,0 0.5166416182398533,0.570488578743041 l -17.711656796590727 15.764565801135882" fill="#ff9f0e" stroke="none" /><path d="M 115.68641384162765 86.03803664274999 l 22.13016755521555 -19.69733755689708 a50.626498660021625,50.626498660021625 0 0,0 0.5737865999833481,0.6559372728240092 l -22.465946018776744 19.313484727870122" fill="#ffff18" stroke="none" /><path d="M 115.9244219780498 86.31012108654704 l 17.98331369827357 -15.459863305013652 a44.7151205980535,44.7151205980535 0 0,0 0.4967410977223557,0.5879847794956031 l -18.246765409483043 15.148019575888942" fill="#ff9f0e" stroke="none" /><path d="M 116.15771136456269 86.58626213691792 l 18.26431410159464 -15.162588072040021 a44.737928440453246,44.737928440453246 0 0,0 0.4867944814295848,0.596752475005282 l -18.52260707510063 14.845951427426638" fill="#ff9f0e" stroke="none" /><path d="M 116.38621287248628 86.86637796730983 l 16.190524402430736 -12.97677685913696 a41.74921246885138,41.74921246885138 0 0,0 0.444621000336867,0.5646235184583067 l -16.411499483361567 12.696160946725614" fill="#ff6c09" stroke="none" /><path d="M 116.60985879189232 87.15038557335679 l 16.417356549558342 -12.700692053416093 a41.75661761248766,41.75661761248766 0 0,0 0.4349131869863136,0.5722947741232436 l -16.63354567676877 12.416212503411817" fill="#ff6c09" stroke="none" /><path d="M 116.82858285166822 87.43820079747576 l 16.631171999183785 -12.414440657175154 a41.75365555503315,41.75365555503315 0 0,0 0.42496748839708076,0.5796551765855489 l -16.842402100094493 12.126323036918112" fill="#ff6c09" stroke="none" /><path d="M 117.2510076193507 88.02491185347247 l 17.066404237237567 -11.846942485605547 a41.77527857445108,41.77527857445108 0 0,0 0.40497260274435204,0.5942473235328316 l -17.26780130565065 11.551417138802309" fill="#ff6c0a" stroke="none" /><path d="M 117.65298651832404 88.62581576622439 l 28.306114444349927 -18.238214836802555 a54.67296534862946,54.67296534862946 0 0,0 0.5029194350836345,0.7954977699387346 l -28.615861475679516 17.748269419149615" fill="#c2ff1e" stroke="none" /><line stroke="#e1ed5e" stroke-width="0.3" x1="172.23445277983987" x2="176.4835382374775" y1="55.19839476539836" y2="52.563006222186495" /><path d="M 173.08426987136738 54.67131705675599 a86.0,86.0 0 0,1 12.851231095245387,41.99856678651699" fill="none" id="id39" stroke="none" /><text fill="#e1ed5e" style="font-size:6.75px; font-family:Arial;" text-anchor="middle"><textPath startOffset="22.20632615414155" xlink:href="#id39">March</textPath></text><path d="M 117.84615892207809 88.93136811851018 l 17.626994094843763 -10.932700401521549 a41.742103530960556,41.742103530960556 0 0,0 0.3734610380842056,0.6138717516422427 l -17.812570931214193 10.627660876672223" fill="#ff6c09" stroke="none" /><path d="M 118.03404312379186 89.2402003453031 l 54.10212937137558 -32.279398964090696 a84.0,84.0 0 0,0 0.7301613021186908,1.2480823505844187 l -54.6497503479646 31.34333720115238" fill="#4dd2ff" stroke="none" /><path d="M 118.73160827565052 90.50648371742162 l 18.51927150592654 -9.385900185172325 a41.76194931590578,41.76194931590578 0 0,0 0.31945899986416815,0.6440098500737584 l -18.678090518744117 9.065730746599616" fill="#ff6c09" stroke="none" /><path d="M 118.89224826269711 90.83032412892265 l 20.01766452809921 -9.715915907217028 a43.25097559828859,43.25097559828859 0 0,0 0.3193194940411806,0.6725682910746218 l -20.181942215982147 9.369905200501867" fill="#ff860c" stroke="none" /><path d="M 119.04729006885535 91.15688171328212 l 18.951467038277165 -8.79863036266509 a41.89435328412243,41.89435328412243 0 0,0 0.29804377680794697,0.6566999549965882 l -19.10011313204846 8.47110839882644" fill="#ff6e0a" stroke="none" /><path d="M 119.196687751892 91.48605970444005 l 19.985260138408908 -8.863680745803524 a42.86264986600216,42.86264986600216 0 0,0 0.29332195173832787,0.6770275059922787 l -20.134872799989918 8.518354095224643" fill="#ff7f0b" stroke="none" /><path d="M 119.34039704204932 91.81776055985345 l 24.023048253095318 -10.163303910548478 a47.08447035591706,47.08447035591706 0 0,0 0.30936360921744194,0.7491485182214049 l -24.19443354919896 9.74828082187377" fill="#ffc612" stroke="none" /><line stroke="#e1ed5e" stroke-width="0.3" x1="184.98032266829074" x2="189.97916517819016" y1="98.17113171792111" y2="98.06355123074" /><path d="M 185.9800911702706 98.14961562048488 a86.0,86.0 0 0,1 -9.607161424134198,41.387399972396054" fill="none" id="id40" stroke="none" /><text fill="#e1ed5e" style="font-size:6.75px; font-family:Arial;" text-anchor="middle"><textPath startOffset="21.466115282336823" xlink:href="#id40">April</textPath></text><line stroke="#e1ed5e" stroke-width="0.3" x1="174.80103733775053" x2="179.2010983576182" y1="140.37084112569926" y2="142.7455964860345" /><path d="M 175.68104954172406 140.8457921977663 a86.0,86.0 0 0,1 -30.038265399797805,32.042727171017184" fill="none" id="id41" stroke="none" /><text fill="#e1ed5e" style="font-size:6.75px; font-family:Arial;" text-anchor="middle"><textPath startOffset="22.206326154141568" xlink:href="#id41">May</textPath></text><line stroke="#e1ed5e" stroke-width="0.3" x1="143.8653032363475" x2="146.44561519142675" y1="172.8068346515853" y2="177.08958963109032" /><path d="M 144.38136562736335 173.6633856474863 a86.0,86.0 0 0,1 -40.68145358897372,12.25698825130547" fill="none" id="id42" stroke="none" /><text fill="#e1ed5e" style="font-size:6.75px; font-family:Arial;" text-anchor="middle"><textPath startOffset="21.466115282336833" xlink:href="#id42">June</textPath></text><line stroke="#e1ed5e" stroke-width="0.3" x1="102.19456741930631" x2="102.32365962044197" y1="184.97166512339345" y2="189.96999836594603" /><path d="M 102.22038585953345 185.97133177190398 a86.0,86.0 0 0,1 -42.740103519485714,-10.115201625700543" fill="none" id="id43" stroke="none" /><text fill="#e1ed5e" style="font-size:6.75px; font-family:Arial;" text-anchor="middle"><textPath startOffset="22.20632615414155" xlink:href="#id43">July</textPath></text><line stroke="#e1ed5e" stroke-width="0.3" x1="58.666819895761336" x2="56.23545636021788" y1="174.27360380694188" y2="178.64263932499728" /><path d="M 58.180547188652646 175.14741091055294 a86.0,86.0 0 0,1 -31.652253787137756,-30.449443065178592" fill="none" id="id44" stroke="none" /><text fill="#e1ed5e" style="font-size:6.75px; font-family:Arial;" text-anchor="middle"><textPath startOffset="22.20632615414155" xlink:href="#id44">August</textPath></text><line stroke="#e1ed5e" stroke-width="0.3" x1="26.63291911575756" x2="22.317208475507996" y1="142.92168965132927" y2="145.44649492493687" /><path d="M 25.769776987707644 143.4266507060508 a86.0,86.0 0 0,1 -11.730757126820373,-40.83630448921669" fill="none" id="id45" stroke="none" /><text fill="#e1ed5e" style="font-size:6.75px; font-family:Arial;" text-anchor="middle"><textPath startOffset="21.46611528233685" xlink:href="#id45">September</textPath></text><line stroke="#e1ed5e" stroke-width="0.3" x1="15.007084014347285" x2="10.007500721073583" y1="101.09737516637583" y2="101.16192664675087" /><path d="M 14.007167355692545 101.11028546245083 a86.0,86.0 0 0,1 10.666146001902534,-42.60595125391555" fill="none" id="id46" stroke="none" /><text fill="#e1ed5e" style="font-size:6.75px; font-family:Arial;" text-anchor="middle"><textPath startOffset="22.20632615414155" xlink:href="#id46">October</textPath></text><line stroke="#e1ed5e" stroke-width="0.3" x1="26.266209847984243" x2="21.928928074336255" y1="57.711370442889674" y2="55.22380399835377" /><path d="M 25.398753493254645 57.213857153982495 a86.0,86.0 0 0,1 29.58750427330803,-30.492523968695096" fill="none" id="id47" stroke="none" /><text fill="#e1ed5e" style="font-size:6.75px; font-family:Arial;" text-anchor="middle"><textPath startOffset="21.46611528233685" xlink:href="#id47">November</textPath></text><line stroke="#e1ed5e" stroke-width="0.3" x1="56.762969772571076" x2="54.21961505331055" y1="26.818313649435495" y2="22.513508569990535" /><path d="M 56.25429882871897 25.957352633546506 a86.0,86.0 0 0,1 42.265352541879196,-11.944610805530505" fill="none" id="id48" stroke="none" /><text fill="#e1ed5e" style="font-size:6.75px; font-family:Arial;" text-anchor="middle"><textPath startOffset="22.20632615414155" xlink:href="#id48">December</textPath></text></svg>