<?xml version="1.0" encoding="utf-8" ?>
<svg baseProfile="full" height="200mm" version="1.1" viewBox="0,0,200,200" width="200mm" xmlns="http://www.w3.org/2000/svg" xmlns:ev="http://www.w3.org/2001/xml-events" xmlns:xlink="http://www.w3.org/1999/xlink"><defs /><rect fill="#1a1a1a" height="200" width="200" x="0" y="0" /><text alignment-baseline="middle" fill="#e1ed5e" style="dominant-baseline: central; font-size:9.0px; font-family:Arial;" text-anchor="middle" x="100.0" y="100.0">2025</text><line stroke="#e1ed5e" stroke-width="0.3" x1="100.0" x2="100.0" y1="15.0" y2="10.0" /><path d="M 100.0 14.0 a86.0,86.0 0 0,1 42.46469731375804,11.215312516191453" fill="none" id="id25" stroke="none" /><text fill="#e1ed5e" style="font-size:6.75px; font-family:Arial;" text-anchor="middle"><textPath startOffset="22.20632615414155" xlink:href="#id25">January</textPath></text><path d="M 100.0 79.0 l 0.0 -31.694933117146334 a52.694933117146334,52.694933117146334 0 0,0 0.9070566513533278,0.007807322966203009 l -0.5455761720807994 31.69023717078869" fill="#ff0000" stroke="none" /><path d="M 100.36148047927253 79.00311137660856 l 1.0415385256445018 -60.49861520583341 a81.50758005674908,81.50758005674908 0 0,0 1.402603260106243,0.03622510412585243 l -2.0827684209456123 60.47172330956519" fill="#47fffe" stroke="none" /><path d="M 100.72285384407766 79.0124445844662 l 2.0736069980872847 -60.2057278092305 a81.24142683421158,81.24142683421158 0 0,0 1.3971945757593751,0.06016613750906097 l -3.109642406235991 60.16111394519724" fill="#46fff9" stroke="none" /><path d="M 101.08401301168833 79.027996857942 l 3.1254902927195314 -60.46771720691468 a81.54843940008107,81.54843940008107 0 0,0 1.4012272282596343,0.08452585299419817 l -4.165879569818777 60.404958084540176" fill="#47ffff" stroke="none" /><path d="M 101.44485096284872 79.0497635885617 l 4.142062272498477 -60.0596089638544 a81.20226996351845,81.20226996351845 0 0,0 1.3936235590904635,0.10817201009195004 l -5.175276020951283 59.979411691573986" fill="#46fff8" stroke="none" /><path d="M 101.80526077348638 79.07773832637324 l 5.130443305079536 -59.459818164265165 a80.68074584515607,80.68074584515607 0 0,0 1.3826177693947546,0.1312962170175003 l -6.153186201564535 59.36269640273249" fill="#45ffee" stroke="none" /><path d="M 102.16513564639614 79.11191278185805 l 6.437248721852421 -62.103181835622074 a83.43591406566681,83.43591406566681 0 0,0 1.4272837359756556,0.16037195797950127 l -7.505299161337802 61.98317392417197" fill="#4cdcff" stroke="none" /><path d="M 102.52436894288641 79.15227682838746 l 7.141020546150302 -58.974746907919815 a80.4055127685448,80.4055127685448 0 0,0 1.3725805749665536,0.17820035195692818 l -8.155115849624702 58.84308823279875" fill="#44ffe8" stroke="none" /><path d="M 102.88285421437855 79.19881850522331 l 8.137898965923103 -58.718860125506616 a80.2800972841508,80.2800972841508 0 0,0 1.3671739544294073,0.2014859018556554 l -9.147441900781168 58.57007973948999" fill="#44ffe6" stroke="none" /><path d="M 103.2404852339499 79.25152402106235 l 9.101117979993179 -58.273472691986726 a79.97989460883664,79.97989460883664 0 0,0 1.3584044049077555,0.22414836606785726 l -10.102851591039808 58.10817806297924" fill="#43ffe0" stroke="none" /><path d="M 103.95276090670814 79.375362276772 l 11.26406007658926 -58.7733900064813 a80.84304823672477,80.84304823672477 0 0,0 1.364451993150702,0.27369623372812146 l -12.274078479207088 58.57078981667597" fill="#45fff1" stroke="none" /><path d="M 104.307194497241 79.44645832069477 l 12.299452574610372 -58.69187269969417 a80.96676124847994,80.96676124847994 0 0,0 1.3616190874583274,0.29759719387033295 l -13.307914386222228 58.47146200772797" fill="#46fff3" stroke="none" /><path d="M 104.66035177308747 79.52364482259891 l 13.329072043238268 -58.56442316621474 a81.06209971625455,81.06209971625455 0 0,0 1.357891741202871,0.3213691034201297 l -14.335187471403664 58.32630815065374" fill="#46fff5" stroke="none" /><path d="M 105.01212808612495 79.60689891045804 l 14.404941449632396 -58.61011971830983 a81.35435751925414,81.35435751925414 0 0,0 1.357033728844539,0.3459381130988634 l -15.41168406716196 58.3534786090421" fill="#46fffb" stroke="none" /><path d="M 105.36241919743992 79.69619591428918 l 16.01393279529493 -60.63378153513898 a83.7128496149169,83.7128496149169 0 0,0 1.3900403504675996,0.37995053686123825 l -17.05527103498624 60.349144457451445" fill="#4cd7ff" stroke="none" /><path d="M 105.71112130821622 79.79150937346287 l 16.989987848568852 -60.11814347015175 a83.47280097284151,83.47280097284151 0 0,0 1.3793275472191158,0.40266353468501515 l -18.022305613511396 59.816781606548034" fill="#4cdbff" stroke="none" /><path d="M 106.0581310904928 79.89281104454417 l 17.692918780540943 -58.72353301369903 a82.33100932306445,82.33100932306445 0 0,0 1.3534223189434322,0.42051490261799207 l -18.701126472195096 58.41027797619852" fill="#49f1ff" stroke="none" /><path d="M 106.40334571778207 80.00007090966166 l 18.1717970693929 -56.75699374197761 a80.59505472233482,80.59505472233482 0 0,0 1.3176031775471388,0.43439305176876836 l -19.146083069182453 56.4357869659496" fill="#45ffec" stroke="none" /><path d="M 106.74666289553966 80.11325718540242 l 20.239988686618958 -59.66022844379275 a84.0,84.0 0 0,0 1.3652719837469054,0.4763165873111701 l -21.26394267442914 59.302991003309366" fill="#4dd2ff" stroke="none" /><path d="M 107.08798089147638 80.2323363322302 l 21.202457959764526 -59.1315163367142 a83.81783542764491,83.81783542764491 0 0,0 1.3539281520258406,0.49866316466082006 l -22.217168437562943 58.757789904247055" fill="#4dd5ff" stroke="none" /><path d="M 107.4271985657038 80.35727306442388 l 22.25068666916604 -58.846435638559754 a83.91260640453993,83.91260640453993 0 0,0 1.3466648108136532,0.5224850249025917 l -23.26033464497936 58.45470790976661" fill="#4dd4ff" stroke="none" /><path d="M 107.76421540070413 80.48803036053334 l 23.178926306228565 -58.25012355035266 a83.69241994325091,83.69241994325091 0 0,0 1.3339620451518388,0.5441566120096768 l -24.17817222096879 57.84250605215941" fill="#4cd8ff" stroke="none" /><path d="M 108.09893153111575 80.62456947434976 l 24.230261011791804 -57.9671203600936 a83.8274827725983,83.8274827725983 0 0,0 1.3265349556612835,0.5679530389798241 l -25.224479725243402 57.54144779315099" fill="#4dd5ff" stroke="none" /><path d="M 108.43124777332544 80.76684994638697 l 25.17549395923165 -57.4297026975821 a83.70547223348197,83.70547223348197 0 0,0 1.314645786894513,0.5898432435746825 l -26.16032186459294 56.987839123490886" fill="#4cd7ff" stroke="none" /><path d="M 108.76106565485865 80.91482961587045 l 26.06964524938389 -56.79030851257015 a83.488123226591,83.488123226591 0 0,0 1.3009110960687946,0.6107952029176611 l -27.04333455675228 56.33314832701249" fill="#4cdbff" stroke="none" /><path d="M 109.08828744355905 81.06846463323043 l 27.019757321389992 -56.284035304577415 a83.43364410214836,83.43364410214836 0 0,0 1.289362609960608,0.632684633067335 l -27.98459119836103 55.810595511375254" fill="#4cdcff" stroke="none" /><path d="M 109.41281617654863 81.2277094730956 l 27.636872789677284 -55.117129191951435 a82.65788406972031,82.65788406972031 0 0,0 1.2663955865493801,0.6486970065020331 l -28.58152886381542 54.6332396601369" fill="#4aeaff" stroke="none" /><line stroke="#e1ed5e" stroke-width="0.3" x1="143.23703022742887" x2="145.7803849466894" y1="26.81831364943548" y2="22.513508569990506" /><path d="M 143.74570117128098 25.957352633546492 a86.0,86.0 0 0,1 28.547481713284135,27.462654790039103" fill="none" id="id26" stroke="none" /><text fill="#e1ed5e" style="font-size:6.75px; font-family:Arial;" text-anchor="middle"><textPath startOffset="19.985693538727396" xlink:href="#id26">February</textPath></text><line stroke="#e1ed5e" stroke-width="0.3" x1="172.23445277983987" x2="176.4835382374775" y1="55.19839476539836" y2="52.563006222186495" /><path d="M 173.08426987136738 54.67131705675599 a86.0,86.0 0 0,1 12.851231095245387,41.99856678651699" fill="none" id="id27" stroke="none" /><text fill="#e1ed5e" style="font-size:6.75px; font-family:Arial;" text-anchor="middle"><textPath startOffset="22.20632615414155" xlink:href="#id27">March</textPath></text><line stroke="#e1ed5e" stroke-width="0.3" x1="184.98032266829074" x2="189.97916517819016" y1="98.17113171792111" y2="98.06355123074" /><path d="M 185.9800911702706 98.14961562048488 a86.0,86.0 0 0,1 -9.607161424134198,41.387399972396054" fill="none" id="id28" stroke="none" /><text fill="#e1ed5e" style="font-size:6.75px; font-family:Arial;" text-anchor="middle"><textPath startOffset="21.466115282336823" xlink:href="#id28">April</textPath></text><line stroke="#e1ed5e" stroke-width="0.3" x1="174.80103733775053" x2="179.2010983576182" y1="140.37084112569926" y2="142.7455964860345" /><path d="M 175.68104954172406 140.8457921977663 a86.0,86.0 0 0,1 -30.038265399797805,32.042727171017184" fill="none" id="id29" stroke="none" /><text fill="#e1ed5e" style="font-size:6.75px; font-family:Arial;" text-anchor="middle"><textPath startOffset="22.206326154141568" xlink:href="#id29">May</textPath></text><line stroke="#e1ed5e" stroke-width="0.3" x1="143.8653032363475" x2="146.44561519142675" y1="172.8068346515853" y2="177.08958963109032" /><path d="M 144.38136562736335 173.6633856474863 a86.0,86.0 0 0,1 -40.68145358897372,12.25698825130547" fill="none" id="id30" stroke="none" /><text fill="#e1ed5e" style="font-size:6.75px; font-family:Arial;" text-anchor="middle"><textPath startOffset="21.466115282336833" xlink:href="#id30">June</textPath></text><line stroke="#e1ed5e" stroke-width="0.3" x1="102.19456741930631" x2="102.32365962044197" y1="184.97166512339345" y2="189.96999836594603" /><path d="M 102.22038585953345 185.97133177190398 a86.0,86.0 0 0,1 -42.740103519485714,-10.115201625700543" fill="none" id="id31" stroke="none" /><text fill="#e1ed5e" style="font-size:6.75px; font-family:Arial;" text-anchor="middle"><textPath startOffset="22.20632615414155" xlink:href="#id31">July</textPath></text><line stroke="#e1ed5e" stroke-width="0.3" x1="58.666819895761336" x2="56.23545636021788" y1="174.27360380694188" y2="178.64263932499728" /><path d="M 58.180547188652646 175.14741091055294 a86.0,86.0 0 0,1 -31.652253787137756,-30.449443065178592" fill="none" id="id32" stroke="none" /><text fill="#e1ed5e" style="font-size:6.75px; font-family:Arial;" text-anchor="middle"><textPath startOffset="22.20632615414155" xlink:href="#id32">August</textPath></text><line stroke="#e1ed5e" stroke-width="0.3" x1="26.63291911575756" x2="22.317208475507996" y1="142.92168965132927" y2="145.44649492493687" /><path d="M 25.769776987707644 143.4266507060508 a86.0,86.0 0 0,1 -11.730757126820373,-40.83630448921669" fill="none" id="id33" stroke="none" /><text fill="#e1ed5e" style="font-size:6.75px; font-family:Arial;" text-anchor="middle"><textPath startOffset="21.46611528233685" xlink:href="#id33">September</textPath></text><line stroke="#e1ed5e" stroke-width="0.3" x1="15.007084014347285" x2="10.007500721073583" y1="101.09737516637583" y2="101.16192664675087" /><path d="M 14.007167355692545 101.11028546245083 a86.0,86.0 0 0,1 10.666146001902534,-42.60595125391555" fill="none" id="id34" stroke="none" /><text fill="#e1ed5e" style="font-size:6.75px; font-family:Arial;" text-anchor="middle"><textPath startOffset="22.20632615414155" xlink:href="#id34">October</textPath></text><line stroke="#e1ed5e" stroke-width="0.3" x1="26.266209847984243" x2="21.928928074336255" y1="57.711370442889674" y2="55.22380399835377" /><path d="M 25.398753493254645 57.213857153982495 a86.0,86.0 0 0,1 29.58750427330803,-30.492523968695096" fill="none" id="id35" stroke="none" /><text fill="#e1ed5e" style="font-size:6.75px; font-family:Arial;" text-anchor="middle"><textPath startOffset="21.46611528233685" xlink:href="#id35">November</textPath></text><line stroke="#e1ed5e" stroke-width="0.3" x1="56.762969772571076" x2="54.21961505331055" y1="26.818313649435495" y2="22.513508569990535" /><path d="M 56.25429882871897 25.957352633546506 a86.0,86.0 0 0,1 42.265352541879196,-11.944610805530505" fill="none" id="id36" stroke="none" /><text fill="#e1ed5e" style="font-size:6.75px; font-family:Arial;" text-anchor="middle"><textPath startOffset="22.20632615414155" xlink:href="#id36">December</textPath></text></svg>